<?xml version="1.0" encoding="UTF-8" standalone="no"?>
<!-- Created with Inkscape (http://www.inkscape.org/) -->

<svg
   xmlns:dc="http://purl.org/dc/elements/1.1/"
   xmlns:cc="http://creativecommons.org/ns#"
   xmlns:rdf="http://www.w3.org/1999/02/22-rdf-syntax-ns#"
   xmlns:svg="http://www.w3.org/2000/svg"
   xmlns="http://www.w3.org/2000/svg"
   xmlns:sodipodi="http://sodipodi.sourceforge.net/DTD/sodipodi-0.dtd"
   xmlns:inkscape="http://www.inkscape.org/namespaces/inkscape"
   width="52.415909mm"
   height="27.567587mm"
   viewBox="0 0 52.415909 27.567587"
   version="1.1"
   id="svg8"
   inkscape:version="0.92.2 (5c3e80d, 2017-08-06)"
   sodipodi:docname="Backwards.svg">
  <defs
     id="defs2" />
  <sodipodi:namedview
     id="base"
     pagecolor="#ffffff"
     bordercolor="#666666"
     borderopacity="1.0"
     inkscape:pageopacity="0.0"
     inkscape:pageshadow="2"
     inkscape:zoom="0.35"
     inkscape:cx="-40.946326"
     inkscape:cy="-125.04663"
     inkscape:document-units="mm"
     inkscape:current-layer="layer1"
     showgrid="false"
     fit-margin-top="0"
     fit-margin-left="0"
     fit-margin-right="0"
     fit-margin-bottom="0"
     inkscape:window-width="1366"
     inkscape:window-height="746"
     inkscape:window-x="1352"
     inkscape:window-y="-8"
     inkscape:window-maximized="1" />
  <metadata
     id="metadata5">
    <rdf:RDF>
      <cc:Work
         rdf:about="">
        <dc:format>image/svg+xml</dc:format>
        <dc:type
           rdf:resource="http://purl.org/dc/dcmitype/StillImage" />
        <dc:title></dc:title>
      </cc:Work>
    </rdf:RDF>
  </metadata>
  <g
     inkscape:label="Layer 1"
     inkscape:groupmode="layer"
     id="layer1"
     transform="translate(-116.66705,-88.180493)">
    <g
       id="layer1-0"
       inkscape:label="Layer 1"
       transform="translate(113.10179,85.008869)">
      <path
         inkscape:connector-curvature="0"
         d="m 54.228984,3.922557 c -0.321153,0.143325 -0.633269,0.308478 -0.950042,0.462888 -0.841167,0.419043 -1.713339,0.762547 -2.575733,1.128057 -1.087411,0.468936 -2.18821,0.903468 -3.262644,1.406072 -0.447007,0.209103 -1.274755,0.623299 -1.712066,0.840385 -1.892812,0.955477 -3.757651,1.9712719 -5.627881,2.975177 -1.746161,0.914673 -3.447048,1.921203 -5.154453,2.913796 -0.968965,0.580119 -1.965755,1.106541 -2.93651,1.682843 -0.379602,0.219144 -0.742936,0.464564 -1.091168,0.735324 -0.144311,0.102059 -0.271589,0.226255 -0.408165,0.338665 0,0 1.114269,0.743892 1.114269,0.743892 v 0 c 0.13108,-0.115877 0.260728,-0.232897 0.397784,-0.340936 0.331165,-0.276434 0.686706,-0.515173 1.048445,-0.744052 0.942152,-0.596094 1.900737,-1.162931 2.854884,-1.736845 1.686577,-1.011019 3.373214,-2.02433 5.107847,-2.940321 1.876236,-0.999962 3.749886,-2.00646 5.649741,-2.955097 0.40962,-0.19952 1.299594,-0.63576 1.719844,-0.829819 1.079963,-0.498697 2.181741,-0.941791 3.281529,-1.387801 0.890953,-0.349946 1.800915,-0.653949 2.665675,-1.073531 0.324709,-0.154763 0.650168,-0.307365 0.980604,-0.447733 0,0 -1.10196,-0.770964 -1.10196,-0.770964 z"
         id="path50"
         style="fill:#000000;stroke:#000000;stroke-width:0.25698799;stroke-miterlimit:4;stroke-dasharray:none;stroke-opacity:1" />
      <path
         inkscape:connector-curvature="0"
         d="m 31.686845,17.256587 c 0.521464,0.471078 0.982347,1.013664 1.524032,1.460183 0.547065,0.450956 0.917522,0.686308 1.504884,1.09102 1.229895,0.810794 2.508839,1.533728 3.852774,2.10594 1.117247,0.475694 2.270154,0.853834 3.41714,1.237488 1.311211,0.447156 2.649772,0.800105 3.957834,1.257514 0.306772,0.114671 0.602957,0.250651 0.880504,0.430896 -0.343393,-0.20968 -1.369657,-0.84581 -1.03018,-0.629037 0.402429,0.256971 0.808836,0.50704 1.21907,0.749652 0.04783,0.02829 0.375168,0.140981 0.387234,0.145002 0.314032,0.104699 0.427737,0.133284 0.764163,0.230434 0.942344,0.252399 1.867084,0.570061 2.79704,0.868021 0.417743,0.105529 0.814259,0.272055 1.195897,0.478372 0.449168,0.209463 0.89055,0.439653 1.350208,0.622308 0.513521,0.192556 1.599376,0.894887 -0.422082,-0.336079 0.51236,0.364538 1.053224,0.662657 1.609919,0.930823 0.198304,0.124663 0.409295,0.223305 0.61175,0.339579 0.123562,0.07161 0.257803,0.109318 0.394711,0.137837 0,0 -1.044689,-0.848246 -1.044689,-0.848246 v 0 c -0.129183,-0.04032 -0.254248,-0.09114 -0.371916,-0.161782 -0.207412,-0.110887 -0.412601,-0.226383 -0.620022,-0.337074 -0.07655,-0.03722 -0.153166,-0.07299 -0.230256,-0.108754 -0.02719,-0.01262 -0.106302,-0.05585 -0.08074,-0.03983 0.613646,0.384623 1.428902,0.875456 0.95604,0.590535 -0.61584,-0.378161 -1.161702,-0.769348 -1.82056,-1.015363 -0.454955,-0.189018 -0.897928,-0.410527 -1.340246,-0.630338 -0.381637,-0.19464 -0.77678,-0.345067 -1.19061,-0.444177 -0.926925,-0.282998 -1.848932,-0.584221 -2.77986,-0.85248 -0.323155,-0.102351 -0.485874,-0.147981 -0.790406,-0.264033 -0.08145,-0.03104 -0.162243,-0.06422 -0.241767,-0.100478 -0.05251,-0.02394 -0.203026,-0.111204 -0.154014,-0.07998 0.063,0.04013 2.981972,1.84691 -0.188027,-0.122113 -0.276543,-0.15798 -0.565425,-0.283901 -0.866326,-0.380704 -1.270353,-0.396806 -2.559911,-0.722477 -3.822941,-1.146918 -1.150631,-0.385022 -2.302654,-0.770041 -3.420224,-1.256255 -1.1135,-0.484445 -0.928467,-0.454975 -1.993823,-0.99178 -0.03135,-0.0158 0.0564,0.04296 0.0846,0.06444 -0.582582,-0.399701 -0.918291,-0.609857 -1.457783,-1.05364 -0.517992,-0.426096 -0.953224,-0.944197 -1.436875,-1.410489 0,0 -1.204452,-0.530492 -1.204452,-0.530492 z"
         id="path54"
         style="fill:#000000;stroke:#000000;stroke-width:0.25698799;stroke-miterlimit:4;stroke-dasharray:none;stroke-opacity:1" />
      <path
         inkscape:connector-curvature="0"
         d="m 54.353159,4.716079 c 0.04637,0.312169 0.06451,0.627977 0.07742,0.943383 0.0058,0.449218 0.08703,0.891383 0.13323,1.336881 0.04679,0.550613 0.05367,1.103435 0.08791,1.654955 0.04372,0.648848 0.05574,1.2992689 0.06505,1.949485 0.0065,0.75415 0.01771,1.508454 7.97e-4,2.262491 -0.02045,0.771489 -0.04301,1.542737 -0.123451,2.31016 -0.05048,0.489478 -0.143781,0.972121 -0.199421,1.460901 -0.02611,0.302376 -0.07821,0.600863 -0.107746,0.902822 -0.02829,0.332287 -0.05602,0.664548 -0.115748,0.992309 -0.09754,0.556456 -0.173255,1.117335 -0.233518,1.679694 -0.07398,0.739648 -0.110951,1.482693 -0.175295,2.223148 -0.03788,0.406943 -0.08583,0.812771 -0.113349,1.220727 0.0043,0.194148 -0.03622,0.381823 -0.06352,0.57228 -0.04436,0.19421 -0.08449,0.388393 -0.107109,0.586933 -0.01866,0.179581 -0.0094,0.359887 -0.04176,0.537578 -0.03762,0.169214 -0.05234,0.342136 -0.06117,0.5153 -0.0073,0.187664 -0.007,0.375539 -0.0071,0.563327 5.6e-5,0.125127 -0.002,0.06315 0.0059,0.185928 0,0 1.182011,0.618998 1.182011,0.618998 v 0 c -0.02195,-0.106034 -0.01557,-0.04958 -0.01566,-0.169759 -3.4e-5,-0.185643 -5.46e-4,-0.37134 0.005,-0.556911 0.0067,-0.166352 0.01719,-0.333036 0.0534,-0.49562 0.03638,-0.18228 0.03502,-0.364646 0.04468,-0.550281 0.01839,-0.197392 0.05327,-0.391279 0.104955,-0.582067 0.02692,-0.19571 0.07617,-0.387284 0.06324,-0.587177 0.01462,-0.412358 0.04613,-0.82365 0.07954,-1.234707 0.05407,-0.740804 0.08753,-1.483304 0.168696,-2.221823 0.0638,-0.555177 0.15439,-1.10609 0.254555,-1.655061 0.06569,-0.329321 0.102655,-0.664631 0.132431,-0.999426 0.02473,-0.3033 0.07638,-0.602872 0.09707,-0.90645 0.0461,-0.493178 0.130174,-0.98049 0.178654,-1.473293 0.07139,-0.773288 0.08409,-1.549913 0.115932,-2.325809 0.02348,-0.753795 0.0098,-1.508249 0.01089,-2.262373 -0.0061,-0.650757 -0.01769,-1.3017651 -0.05458,-1.951491 C 55.764033,8.709127 55.753283,8.156516 55.716263,7.604909 55.676443,7.163844 55.595168,6.726768 55.59246,6.283054 55.58296,5.966567 55.56348,5.651021 55.5334,5.335947 c 0,0 -1.180164,-0.619868 -1.180164,-0.619868 z"
         id="path56"
         style="fill:#000000;stroke:#000000;stroke-width:0.25698799;stroke-miterlimit:4;stroke-dasharray:none;stroke-opacity:1" />
      <path
         inkscape:connector-curvature="0"
         d="m 14.977333,3.940514 c -0.0012,0.508498 -0.110107,1.010753 -0.250612,1.494137 -0.147591,0.443043 -0.30531,0.881613 -0.474415,1.315812 -0.108467,0.343107 -0.156947,0.703056 -0.210186,1.059323 -0.07255,0.432502 -0.174908,0.856887 -0.302112,1.274588 -0.123371,0.4432049 -0.270816,0.8774199 -0.425268,1.309185 -0.201263,0.563356 -0.329021,1.152402 -0.487326,1.730396 -0.172141,0.524956 -0.303675,1.059162 -0.376258,1.60942 -0.03544,0.429254 -0.06631,0.859121 -0.09509,1.289044 -0.02153,0.349582 -0.0341,0.699732 -0.03848,1.050015 0.0061,0.279358 -0.01016,0.556328 -0.03807,0.833874 -0.03316,0.309533 -0.04041,0.620866 -0.04714,0.931995 -0.0048,0.269698 -0.006,0.539464 -0.0075,0.809207 1.15e-4,0.221239 -0.0062,0.442616 0.0091,0.663363 0.03501,0.247901 0.04838,0.49839 0.07698,0.746948 0.03622,0.206849 0.05739,0.416174 0.100244,0.62162 0.05568,0.185952 0.112872,0.369327 0.142883,0.562284 0.03074,0.20115 0.07851,0.395976 0.153713,0.583322 0.07157,0.17903 0.116054,0.368906 0.163496,0.556424 0.04763,0.201417 0.04939,0.409231 0.09194,0.611532 0.06554,0.22271 0.108198,0.45081 0.132337,0.682437 0.0065,0.217625 0.04172,0.431823 0.06917,0.647107 0.02557,0.201139 0.03101,0.404085 0.03634,0.606687 0.02881,0.348626 -0.03789,0.687787 -0.10137,1.027483 -0.07646,0.393766 -0.120423,0.792961 -0.147962,1.193578 -0.01495,0.232589 -0.01762,0.46574 -0.01834,0.69878 -1.5e-5,0.188889 7.48e-4,0.377775 10e-4,0.566661 2.49e-4,0.188283 2.49e-4,0.376563 2.49e-4,0.564846 -0.0067,0.130942 0.01531,0.259876 0.03547,0.388321 0,0 1.18184,0.614166 1.18184,0.614166 v 0 c -0.01938,-0.121671 -0.05068,-0.243234 -0.04502,-0.36736 4e-6,-0.188331 1.9e-5,-0.376659 -1.71e-4,-0.564986 -2.49e-4,-0.189021 -7.47e-4,-0.378045 -0.0018,-0.567063 -0.0012,-0.232249 -0.0031,-0.464588 0.0048,-0.696741 0.01675,-0.396801 0.05188,-0.792922 0.128225,-1.182357 0.06819,-0.34459 0.155499,-0.687601 0.134097,-1.043339 -7.47e-4,-0.207425 -0.007,-0.415081 -0.03002,-0.621242 -0.02569,-0.21436 -0.06754,-0.426466 -0.07037,-0.643162 -0.02085,-0.238249 -0.05833,-0.474083 -0.124254,-0.703392 -0.06024,-0.19875 -0.05017,-0.404373 -0.0901,-0.607997 -0.04305,-0.194768 -0.09614,-0.387778 -0.155361,-0.577384 -0.0739,-0.178962 -0.138144,-0.354283 -0.167435,-0.549127 -0.02293,-0.197215 -0.06318,-0.390364 -0.138652,-0.573241 -0.04605,-0.203028 -0.07117,-0.408347 -0.108002,-0.613608 -0.04186,-0.244311 -0.03771,-0.495414 -0.08094,-0.740095 -0.02323,-0.216144 -0.0071,-0.434028 -0.01324,-0.651283 -0.0018,-0.270192 -0.0033,-0.540385 -4.98e-4,-0.81058 0.0042,-0.307226 0.01341,-0.614664 0.04338,-0.920454 0.028,-0.281614 0.05972,-0.561596 0.0441,-0.845564 0.002,-0.349947 0.004,-0.700037 0.02354,-1.049508 0.02431,-0.427933 0.06751,-0.854156 0.09074,-1.282135 0.058,-0.547256 0.179357,-1.080342 0.346104,-1.602026 0.158622,-0.572356 0.301612,-1.151742 0.500534,-1.709985 0.157715,-0.432852 0.306857,-0.869107 0.428404,-1.3152711 0.131149,-0.4227169 0.24067,-0.8511049 0.317845,-1.2889529 0.05739,-0.345613 0.100819,-0.695805 0.201346,-1.031284 0.157718,-0.443751 0.307767,-0.890302 0.458615,-1.336765 0.145926,-0.492302 0.250246,-0.997675 0.304381,-1.511166 0,0 -1.174785,-0.636487 -1.174785,-0.636487 z"
         id="path76"
         style="fill:#000000;stroke:#000000;stroke-width:0.25698799;stroke-miterlimit:4;stroke-dasharray:none;stroke-opacity:1" />
      <path
         inkscape:connector-curvature="0"
         d="m 13.001912,29.564477 c -0.319516,0.01024 -0.639231,0.0054 -0.958833,0.0048 -0.392479,7.94e-4 -0.784958,0.0033 -1.177431,0.0057 -0.552824,0.009 -1.1056737,0.0011 -1.6585006,-0.0013 -0.3058044,-0.0011 -0.6115905,-0.0074 -0.9173975,-0.0059 -0.3248009,0.0034 -0.6496238,0.0029 -0.9744321,0.0016 -0.268383,-0.0021 -0.5367782,-0.0016 -0.8051661,-0.0013 -0.243426,-0.0011 -0.486852,-7.94e-4 -0.7302768,-0.0013 -0.2013509,-5.29e-4 -0.4026994,-0.0019 -0.604049,-7.94e-4 -0.1993135,0.01019 -0.4021291,-0.02138 -0.5989487,0.01738 -0.1508985,0.01897 -0.2812464,0.100306 -0.4277127,0.137128 -0.023629,0.0041 -0.047271,0.0082 -0.070912,0.01225 0,0 1.0819938,0.800859 1.0819938,0.800859 v 0 c 0.025538,-0.0066 0.051064,-0.01328 0.07659,-0.0199 0.1371858,-0.0463 0.2687146,-0.111424 0.414722,-0.121833 0.1951957,-0.0122 0.3911245,-0.0019 0.5865601,-0.0052 0.2007317,0.0011 0.4014622,-2.65e-4 0.6021951,-7.94e-4 0.2422721,-5.29e-4 0.4845442,-2.65e-4 0.7268162,-0.0013 0.267349,5.29e-4 0.5347005,0.0011 0.8020446,-0.0013 0.3262265,-0.0013 0.6524652,-0.0019 0.9786844,0.0016 0.3007409,0.0013 0.6014585,-0.0048 0.9021943,-0.0059 0.55169,-0.0024 1.103401,-0.01032 1.655089,-0.0013 0.397363,0.0024 0.79473,0.0048 1.192099,0.0057 0.323778,-5.29e-4 0.647653,-0.0052 0.971346,0.0048 0,0 -1.06668,-0.824066 -1.06668,-0.824066 z"
         id="path78"
         style="fill:#000000;stroke:#000000;stroke-width:0.25698799;stroke-miterlimit:4;stroke-dasharray:none;stroke-opacity:1" />
      <path
         inkscape:connector-curvature="0"
         d="m 4.8785138,30.610716 c 0.1793295,-0.709538 0.3115435,-1.428204 0.4110815,-2.154851 0.1051633,-0.869275 0.1462974,-1.745014 0.1734546,-2.620325 0.012567,-0.473874 0.019763,-0.947896 0.017768,-1.421958 0.00103,-0.37851 -0.00661,-0.757243 0.00661,-1.135544 0.037653,-0.714555 0.041874,-1.430501 0.048825,-2.145958 0.00808,-0.631013 0.019836,-1.261962 0.031106,-1.89292 0.00392,-0.27727 0.00734,-0.554611 0.00649,-0.831921 -0.00184,-0.319934 -0.00538,-0.63986 -0.00514,-0.959797 0.00245,-0.288954 0.00306,-0.577911 0.00465,-0.866871 -0.010646,-0.458294 0.085768,-0.910308 0.1468823,-1.362046 0.093857,-0.729631 0.1478845,-1.464079 0.18291,-2.199285 0.022075,-0.369015 0.00587,-0.739937 -0.043832,-1.105654 C 5.8083585,11.633561 5.7076825,11.36876 5.6418386,11.09296 5.5948981,10.887691 5.5823431,10.676889 5.5762614,10.466562 5.5730798,10.16678 5.5675733,9.8670259 5.5625072,9.5672699 5.5538191,9.04612 5.5623004,8.52491 5.566423,8.003764 5.568383,7.679973 5.571933,7.356205 5.571933,7.032405 5.5714349,6.767515 5.573893,6.502624 5.573403,6.237736 5.559,5.972579 5.594511,5.710292 5.623513,5.447817 5.644316,5.265497 5.654215,5.082171 5.660566,4.898739 c 0,0 -1.1695263,-0.638313 -1.1695263,-0.638313 v 0 c -0.00392,0.180739 -0.010157,0.361514 -0.027741,0.541437 -0.026542,0.267458 -0.069591,0.533621 -0.05695,0.803574 -7.464e-4,0.265393 0.00196,0.53079 0.00147,0.796185 -8.44e-5,0.325721 0.00355,0.65141 0.00526,0.977123 0.00392,0.522201 0.011992,1.044486 0.0022,1.566672 -0.00587,0.296468 -0.015296,0.5930239 -0.012115,0.8895779 0.00453,0.2197801 0.014183,0.4402691 0.058578,0.6557781 0.060511,0.275922 0.1571968,0.538149 0.2238997,0.812145 0.062298,0.359335 0.088472,0.729015 0.079821,1.093937 -0.018416,0.733531 -0.055665,1.467648 -0.1607296,2.193753 -0.07402,0.462298 -0.038509,0.269103 -0.1225359,0.692725 -0.012739,0.06426 -0.067657,0.323344 -0.075697,0.408299 -0.00808,0.0851 0.00869,0.171498 -1.028e-4,0.25659 0.00147,0.290625 0.0022,0.581247 0.00465,0.871867 1.579e-4,0.318158 -0.00343,0.636306 -0.00477,0.954465 -4.98e-4,0.279702 0.00367,0.559414 0.00722,0.839078 0.00979,0.637649 0.016471,1.275424 0.00991,1.913158 -0.012286,0.706831 -0.026823,1.414277 -0.087224,2.118709 -0.026395,0.380251 -0.00673,0.76155 -0.010401,1.142598 0.00103,0.477459 0.011625,0.954841 0.00832,1.432319 -0.00832,0.874395 -0.034667,1.750274 -0.1431048,2.618115 -0.1019328,0.712619 -0.2314535,1.42394 -0.469264,2.10148 0,0 1.1571647,0.670705 1.1571647,0.670705 z"
         id="path80"
         style="fill:#000000;stroke:#000000;stroke-width:0.25698799;stroke-miterlimit:4;stroke-dasharray:none;stroke-opacity:1" />
      <path
         inkscape:connector-curvature="0"
         d="m 5.7750878,4.497175 c 0.4453178,-0.06709 0.8961458,-0.07848 1.3451028,-0.09219 0.4138336,2.91e-4 0.8255368,-0.05 1.2379828,-0.07984 0.258815,-0.0016 0.5120733,-0.05705 0.7689868,-0.08371 0.2787892,-0.05588 0.5601726,-0.09155 0.8430807,-0.111837 0.3039691,-0.01525 0.6084101,-0.01793 0.9126611,-0.02151 0.486547,0.02055 0.972355,0.05637 1.458561,0.084 0.139446,-0.0038 0.270112,0.01698 0.400028,0.06842 0.03063,0.01213 0.0624,0.02188 0.0912,0.03832 0.02473,0.01411 0.09253,0.06729 0.06809,0.05262 -0.355431,-0.213399 -0.707691,-0.43272 -1.061538,-0.64908 0.553139,0.386037 1.054133,0.711445 1.665221,0.902032 0.22312,0.03649 0.433637,0.09394 0.646013,0.174629 0.284446,0.102148 0.569844,0.193355 0.866178,0.247569 0.115784,0.0373 0.235043,0.05902 0.353892,0.08155 0,0 -1.044964,-0.839722 -1.044964,-0.839722 v 0 C 14.207789,4.242946 14.09077,4.214176 13.973012,4.188516 13.681872,4.125646 13.400355,4.028592 13.119733,3.925656 12.90567,3.849656 12.685256,3.816197 12.468591,3.750833 11.963444,3.56434 11.049816,3.045769 13.069065,4.206331 12.268179,3.714735 12.055523,3.387332 11.295658,3.376306 c -0.484687,-0.01983 -0.96875,-0.05256 -1.4534363,-0.0719 -0.312312,-0.0025 -0.6255467,-0.0139 -0.9370572,0.01628 -0.2820993,0.02837 -0.5617756,0.07405 -0.842245,0.116113 -0.2555098,0.02915 -0.5094399,0.07272 -0.7667511,0.08162 -0.4028156,0.03958 -0.8054439,0.08985 -1.2105282,0.09215 -0.4594354,0.01398 -0.9184523,0.03639 -1.3772428,0.06255 0,0 1.0666806,0.824066 1.0666806,0.824066 z"
         id="path82"
         style="fill:#000000;stroke:#000000;stroke-width:0.25698799;stroke-miterlimit:4;stroke-dasharray:none;stroke-opacity:1" />
      <path
         inkscape:connector-curvature="0"
         d="M 5.3417915,4.795774 C 5.5608014,4.655756 5.777895,4.515719 5.9901011,4.364477 6.1138277,4.286157 6.2253028,4.197883 6.3639974,4.152175 c 0,0 -1.0935845,-0.782022 -1.0935845,-0.782022 v 0 C 5.132401,3.435023 5.011719,3.52745 4.8854594,3.614505 4.6756932,3.770735 4.4545737,3.905824 4.2317778,4.040037 c 0,0 1.1100137,0.755737 1.1100137,0.755737 z"
         id="path84"
         style="fill:#000000;stroke:#000000;stroke-width:0.25698799;stroke-miterlimit:4;stroke-dasharray:none;stroke-opacity:1" />
      <path
         inkscape:connector-curvature="0"
         id="path358"
         d="m 53.223915,26.063519 c 0.0042,-0.272852 0.04162,-0.751229 0.08331,-1.063059 0.08176,-0.611463 0.298214,-2.764952 0.446414,-4.441219 0.05055,-0.571691 0.148417,-1.422136 0.217495,-1.889882 0.498521,-3.3756 0.533854,-3.85091 0.533854,-7.181548 0,-3.7267909 -0.157855,-6.1448269 -0.394295,-6.0398657 -0.0764,0.033914 -0.670474,0.2696665 -1.320171,0.5238941 -3.674097,1.4376791 -5.357438,2.228043 -10.060353,4.7235466 -3.735062,1.981933 -8.820188,4.962133 -10.342273,6.061217 l -0.528483,0.381612 0.543429,0.237041 c 0.386989,0.168801 0.776741,0.463208 1.353891,1.02268 0.899006,0.871472 1.674811,1.44807 2.637837,1.96051 1.445966,0.769421 3.819622,1.643906 7.063468,2.602269 1.08395,0.320242 2.192409,0.710261 2.532698,0.891144 0.332821,0.176916 1.53404,0.604181 2.669376,0.949478 1.372725,0.417497 2.466229,0.817168 3.26419,1.193043 0.659969,0.310878 1.220683,0.565232 1.246032,0.565232 0.02534,0 0.04946,-0.223242 0.05358,-0.496093 z"
         style="fill:#808080;stroke:#000000;stroke-width:0.09178142;stroke-miterlimit:4;stroke-dasharray:none;stroke-opacity:1" />
      <path
         inkscape:connector-curvature="0"
         id="path362"
         d="m 12.782488,28.189634 c 1.97e-4,-0.662639 0.06324,-1.60876 0.14008,-2.102493 0.207619,-1.333929 0.06873,-2.56159 -0.550539,-4.866442 -0.251257,-0.935143 -0.253771,-0.969925 -0.242373,-3.354538 0.0062,-1.32528 0.05593,-2.904789 0.110217,-3.51002 0.102349,-1.141117 0.495241,-2.774442 1.108419,-4.6078861 0.169026,-0.5054009 0.396368,-1.3625528 0.505203,-1.9047816 0.108834,-0.5422286 0.33062,-1.3766726 0.49285,-1.8543196 L 14.641314,5.1207039 14.133839,4.970751 C 13.854728,4.888277 13.406421,4.7316442 13.137602,4.6226782 12.363363,4.3088429 10.700529,4.20782 9.2719047,4.3878239 8.6365086,4.4678829 7.6116902,4.560677 6.9945318,4.5940333 l -1.122111,0.060648 -0.055372,0.4295677 c -0.030457,0.2362623 -0.054943,1.6461496 -0.054417,3.1330831 7.464e-4,2.2023679 0.027043,2.7910959 0.1416743,3.1759859 0.182735,0.613584 0.1825612,1.996598 -4.968e-4,3.697693 -0.097821,0.909189 -0.1697101,3.00326 -0.2347464,6.838393 -0.085034,5.014127 -0.14455,6.393519 -0.3105291,7.197079 l -0.055372,0.267949 h 3.7394646 3.7394566 l 2.49e-4,-1.204798 z"
         style="fill:#808080;stroke:#000000;stroke-width:0.09178142;stroke-miterlimit:4;stroke-dasharray:none;stroke-opacity:1" />
      <path
         inkscape:connector-curvature="0"
         d="m 35.850248,3.4884366 c -0.321153,0.143325 -0.633269,0.308478 -0.950043,0.462888 -0.841166,0.419043 -1.713337,0.7625471 -2.575732,1.1280571 -1.087411,0.468936 -2.18821,0.903468 -3.262644,1.4060719 -0.447007,0.2091031 -1.274754,0.6232991 -1.712066,0.8403852 -1.892812,0.9554768 -3.757651,1.9712718 -5.627881,2.9751772 -1.746162,0.914673 -3.447048,1.921203 -5.154453,2.913796 -0.968964,0.580118 -1.965755,1.10654 -2.936509,1.682842 -0.379603,0.219144 -0.742937,0.464564 -1.091169,0.735324 -0.144313,0.102059 -0.27159,0.226255 -0.408165,0.338665 0,0 1.114269,0.743892 1.114269,0.743892 v 0 c 0.13108,-0.115877 0.260728,-0.232897 0.397784,-0.340936 0.331167,-0.276434 0.686706,-0.515173 1.048445,-0.744052 0.942152,-0.596094 1.900737,-1.162931 2.854884,-1.736845 1.686577,-1.011018 3.373215,-2.024329 5.107847,-2.94032 C 24.531051,9.9534199 26.4047,8.9469216 28.304556,7.9982848 28.714177,7.7987646 29.60415,7.3625246 30.0244,7.1684657 c 1.079965,-0.498697 2.18174,-0.941791 3.28153,-1.387801 0.890952,-0.349946 1.800914,-0.653949 2.665673,-1.0735311 0.324711,-0.1547629 0.65017,-0.307365 0.980606,-0.447733 0,0 -1.101961,-0.770964 -1.101961,-0.770964 z"
         id="path50-1"
         style="fill:#000000;stroke:#000000;stroke-width:0.25698799;stroke-miterlimit:4;stroke-dasharray:none;stroke-opacity:1" />
      <path
         inkscape:connector-curvature="0"
         d="m 13.30811,16.822466 c 0.521463,0.471078 0.982346,1.013664 1.524031,1.460183 0.547065,0.450956 0.917522,0.686308 1.504884,1.09102 1.229895,0.810794 2.508839,1.533728 3.852774,2.10594 1.117248,0.475694 2.270154,0.853834 3.41714,1.237488 1.311211,0.447157 2.649772,0.800105 3.957835,1.257514 0.306772,0.114671 0.602957,0.250652 0.880505,0.430897 -0.343395,-0.209681 -1.369658,-0.845811 -1.030182,-0.629038 0.402429,0.256972 0.808836,0.507041 1.21907,0.749652 0.04783,0.02829 0.375168,0.140982 0.387234,0.145002 0.314033,0.104699 0.427737,0.133284 0.764163,0.230434 0.942346,0.252399 1.867085,0.570061 2.79704,0.868021 0.417743,0.105529 0.814261,0.272056 1.195897,0.478372 0.449168,0.209464 0.89055,0.439653 1.350208,0.622309 0.513521,0.192555 1.599376,0.894887 -0.42208,-0.336079 0.512359,0.364537 1.053222,0.662656 1.609918,0.930822 0.198303,0.124663 0.409294,0.223306 0.61175,0.339579 0.123563,0.07161 0.257802,0.109319 0.394711,0.137837 0,0 -1.04469,-0.848245 -1.04469,-0.848245 v 0 c -0.129183,-0.04032 -0.254248,-0.09114 -0.371915,-0.161783 -0.207413,-0.110886 -0.412602,-0.226382 -0.620023,-0.337073 -0.07655,-0.03722 -0.153166,-0.07299 -0.230257,-0.108755 -0.0272,-0.01262 -0.106301,-0.05585 -0.08074,-0.03983 0.613646,0.384623 1.428902,0.875456 0.95604,0.590535 -0.615839,-0.378161 -1.161702,-0.769348 -1.820559,-1.015364 -0.454956,-0.189017 -0.897928,-0.410527 -1.340246,-0.630337 -0.381638,-0.194641 -0.77678,-0.345068 -1.19061,-0.444178 -0.926926,-0.282997 -1.848932,-0.584221 -2.779861,-0.852479 -0.323155,-0.102352 -0.485873,-0.147982 -0.790405,-0.264033 -0.08145,-0.03104 -0.162244,-0.06422 -0.241767,-0.100479 -0.05251,-0.02394 -0.203026,-0.111203 -0.154014,-0.07998 0.063,0.04013 2.981971,1.846909 -0.188027,-0.122114 -0.276543,-0.15798 -0.565426,-0.283901 -0.866327,-0.380704 -1.270353,-0.396805 -2.559912,-0.722477 -3.822939,-1.146917 -1.150633,-0.385023 -2.302655,-0.770042 -3.420226,-1.256256 -1.113499,-0.484445 -0.928467,-0.454974 -1.993823,-0.99178 -0.03134,-0.0158 0.0564,0.04296 0.0846,0.06444 -0.582582,-0.399701 -0.918292,-0.609857 -1.457784,-1.053639 -0.517993,-0.426097 -0.953223,-0.944198 -1.436876,-1.410489 0,0 -1.204451,-0.530493 -1.204451,-0.530493 z"
         id="path54-7"
         style="fill:#000000;stroke:#000000;stroke-width:0.25698799;stroke-miterlimit:4;stroke-dasharray:none;stroke-opacity:1" />
      <path
         inkscape:connector-curvature="0"
         d="m 35.974424,4.2819586 c 0.04638,0.312169 0.06451,0.6279771 0.07742,0.9433831 0.0058,0.449218 0.08703,0.891383 0.133229,1.336881 0.04679,0.550613 0.05367,1.103435 0.08791,1.654955 0.04372,0.648848 0.05574,1.2992692 0.06505,1.9494853 0.0066,0.75415 0.0177,1.508454 7.97e-4,2.262491 -0.02046,0.771489 -0.043,1.542736 -0.123451,2.310159 -0.05048,0.489478 -0.143781,0.972121 -0.199423,1.460901 -0.02611,0.302376 -0.0782,0.600863 -0.107733,0.902822 -0.02829,0.332287 -0.05602,0.664548 -0.115748,0.992309 -0.09754,0.556456 -0.173255,1.117336 -0.233518,1.679694 -0.07397,0.739648 -0.110951,1.482693 -0.175295,2.223148 -0.0379,0.406943 -0.08584,0.812772 -0.11335,1.220728 0.0043,0.194147 -0.03622,0.381822 -0.06352,0.57228 -0.04435,0.19421 -0.08448,0.388393 -0.107109,0.586932 -0.01866,0.179581 -0.0094,0.359887 -0.04176,0.537578 -0.03762,0.169214 -0.05234,0.342136 -0.06117,0.515301 -0.0073,0.187664 -0.0071,0.375539 -0.0071,0.563326 5.6e-5,0.125127 -0.002,0.06315 0.0059,0.185928 0,0 1.182011,0.618999 1.182011,0.618999 v 0 c -0.02195,-0.106035 -0.01555,-0.04958 -0.01566,-0.169759 -3.4e-5,-0.185643 -5.48e-4,-0.37134 0.005,-0.556912 0.0067,-0.166352 0.01721,-0.333036 0.05341,-0.495619 0.03638,-0.182281 0.03501,-0.364647 0.04468,-0.550282 0.01839,-0.197392 0.05327,-0.391278 0.104955,-0.582067 0.02692,-0.19571 0.07617,-0.387283 0.06324,-0.587176 0.01462,-0.412359 0.04613,-0.82365 0.07954,-1.234708 0.05406,-0.740804 0.08753,-1.483304 0.168695,-2.221823 0.0638,-0.555177 0.15439,-1.10609 0.254557,-1.655061 0.06567,-0.329321 0.102655,-0.664631 0.13243,-0.999426 0.02473,-0.3033 0.07638,-0.602872 0.09707,-0.90645 0.0461,-0.493178 0.130173,-0.98049 0.178654,-1.473293 0.07139,-0.773288 0.08409,-1.549913 0.115932,-2.325808 0.02348,-0.753795 0.0098,-1.508249 0.01089,-2.262373 -0.0061,-0.650757 -0.0177,-1.3017651 -0.05458,-1.9514912 -0.03106,-0.5520042 -0.04181,-1.104615 -0.07884,-1.6562221 -0.03983,-0.4410651 -0.121096,-0.8781409 -0.123805,-1.321855 -0.0095,-0.316487 -0.02899,-0.632033 -0.05905,-0.947107 0,0 -1.180164,-0.6198681 -1.180164,-0.6198681 z"
         id="path56-6"
         style="fill:#000000;stroke:#000000;stroke-width:0.25698799;stroke-miterlimit:4;stroke-dasharray:none;stroke-opacity:1" />
      <path
         inkscape:connector-curvature="0"
         id="path358-9"
         d="m 34.845179,25.629398 c 0.0042,-0.272851 0.04162,-0.751228 0.08331,-1.063058 0.08175,-0.611464 0.298214,-2.764953 0.446414,-4.44122 0.05054,-0.571691 0.148416,-1.422136 0.217494,-1.889881 0.498521,-3.375601 0.533855,-3.850911 0.533855,-7.181548 0,-3.7267912 -0.157855,-6.1448272 -0.394296,-6.0398661 -0.07641,0.033914 -0.670474,0.2696666 -1.320171,0.5238942 -3.674096,1.4376791 -5.357437,2.2280429 -10.060353,4.7235469 -3.735061,1.981933 -8.820187,4.962132 -10.342273,6.061216 l -0.528483,0.381612 0.54343,0.237042 c 0.386987,0.1688 0.776741,0.463207 1.353891,1.022679 0.899006,0.871472 1.674811,1.44807 2.637837,1.96051 1.445966,0.769421 3.819622,1.643907 7.063468,2.602269 1.08395,0.320242 2.192409,0.710261 2.532697,0.891144 0.332821,0.176916 1.534041,0.604181 2.669377,0.949479 1.372725,0.417496 2.466229,0.817168 3.26419,1.193043 0.659968,0.310878 1.220682,0.565232 1.246031,0.565232 0.02534,0 0.04947,-0.223243 0.05358,-0.496094 z"
         style="fill:#808080;stroke:#000000;stroke-width:0.09178142;stroke-miterlimit:4;stroke-dasharray:none;stroke-opacity:1" />
    </g>
  </g>
</svg>
