<?xml version="1.0" encoding="UTF-8" standalone="no"?>
<!-- Created with Inkscape (http://www.inkscape.org/) -->

<svg
   xmlns:dc="http://purl.org/dc/elements/1.1/"
   xmlns:cc="http://creativecommons.org/ns#"
   xmlns:rdf="http://www.w3.org/1999/02/22-rdf-syntax-ns#"
   xmlns:svg="http://www.w3.org/2000/svg"
   xmlns="http://www.w3.org/2000/svg"
   xmlns:sodipodi="http://sodipodi.sourceforge.net/DTD/sodipodi-0.dtd"
   xmlns:inkscape="http://www.inkscape.org/namespaces/inkscape"
   width="44.064865mm"
   height="25.160881mm"
   viewBox="0 0 44.064865 25.160881"
   version="1.1"
   id="svg8"
   sodipodi:docname="Backwards5.svg"
   inkscape:version="0.92.2 (5c3e80d, 2017-08-06)">
  <defs
     id="defs2" />
  <sodipodi:namedview
     id="base"
     pagecolor="#ffffff"
     bordercolor="#666666"
     borderopacity="1.0"
     inkscape:pageopacity="0.0"
     inkscape:pageshadow="2"
     inkscape:zoom="1.979899"
     inkscape:cx="171.04858"
     inkscape:cy="-15.160076"
     inkscape:document-units="mm"
     inkscape:current-layer="layer1"
     showgrid="false"
     inkscape:window-width="1366"
     inkscape:window-height="746"
     inkscape:window-x="1352"
     inkscape:window-y="-8"
     inkscape:window-maximized="1"
     showguides="false"
     fit-margin-top="0"
     fit-margin-left="0"
     fit-margin-right="0"
     fit-margin-bottom="0" />
  <metadata
     id="metadata5">
    <rdf:RDF>
      <cc:Work
         rdf:about="">
        <dc:format>image/svg+xml</dc:format>
        <dc:type
           rdf:resource="http://purl.org/dc/dcmitype/StillImage" />
        <dc:title></dc:title>
      </cc:Work>
    </rdf:RDF>
  </metadata>
  <g
     inkscape:label="Layer 1"
     inkscape:groupmode="layer"
     id="layer1"
     transform="translate(-0.29007748,-0.80239254)">
    <path
       style="fill:#000000;stroke:#000000;stroke-width:0.25698799;stroke-miterlimit:4;stroke-dasharray:none;stroke-opacity:1"
       id="path50"
       d="m 42.60276,1.3834965 c -0.321153,0.143325 -0.633269,0.308478 -0.950042,0.462888 -0.841167,0.419043 -1.713339,0.762547 -2.575733,1.128057 -1.087411,0.468936 -2.18821,0.903468 -3.262644,1.406072 -0.447007,0.209103 -1.274755,0.623299 -1.712066,0.840385 -1.892812,0.955477 -3.757651,1.9712719 -5.627881,2.975177 -1.746161,0.914673 -3.447048,1.9212035 -5.154453,2.9137965 -0.968965,0.580119 -1.965755,1.106541 -2.93651,1.682843 -0.379602,0.219144 -0.742936,0.464564 -1.091168,0.735324 -0.144311,0.102059 -0.271589,0.226255 -0.408165,0.338665 0,0 1.114269,0.743892 1.114269,0.743892 v 0 c 0.13108,-0.115877 0.260728,-0.232897 0.397784,-0.340936 0.331165,-0.276434 0.686706,-0.515173 1.048445,-0.744052 0.942152,-0.596094 1.900737,-1.162931 2.854884,-1.736845 1.686577,-1.011019 3.373214,-2.0243305 5.107847,-2.9403215 1.876236,-0.999962 3.749886,-2.00646 5.649741,-2.955097 0.40962,-0.19952 1.299594,-0.63576 1.719844,-0.829819 1.079963,-0.498697 2.181741,-0.941791 3.281529,-1.387801 0.890953,-0.349946 1.800915,-0.653949 2.665675,-1.073531 0.324709,-0.154763 0.650168,-0.307365 0.980604,-0.447733 0,0 -1.10196,-0.770964 -1.10196,-0.770964 z"
       inkscape:connector-curvature="0" />
    <path
       style="fill:#000000;stroke:#000000;stroke-width:0.25698799;stroke-miterlimit:4;stroke-dasharray:none;stroke-opacity:1"
       id="path54"
       d="m 20.060621,14.717527 c 0.521464,0.471078 0.982347,1.013664 1.524032,1.460183 0.547065,0.450956 0.917522,0.686308 1.504884,1.09102 1.229895,0.810794 2.508839,1.533728 3.852774,2.10594 1.117247,0.475694 2.270154,0.853834 3.41714,1.237488 1.311211,0.447156 2.649772,0.800105 3.957834,1.257514 0.306772,0.114671 0.602957,0.250651 0.880504,0.430896 -0.343393,-0.20968 -1.369657,-0.84581 -1.03018,-0.629037 0.402429,0.256971 0.808836,0.50704 1.21907,0.749652 0.04783,0.02829 0.375168,0.140981 0.387234,0.145002 0.314032,0.104699 0.427737,0.133284 0.764163,0.230434 0.942344,0.252399 1.867084,0.570061 2.79704,0.868021 0.417743,0.105529 0.814259,0.272055 1.195897,0.478372 0.449168,0.209463 0.89055,0.439653 1.350208,0.622308 0.513521,0.192556 1.599376,0.894887 -0.422082,-0.336079 0.51236,0.364538 1.053224,0.662657 1.609919,0.930823 0.198304,0.124663 0.409295,0.223305 0.61175,0.339579 0.123562,0.07161 0.257803,0.109318 0.394711,0.137837 0,0 -1.044689,-0.848246 -1.044689,-0.848246 v 0 c -0.129183,-0.04032 -0.254248,-0.09114 -0.371916,-0.161782 -0.207412,-0.110887 -0.412601,-0.226383 -0.620022,-0.337074 -0.07655,-0.03722 -0.153166,-0.07299 -0.230256,-0.108754 -0.02719,-0.01262 -0.106302,-0.05585 -0.08074,-0.03983 0.613646,0.384623 1.428902,0.875456 0.95604,0.590535 -0.61584,-0.378161 -1.161702,-0.769348 -1.82056,-1.015363 -0.454955,-0.189018 -0.897928,-0.410527 -1.340246,-0.630338 -0.381637,-0.19464 -0.77678,-0.345067 -1.19061,-0.444177 -0.926925,-0.282998 -1.848932,-0.584221 -2.77986,-0.85248 -0.323155,-0.102351 -0.485874,-0.147981 -0.790406,-0.264033 -0.08145,-0.03104 -0.162243,-0.06422 -0.241767,-0.100478 -0.05251,-0.02394 -0.203026,-0.111204 -0.154014,-0.07998 0.063,0.04013 2.981972,1.84691 -0.188027,-0.122113 -0.276543,-0.15798 -0.565425,-0.283901 -0.866326,-0.380704 -1.270353,-0.396806 -2.559911,-0.722477 -3.822941,-1.146918 -1.150631,-0.385022 -2.302654,-0.770041 -3.420224,-1.256255 -1.1135,-0.484445 -0.928467,-0.454975 -1.993823,-0.99178 -0.03135,-0.0158 0.0564,0.04296 0.0846,0.06444 -0.582582,-0.399701 -0.918291,-0.609857 -1.457783,-1.05364 -0.517992,-0.426096 -0.953224,-0.944197 -1.436875,-1.410489 0,0 -1.204452,-0.530492 -1.204452,-0.530492 z"
       inkscape:connector-curvature="0" />
    <path
       style="fill:#000000;stroke:#000000;stroke-width:0.25698799;stroke-miterlimit:4;stroke-dasharray:none;stroke-opacity:1"
       id="path56"
       d="m 42.726935,2.1770185 c 0.04637,0.312169 0.06451,0.627977 0.07742,0.943383 0.0058,0.449218 0.08703,0.891383 0.13323,1.336881 0.04679,0.550613 0.05367,1.103435 0.08791,1.654955 0.04372,0.648848 0.05574,1.2992689 0.06505,1.949485 0.0065,0.75415 0.01771,1.508454 7.97e-4,2.2624915 -0.02045,0.771489 -0.04301,1.542737 -0.123451,2.31016 -0.05048,0.489478 -0.143781,0.972121 -0.199421,1.460901 -0.02611,0.302376 -0.07821,0.600863 -0.107746,0.902822 -0.02829,0.332287 -0.05602,0.664548 -0.115748,0.992309 -0.09754,0.556456 -0.173255,1.117335 -0.233518,1.679694 -0.07398,0.739648 -0.110951,1.482693 -0.175295,2.223148 -0.03788,0.406943 -0.08583,0.812771 -0.113349,1.220727 0.0043,0.194148 -0.03622,0.381823 -0.06352,0.57228 -0.04436,0.19421 -0.08449,0.388393 -0.107109,0.586933 -0.01866,0.179581 -0.0094,0.359887 -0.04176,0.537578 -0.03762,0.169214 -0.05234,0.342136 -0.06117,0.5153 -0.0073,0.187664 -0.007,0.375539 -0.0071,0.563327 5.6e-5,0.125127 -0.002,0.06315 0.0059,0.185928 0,0 1.182011,0.618998 1.182011,0.618998 v 0 c -0.02195,-0.106034 -0.01557,-0.04958 -0.01566,-0.169759 -3.4e-5,-0.185643 -5.46e-4,-0.37134 0.005,-0.556911 0.0067,-0.166352 0.01719,-0.333036 0.0534,-0.49562 0.03638,-0.18228 0.03502,-0.364646 0.04468,-0.550281 0.01839,-0.197392 0.05327,-0.391279 0.104955,-0.582067 0.02692,-0.19571 0.07617,-0.387284 0.06324,-0.587177 0.01462,-0.412358 0.04613,-0.82365 0.07954,-1.234707 0.05407,-0.740804 0.08753,-1.483304 0.168696,-2.221823 0.0638,-0.555177 0.15439,-1.10609 0.254555,-1.655061 0.06569,-0.329321 0.102655,-0.664631 0.132431,-0.999426 0.02473,-0.3033 0.07638,-0.602872 0.09707,-0.90645 0.0461,-0.493178 0.130174,-0.98049 0.178654,-1.473293 0.07139,-0.773288 0.08409,-1.549913 0.115932,-2.325809 0.02348,-0.753795 0.0098,-1.5082495 0.01089,-2.2623735 -0.0061,-0.650757 -0.01769,-1.3017651 -0.05458,-1.951491 -0.03106,-0.552004 -0.04181,-1.104615 -0.07883,-1.656222 -0.03982,-0.441065 -0.121095,-0.878141 -0.123803,-1.321855 -0.0095,-0.316487 -0.02898,-0.632033 -0.05906,-0.947107 0,0 -1.180164,-0.619868 -1.180164,-0.619868 z"
       inkscape:connector-curvature="0" />
    <path
       style="fill:#808080;stroke:#000000;stroke-width:0.09178142;stroke-miterlimit:4;stroke-dasharray:none;stroke-opacity:1"
       d="m 41.597691,23.524459 c 0.0042,-0.272852 0.04162,-0.751229 0.08331,-1.063059 0.08176,-0.611463 0.298214,-2.764952 0.446414,-4.441219 0.05055,-0.571691 0.148417,-1.422136 0.217495,-1.889882 0.498521,-3.3756 0.533854,-3.85091 0.533854,-7.1815485 0,-3.7267909 -0.157855,-6.1448269 -0.394295,-6.0398657 -0.0764,0.033914 -0.670474,0.2696665 -1.320171,0.5238941 C 37.490201,4.870458 35.80686,5.6608219 31.103945,8.1563255 27.368883,10.138259 22.283757,13.118459 20.761672,14.217543 l -0.528483,0.381612 0.543429,0.237041 c 0.386989,0.168801 0.776741,0.463208 1.353891,1.02268 0.899006,0.871472 1.674811,1.44807 2.637837,1.96051 1.445966,0.769421 3.819622,1.643906 7.063468,2.602269 1.08395,0.320242 2.192409,0.710261 2.532698,0.891144 0.332821,0.176916 1.53404,0.604181 2.669376,0.949478 1.372725,0.417497 2.466229,0.817168 3.26419,1.193043 0.659969,0.310878 1.220683,0.565232 1.246032,0.565232 0.02534,0 0.04946,-0.223242 0.05358,-0.496093 z"
       id="path358"
       inkscape:connector-curvature="0" />
    <path
       style="fill:#000000;stroke:#000000;stroke-width:0.25698799;stroke-miterlimit:4;stroke-dasharray:none;stroke-opacity:1"
       id="path50-1"
       d="M 24.224024,0.94937611 C 23.902871,1.0927011 23.590755,1.2578541 23.273981,1.4122641 c -0.841166,0.419043 -1.713337,0.7625471 -2.575732,1.1280571 -1.087411,0.468936 -2.18821,0.903468 -3.262644,1.4060719 -0.447007,0.2091031 -1.274754,0.6232991 -1.712066,0.8403852 -1.892812,0.9554768 -3.757651,1.9712718 -5.627881,2.9751772 -1.7461624,0.914673 -3.4470484,1.921203 -5.1544534,2.9137965 -0.968964,0.580118 -1.965755,1.10654 -2.936509,1.682842 -0.379603,0.219144 -0.742937,0.464564 -1.09116897,0.735324 -0.144313,0.102059 -0.27159,0.226255 -0.408165,0.338665 0,0 1.11426897,0.743892 1.11426897,0.743892 v 0 c 0.13108,-0.115877 0.260728,-0.232897 0.397784,-0.340936 0.331167,-0.276434 0.686706,-0.515173 1.048445,-0.744052 0.942152,-0.596094 1.900737,-1.162931 2.854884,-1.736845 1.686577,-1.011018 3.373215,-2.0243295 5.1078474,-2.9403205 1.876236,-0.9999621 3.749885,-2.0064604 5.649741,-2.9550972 0.409621,-0.1995202 1.299594,-0.6357602 1.719844,-0.8298191 1.079965,-0.498697 2.18174,-0.941791 3.28153,-1.387801 0.890952,-0.349946 1.800914,-0.653949 2.665673,-1.0735311 0.324711,-0.1547629 0.65017,-0.307365 0.980606,-0.447733 0,0 -1.101961,-0.77096399 -1.101961,-0.77096399 z"
       inkscape:connector-curvature="0" />
    <path
       style="fill:#000000;stroke:#000000;stroke-width:0.25698799;stroke-miterlimit:4;stroke-dasharray:none;stroke-opacity:1"
       id="path54-7"
       d="m 1.6818856,14.283406 c 0.521463,0.471078 0.982346,1.013664 1.524031,1.460183 0.547065,0.450956 0.917522,0.686308 1.504884,1.09102 1.229895,0.810794 2.508839,1.533728 3.852774,2.10594 1.117248,0.475694 2.2701544,0.853834 3.4171404,1.237488 1.311211,0.447157 2.649772,0.800105 3.957835,1.257514 0.306772,0.114671 0.602957,0.250652 0.880505,0.430897 -0.343395,-0.209681 -1.369658,-0.845811 -1.030182,-0.629038 0.402429,0.256972 0.808836,0.507041 1.21907,0.749652 0.04783,0.02829 0.375168,0.140982 0.387234,0.145002 0.314033,0.104699 0.427737,0.133284 0.764163,0.230434 0.942346,0.252399 1.867085,0.570061 2.79704,0.868021 0.417743,0.105529 0.814261,0.272056 1.195897,0.478372 0.449168,0.209464 0.89055,0.439653 1.350208,0.622309 0.513521,0.192555 1.599376,0.894887 -0.42208,-0.336079 0.512359,0.364537 1.053222,0.662656 1.609918,0.930822 0.198303,0.124663 0.409294,0.223306 0.61175,0.339579 0.123563,0.07161 0.257802,0.109319 0.394711,0.137837 0,0 -1.04469,-0.848245 -1.04469,-0.848245 v 0 c -0.129183,-0.04032 -0.254248,-0.09114 -0.371915,-0.161783 -0.207413,-0.110886 -0.412602,-0.226382 -0.620023,-0.337073 -0.07655,-0.03722 -0.153166,-0.07299 -0.230257,-0.108755 -0.0272,-0.01262 -0.106301,-0.05585 -0.08074,-0.03983 0.613646,0.384623 1.428902,0.875456 0.95604,0.590535 -0.615839,-0.378161 -1.161702,-0.769348 -1.820559,-1.015364 -0.454956,-0.189017 -0.897928,-0.410527 -1.340246,-0.630337 -0.381638,-0.194641 -0.77678,-0.345068 -1.19061,-0.444178 -0.926926,-0.282997 -1.848932,-0.584221 -2.779861,-0.852479 -0.323155,-0.102352 -0.485873,-0.147982 -0.790405,-0.264033 -0.08145,-0.03104 -0.162244,-0.06422 -0.241767,-0.100479 -0.05251,-0.02394 -0.203026,-0.111203 -0.154014,-0.07998 0.063,0.04013 2.981971,1.846909 -0.188027,-0.122114 C 15.523167,20.831264 15.234284,20.705343 14.933383,20.60854 13.66303,20.211735 12.373471,19.886063 11.110444,19.461623 9.9598106,19.0766 8.8077886,18.691581 7.6902176,18.205367 c -1.113499,-0.484445 -0.928467,-0.454974 -1.993823,-0.99178 -0.03134,-0.0158 0.0564,0.04296 0.0846,0.06444 -0.582582,-0.399701 -0.918292,-0.609857 -1.457784,-1.053639 -0.517993,-0.426097 -0.953223,-0.944198 -1.436876,-1.410489 0,0 -1.204451,-0.530493 -1.204451,-0.530493 z"
       inkscape:connector-curvature="0" />
    <path
       style="fill:#000000;stroke:#000000;stroke-width:0.25698799;stroke-miterlimit:4;stroke-dasharray:none;stroke-opacity:1"
       id="path56-6"
       d="m 24.3482,1.7428981 c 0.04638,0.312169 0.06451,0.6279771 0.07742,0.9433831 0.0058,0.449218 0.08703,0.891383 0.133229,1.336881 0.04679,0.550613 0.05367,1.103435 0.08791,1.654955 0.04372,0.648848 0.05574,1.2992692 0.06505,1.9494853 0.0066,0.75415 0.0177,1.508454 7.97e-4,2.262491 -0.02046,0.7714895 -0.043,1.5427365 -0.123451,2.3101595 -0.05048,0.489478 -0.143781,0.972121 -0.199423,1.460901 -0.02611,0.302376 -0.0782,0.600863 -0.107733,0.902822 -0.02829,0.332287 -0.05602,0.664548 -0.115748,0.992309 -0.09754,0.556456 -0.173255,1.117336 -0.233518,1.679694 -0.07397,0.739648 -0.110951,1.482693 -0.175295,2.223148 -0.0379,0.406943 -0.08584,0.812772 -0.11335,1.220728 0.0043,0.194147 -0.03622,0.381822 -0.06352,0.57228 -0.04435,0.19421 -0.08448,0.388393 -0.107109,0.586932 -0.01866,0.179581 -0.0094,0.359887 -0.04176,0.537578 -0.03762,0.169214 -0.05234,0.342136 -0.06117,0.515301 -0.0073,0.187664 -0.0071,0.375539 -0.0071,0.563326 5.6e-5,0.125127 -0.002,0.06315 0.0059,0.185928 0,0 1.182011,0.618999 1.182011,0.618999 v 0 c -0.02195,-0.106035 -0.01555,-0.04958 -0.01566,-0.169759 -3.4e-5,-0.185643 -5.48e-4,-0.37134 0.005,-0.556912 0.0067,-0.166352 0.01721,-0.333036 0.05341,-0.495619 0.03638,-0.182281 0.03501,-0.364647 0.04468,-0.550282 0.01839,-0.197392 0.05327,-0.391278 0.104955,-0.582067 0.02692,-0.19571 0.07617,-0.387283 0.06324,-0.587176 0.01462,-0.412359 0.04613,-0.82365 0.07954,-1.234708 0.05406,-0.740804 0.08753,-1.483304 0.168695,-2.221823 0.0638,-0.555177 0.15439,-1.10609 0.254557,-1.655061 0.06567,-0.329321 0.102655,-0.664631 0.13243,-0.999426 0.02473,-0.3033 0.07638,-0.602872 0.09707,-0.90645 0.0461,-0.493178 0.130173,-0.98049 0.178654,-1.473293 0.07139,-0.773288 0.08409,-1.549913 0.115932,-2.325808 0.02348,-0.7537955 0.0098,-1.5082495 0.01089,-2.2623735 -0.0061,-0.650757 -0.0177,-1.3017651 -0.05458,-1.9514912 -0.03106,-0.5520042 -0.04181,-1.104615 -0.07884,-1.6562221 -0.03983,-0.4410651 -0.121096,-0.8781409 -0.123805,-1.321855 -0.0095,-0.316487 -0.02899,-0.632033 -0.05905,-0.947107 0,0 -1.180164,-0.6198681 -1.180164,-0.6198681 z"
       inkscape:connector-curvature="0" />
    <path
       style="fill:#808080;stroke:#000000;stroke-width:0.09178142;stroke-miterlimit:4;stroke-dasharray:none;stroke-opacity:1"
       d="m 23.218955,23.090338 c 0.0042,-0.272851 0.04162,-0.751228 0.08331,-1.063058 0.08175,-0.611464 0.298214,-2.764953 0.446414,-4.44122 0.05054,-0.571691 0.148416,-1.422136 0.217494,-1.889881 0.498521,-3.375601 0.533855,-3.850911 0.533855,-7.1815485 0,-3.7267912 -0.157855,-6.1448272 -0.394296,-6.0398661 -0.07641,0.033914 -0.670474,0.2696666 -1.320171,0.5238942 C 19.111465,4.4363377 17.428124,5.2267015 12.725208,7.7222055 8.9901466,9.7041385 3.9050206,12.684338 2.3829346,13.783422 l -0.528483,0.381612 0.54343,0.237042 c 0.386987,0.1688 0.776741,0.463207 1.353891,1.022679 0.899006,0.871472 1.674811,1.44807 2.637837,1.96051 1.445966,0.769421 3.8196224,1.643907 7.0634684,2.602269 1.08395,0.320242 2.192409,0.710261 2.532697,0.891144 0.332821,0.176916 1.534041,0.604181 2.669377,0.949479 1.372725,0.417496 2.466229,0.817168 3.26419,1.193043 0.659968,0.310878 1.220682,0.565232 1.246031,0.565232 0.02534,0 0.04947,-0.223243 0.05358,-0.496094 z"
       id="path358-9"
       inkscape:connector-curvature="0" />
  </g>
</svg>
