<?xml version="1.0" encoding="UTF-8" standalone="no"?>
<!-- Created with Inkscape (http://www.inkscape.org/) -->

<svg
   xmlns:dc="http://purl.org/dc/elements/1.1/"
   xmlns:cc="http://creativecommons.org/ns#"
   xmlns:rdf="http://www.w3.org/1999/02/22-rdf-syntax-ns#"
   xmlns:svg="http://www.w3.org/2000/svg"
   xmlns="http://www.w3.org/2000/svg"
   xmlns:sodipodi="http://sodipodi.sourceforge.net/DTD/sodipodi-0.dtd"
   xmlns:inkscape="http://www.inkscape.org/namespaces/inkscape"
   width="23.055162mm"
   height="8.5207472mm"
   viewBox="0 0 23.055162 8.5207472"
   version="1.1"
   id="svg49"
   inkscape:version="0.92.2 (5c3e80d, 2017-08-06)"
   sodipodi:docname="flecha.svg">
  <defs
     id="defs43" />
  <sodipodi:namedview
     id="base"
     pagecolor="#ffffff"
     bordercolor="#666666"
     borderopacity="1.0"
     inkscape:pageopacity="0.0"
     inkscape:pageshadow="2"
     inkscape:zoom="2.8284271"
     inkscape:cx="97.469734"
     inkscape:cy="23.593123"
     inkscape:document-units="mm"
     inkscape:current-layer="layer1"
     showgrid="false"
     fit-margin-top="0"
     fit-margin-left="0"
     fit-margin-right="0"
     fit-margin-bottom="0"
     inkscape:window-width="1366"
     inkscape:window-height="746"
     inkscape:window-x="1352"
     inkscape:window-y="-8"
     inkscape:window-maximized="1" />
  <metadata
     id="metadata46">
    <rdf:RDF>
      <cc:Work
         rdf:about="">
        <dc:format>image/svg+xml</dc:format>
        <dc:type
           rdf:resource="http://purl.org/dc/dcmitype/StillImage" />
        <dc:title></dc:title>
      </cc:Work>
    </rdf:RDF>
  </metadata>
  <g
     inkscape:label="Layer 1"
     inkscape:groupmode="layer"
     id="layer1"
     transform="translate(-4.7552989,-4.3976057)">
    <path
       style="fill:#000000;stroke:#000000;stroke-width:0.26499999;stroke-miterlimit:4;stroke-dasharray:none;stroke-opacity:1"
       id="path244"
       d="m 6.2198067,6.6554317 c 1.2758996,0.3431456 2.6020167,0.4593762 3.9096023,0.623891 1.823738,0.2252884 3.65026,0.4265509 5.477151,0.624119 0.809683,0.1052438 1.627616,0.1273011 2.437293,0.2293376 0.183206,0.012224 0.461527,0.1886405 0.629156,0.084898 -2.352702,1.2798041 -1.168471,0.9564492 -1.074861,0.4832715 0.03465,-0.1751248 0.03224,-0.359641 0.03783,-0.5370621 0.01845,-0.4055486 -0.04405,-0.809429 -0.131132,-1.204336 C 17.439693,6.709207 17.324189,6.4783141 17.212031,6.2469011 17.140149,6.0681263 17.0327,5.9070025 16.935074,5.7415543 16.860491,5.5676458 16.73092,5.4189735 16.70836,5.2277374 c 0.422668,-0.2314492 0.827552,-0.4988488 1.268003,-0.6943478 0.04772,-0.02118 0.09399,0.045475 0.140516,0.069162 0.397748,0.2025152 0.791541,0.4093035 1.194296,0.6021445 0.499397,0.2365815 1.006969,0.4487347 1.468308,0.7557664 0.576971,0.3965716 1.155921,0.7903732 1.738737,1.1783629 0.490255,0.3028069 0.961918,0.6339583 1.443719,0.9492403 0.339543,0.2452444 0.707842,0.4474803 1.045491,0.6949239 0.311479,0.2090656 0.626147,0.4148267 0.949573,0.6053299 0.366434,0.2302447 0.769541,0.3838728 1.165982,0.5518981 0.09226,0.07264 0.44141,0.1092314 0.504277,0.2024234 0.0217,0.03218 0.07265,0.08737 0.04054,0.109171 -0.401106,0.272263 -0.842124,0.480496 -1.263185,0.720744 -0.477867,-0.0019 -0.955484,-0.01207 -1.433159,0.0036 -0.740118,0.02892 -1.478326,0.09397 -2.215275,0.166452 -0.588453,0.07779 -1.177953,0.144536 -1.770714,0.17735 -0.475579,0.02074 -0.94938,0.0682 -1.424779,0.09375 -0.347167,0.03019 -0.690841,0.09637 -1.028383,0.182122 -0.326442,0.105763 -0.649844,0.2169 -0.962937,0.357892 -0.283747,0.135187 -0.547779,0.307238 -0.839666,0.42605 -0.188385,0.104382 -0.386682,0.190827 -0.585877,0.27217 -0.209054,0.05194 -0.363979,0.178473 -0.584844,0.118958 -0.279329,-0.288317 -0.327301,-0.694881 -0.401286,-1.071799 -0.07445,-0.404633 -0.112923,-0.814308 -0.137795,-1.224579 -0.01921,-0.294054 0.08501,-0.5318505 0.272714,-0.7498751 0.08606,-0.08698 0.180654,-0.1646634 0.272384,-0.2454417 0,0 1.278362,-0.5211022 1.278362,-0.5211022 v 0 c -0.09046,0.08196 -0.179376,0.1663086 -0.280349,0.2355929 -0.199498,0.194327 -0.322951,0.3602474 -0.324154,0.6525488 0.01333,0.4060473 0.04219,0.8122983 0.117945,1.2121093 0.05884,0.295668 0.07931,0.709812 0.334541,0.909582 0.188114,-0.01745 0.358358,-0.117223 0.536801,-0.172851 0.195385,-0.08754 0.389878,-0.176468 0.582123,-0.270706 0.28124,-0.13245 0.546542,-0.296294 0.832162,-0.419685 0.319563,-0.134328 0.648271,-0.248486 0.982117,-0.341713 0.340501,-0.07413 0.683525,-0.138653 1.032499,-0.154942 0.473387,-0.02595 0.945493,-0.07074 1.419206,-0.09025 0.586262,-0.03542 1.169651,-0.09887 1.752577,-0.170164 0.739365,-0.06806 1.479976,-0.128111 2.2218,-0.160797 0.48692,-0.01513 0.977555,0.0033 1.461787,-0.05191 -0.373009,0.230953 -0.762735,0.436869 -1.119028,0.692857 -0.02463,0.0177 0.04613,0.04074 0.06208,0.06654 0.0073,0.01177 -0.02241,-0.0165 -0.03487,-0.02253 -0.03324,-0.01609 -0.06753,-0.02994 -0.101826,-0.04364 -0.464665,-0.185596 0.174107,0.0779 -0.329984,-0.131664 -0.400244,-0.17122 -0.80341,-0.337126 -1.174791,-0.567252 C 24.486906,9.9366151 24.163386,9.7353989 23.85448,9.5149285 23.516139,9.2729798 23.155815,9.0632721 22.818368,8.8197125 22.347235,8.4949651 21.877113,8.1688185 21.39774,7.8560172 20.814212,7.4638971 20.231046,7.0713813 19.638435,6.6930269 19.179447,6.4026843 18.687722,6.1771228 18.200988,5.9378132 c -0.325,-0.1559523 -0.647823,-0.3213518 -0.977468,-0.467265 -0.08094,-0.035826 -0.162669,-0.070348 -0.24654,-0.098637 -0.04168,-0.01406 -0.164446,-0.00204 -0.128959,-0.028018 0.356757,-0.2613126 0.750456,-0.4680331 1.125683,-0.7020494 -0.01437,-7.408e-4 -0.0392,-0.016055 -0.04312,-0.0022 -0.02161,0.07625 0.18756,0.3150394 0.203275,0.4088006 0.09847,0.1694439 0.21124,0.3326802 0.280034,0.517113 0.113923,0.242941 0.231576,0.484795 0.297005,0.7467442 0.08613,0.4052194 0.150363,0.8202332 0.140281,1.2354213 -0.0018,0.2253321 0.0053,0.4544047 -0.02435,0.6784787 -0.0045,0.034337 0.0099,0.083064 -0.01895,0.1021659 C 18.40717,8.5932919 17.980046,8.8159144 17.566129,9.0596862 17.347329,9.0481689 17.144951,8.9522466 16.929332,8.9189519 16.15035,8.7970462 15.361603,8.7461941 14.581594,8.6302902 12.767936,8.4078605 10.953869,8.1888305 9.1384365,7.9812982 7.7853457,7.8252266 6.4232683,7.7083456 5.0869728,7.4368159 c 0,0 1.1328339,-0.7813842 1.1328339,-0.7813842 z"
       inkscape:connector-curvature="0" />
  </g>
</svg>
