<?xml version="1.0" encoding="UTF-8" standalone="no"?>
<!-- Created with Inkscape (http://www.inkscape.org/) -->

<svg
   xmlns:dc="http://purl.org/dc/elements/1.1/"
   xmlns:cc="http://creativecommons.org/ns#"
   xmlns:rdf="http://www.w3.org/1999/02/22-rdf-syntax-ns#"
   xmlns:svg="http://www.w3.org/2000/svg"
   xmlns="http://www.w3.org/2000/svg"
   xmlns:sodipodi="http://sodipodi.sourceforge.net/DTD/sodipodi-0.dtd"
   xmlns:inkscape="http://www.inkscape.org/namespaces/inkscape"
   width="51.316082mm"
   height="25.178274mm"
   viewBox="0 0 51.316082 25.178274"
   version="1.1"
   id="svg8"
   sodipodi:docname="Forward5.svg"
   inkscape:version="0.92.2 (5c3e80d, 2017-08-06)">
  <defs
     id="defs2" />
  <sodipodi:namedview
     id="base"
     pagecolor="#ffffff"
     bordercolor="#666666"
     borderopacity="1.0"
     inkscape:pageopacity="0.0"
     inkscape:pageshadow="2"
     inkscape:zoom="1.979899"
     inkscape:cx="170.67423"
     inkscape:cy="-18.150059"
     inkscape:document-units="mm"
     inkscape:current-layer="layer1"
     showgrid="false"
     inkscape:window-width="1366"
     inkscape:window-height="746"
     inkscape:window-x="1352"
     inkscape:window-y="-8"
     inkscape:window-maximized="1"
     showguides="false"
     fit-margin-top="0"
     fit-margin-left="0"
     fit-margin-right="0"
     fit-margin-bottom="0" />
  <metadata
     id="metadata5">
    <rdf:RDF>
      <cc:Work
         rdf:about="">
        <dc:format>image/svg+xml</dc:format>
        <dc:type
           rdf:resource="http://purl.org/dc/dcmitype/StillImage" />
        <dc:title></dc:title>
      </cc:Work>
    </rdf:RDF>
  </metadata>
  <g
     inkscape:label="Layer 1"
     inkscape:groupmode="layer"
     id="layer1"
     transform="translate(-0.38912626,0.00610016)">
    <path
       style="fill:#000000;stroke:#000000;stroke-width:0.27733889;stroke-miterlimit:4;stroke-dasharray:none;stroke-opacity:1"
       id="path50"
       d="m 2.4188704,0.58168792 c 0.3740309,0.143325 0.7375376,0.308478 1.1064674,0.46288798 0.9796664,0.419043 1.9954428,0.762547 2.9998309,1.128057 1.2664542,0.468936 2.5485023,0.903468 3.7998423,1.406072 0.520608,0.209103 1.484646,0.623299 1.993961,0.840385 2.204466,0.955477 4.376353,1.9712719 6.554519,2.975177 2.033668,0.914673 4.014608,1.9212035 6.003139,2.9137961 1.128507,0.580119 2.28942,1.106541 3.420011,1.682843 0.442104,0.219144 0.865261,0.464564 1.27083,0.735324 0.168072,0.102059 0.316306,0.226255 0.47537,0.338665 0,0 -1.297735,0.743892 -1.297735,0.743892 v 0 C 28.592444,13.69291 28.441449,13.57589 28.281827,13.467851 27.896135,13.191417 27.482054,12.952678 27.060753,12.723799 25.963475,12.127705 24.847058,11.560868 23.73581,10.986954 21.771535,9.9759354 19.807191,8.9626239 17.786949,8.0466329 15.601788,7.0466709 13.419639,6.0401729 11.206971,5.0915359 10.729906,4.8920159 9.693397,4.4557759 9.2039517,4.2617169 7.9461717,3.7630199 6.6629839,3.3199259 5.3821145,2.8739159 4.3444654,2.5239699 3.2846765,2.2199669 2.2775331,1.8003849 1.8993599,1.6456219 1.5203138,1.4930199 1.1354713,1.3526519 c 0,0 1.2833991,-0.77096398 1.2833991,-0.77096398 z"
       inkscape:connector-curvature="0" />
    <path
       style="fill:#000000;stroke:#000000;stroke-width:0.27733889;stroke-miterlimit:4;stroke-dasharray:none;stroke-opacity:1"
       id="path54"
       d="m 28.672602,13.915718 c -0.607323,0.471078 -1.144092,1.013664 -1.774966,1.460183 -0.63714,0.450956 -1.068593,0.686308 -1.752665,1.09102 -1.432399,0.810794 -2.921923,1.533728 -4.487138,2.10594 -1.301204,0.475694 -2.643938,0.853834 -3.979777,1.237488 -1.527103,0.447156 -3.08606,0.800105 -4.609496,1.257514 -0.357282,0.114671 -0.702235,0.250651 -1.025481,0.430896 0.399934,-0.20968 1.595174,-0.84581 1.199801,-0.629037 -0.468689,0.256971 -0.942012,0.50704 -1.419791,0.749652 -0.05571,0.02829 -0.43694,0.140981 -0.450992,0.145002 C 10.006358,21.869075 9.8739315,21.89766 9.4821127,21.99481 8.3846105,22.247209 7.3076104,22.564871 6.2245362,22.862831 5.7380107,22.96836 5.2762079,23.134886 4.831733,23.341203 4.3086092,23.550666 3.7945527,23.780856 3.2592117,23.963511 2.661139,24.156067 1.3964963,24.858398 3.7507896,23.627432 3.1540693,23.99197 2.5241508,24.290089 1.875796,24.558255 1.6448407,24.682918 1.3991101,24.78156 1.1633198,24.897834 c -0.143906,0.07161 -0.3002503,0.109318 -0.45970022,0.137837 0,0 1.21669842,-0.848246 1.21669842,-0.848246 v 0 c 0.1504534,-0.04032 0.2961099,-0.09114 0.433152,-0.161782 0.2415627,-0.110887 0.4805363,-0.226383 0.7221096,-0.337074 0.089154,-0.03722 0.1783851,-0.07299 0.2681685,-0.108754 0.031666,-0.01262 0.1238042,-0.05585 0.094034,-0.03983 -0.7146831,0.384623 -1.6641728,0.875456 -1.1134534,0.590535 0.7172393,-0.378161 1.3529781,-0.769348 2.1203182,-1.015363 0.5298639,-0.189018 1.0457726,-0.410527 1.5609188,-0.630338 0.444474,-0.19464 0.9046777,-0.345067 1.3866452,-0.444177 1.0795449,-0.282998 2.153362,-0.584221 3.2375681,-0.85248 0.376362,-0.102351 0.565874,-0.147981 0.920547,-0.264033 0.09486,-0.03104 0.188957,-0.06422 0.281574,-0.100478 0.06116,-0.02394 0.236455,-0.111204 0.179373,-0.07998 -0.07337,0.04013 -3.4729572,1.84691 0.218986,-0.122113 0.322076,-0.15798 0.658523,-0.283901 1.008968,-0.380704 1.479518,-0.396806 2.981403,-0.722477 4.452393,-1.146918 1.340084,-0.385022 2.681789,-0.770041 3.983368,-1.256255 1.296839,-0.484445 1.08134,-0.454975 2.322108,-0.99178 0.03651,-0.0158 -0.06568,0.04296 -0.09853,0.06444 0.678505,-0.399701 1.069488,-0.609857 1.697809,-1.05364 0.60328,-0.426096 1.110173,-0.944197 1.673458,-1.410489 0,0 1.402767,-0.530492 1.402767,-0.530492 z"
       inkscape:connector-curvature="0" />
    <path
       style="fill:#000000;stroke:#000000;stroke-width:0.27733889;stroke-miterlimit:4;stroke-dasharray:none;stroke-opacity:1"
       id="path56"
       d="m 2.2742497,1.3752099 c -0.054001,0.312169 -0.075132,0.627977 -0.090167,0.943383 -0.00672,0.449218 -0.1013593,0.891383 -0.1551661,1.336881 -0.054496,0.550613 -0.06251,1.103435 -0.1023845,1.654955 -0.050922,0.648848 -0.064916,1.2992689 -0.07576,1.949485 -0.00761,0.75415 -0.020627,1.508454 -8.846e-4,2.2624915 0.023821,0.7714886 0.050091,1.5427366 0.143777,2.3101596 0.058795,0.489478 0.1674549,0.972121 0.2322556,1.460901 0.03041,0.302376 0.091088,0.600863 0.1254866,0.902822 0.032949,0.332287 0.065243,0.664548 0.134806,0.992309 0.1136003,0.556456 0.2017818,1.117335 0.2719675,1.679694 0.086162,0.739648 0.1292194,1.482693 0.2041577,2.223148 0.04412,0.406943 0.099962,0.812771 0.1320118,1.220727 -0.00504,0.194148 0.042183,0.381823 0.073982,0.57228 0.051665,0.19421 0.098401,0.388393 0.1247445,0.586933 0.021733,0.179581 0.01095,0.359887 0.04864,0.537578 0.043811,0.169214 0.060962,0.342136 0.07124,0.5153 0.00849,0.187664 0.00814,0.375539 0.00823,0.563327 -6.46e-5,0.125127 0.0023,0.06315 -0.0069,0.185928 0,0 -1.3766304,0.618998 -1.3766304,0.618998 v 0 c 0.025563,-0.106034 0.018133,-0.04958 0.018239,-0.169759 3.98e-5,-0.185643 6.36e-4,-0.37134 -0.00584,-0.556911 C 2.04227,22.999488 2.030037,22.832804 1.9878625,22.67022 1.9454935,22.48794 1.9470768,22.305574 1.9358256,22.119939 1.9144111,21.922547 1.8737846,21.72866 1.8135896,21.537872 1.7822419,21.342162 1.7248783,21.150588 1.7399348,20.950695 1.7229076,20.538337 1.6862084,20.127045 1.6472988,19.715988 1.584329,18.975184 1.5453566,18.232684 1.4508268,17.494165 1.3765262,16.938988 1.2710159,16.388075 1.1543587,15.839104 1.0778556,15.509783 1.034802,15.174473 1.0001231,14.839678 0.97132274,14.536378 0.91116674,14.236806 0.88707035,13.933228 0.83337934,13.44005 0.73546268,12.952738 0.67900043,12.459935 0.59585455,11.686647 0.5810652,10.910022 0.54398037,10.134126 0.51663068,9.3803314 0.53256992,8.6258769 0.5312962,7.8717529 0.5383722,7.2209959 0.5518969,6.5699878 0.5948586,5.9202619 0.6310359,5.3682579 0.643552,4.8156469 0.6866685,4.2640399 c 0.0463759,-0.441065 0.14103311,-0.878141 0.14418734,-1.321855 0.0110655,-0.316487 0.0337537,-0.632033 0.0687811,-0.947107 0,0 1.37448016,-0.619868 1.37448016,-0.619868 z"
       inkscape:connector-curvature="0" />
    <path
       style="fill:#808080;stroke:#000000;stroke-width:0.0990496;stroke-miterlimit:4;stroke-dasharray:none;stroke-opacity:1"
       d="M 3.5894256,22.72265 C 3.5845607,22.449798 3.5409533,21.971421 3.4923979,21.659591 3.3971764,21.048128 3.1450825,18.894639 2.9724814,17.218372 2.913607,16.646681 2.7996273,15.796236 2.7191757,15.32849 2.1385724,11.95289 2.0974223,11.47758 2.0974223,8.1469419 c 0,-3.7267909 0.1838452,-6.1448269 0.4592156,-6.0398657 0.088979,0.033914 0.7808689,0.2696665 1.5375389,0.5238941 4.2790419,1.4376791 6.2395482,2.228043 11.7168032,4.7235466 4.350045,1.9819335 10.272444,4.9621331 12.045142,6.0612171 l 0.615498,0.381612 -0.632905,0.237041 c -0.450707,0.168801 -0.904633,0.463208 -1.576811,1.02268 -1.047028,0.871472 -1.950571,1.44807 -3.07216,1.96051 -1.684046,0.769421 -4.448528,1.643906 -8.226477,2.602269 -1.262424,0.320242 -2.553392,0.710261 -2.94971,0.891144 -0.387621,0.176916 -1.786622,0.604181 -3.1088929,0.949478 -1.5987458,0.417497 -2.8722966,0.817168 -3.8016429,1.193043 -0.7686341,0.310878 -1.4216699,0.565232 -1.4511928,0.565232 -0.029508,0 -0.057601,-0.223242 -0.062403,-0.496093 z"
       id="path358"
       inkscape:connector-curvature="0" />
    <path
       style="fill:#000000;stroke:#000000;stroke-width:0.27733889;stroke-miterlimit:4;stroke-dasharray:none;stroke-opacity:1"
       id="path50-1"
       d="m 23.82369,0.14756753 c 0.37403,0.14332499 0.737537,0.30847799 1.106468,0.46288799 0.979665,0.41904298 1.99544,0.76254708 2.99983,1.12805708 1.266454,0.468936 2.548502,0.903468 3.799842,1.4060719 0.520607,0.2091031 1.484644,0.6232991 1.99396,0.8403852 2.204466,0.9554768 4.376353,1.9712718 6.554519,2.9751772 2.03367,0.914673 4.014609,1.921203 6.003141,2.9137965 1.128504,0.5801176 2.289419,1.1065396 3.420009,1.6828416 0.442104,0.219144 0.865263,0.464564 1.27083,0.735324 0.168078,0.102059 0.316308,0.226255 0.475373,0.338665 0,0 -1.297739,0.743892 -1.297739,0.743892 v 0 C 49.997262,13.258789 49.846268,13.141769 49.686645,13.03373 49.300951,12.757296 48.886872,12.518557 48.465573,12.289678 47.368294,11.693584 46.251877,11.126747 45.140628,10.552833 43.176355,9.5418154 41.212009,8.5285039 39.191768,7.6125129 37.006606,6.6125508 34.824459,5.6060525 32.611789,4.6574157 32.134724,4.4578955 31.098216,4.0216555 30.60877,3.8275966 29.350988,3.3288996 28.067805,2.8858056 26.786933,2.4397956 25.749284,2.0898496 24.689496,1.7858466 23.682353,1.3662645 23.304178,1.2115016 22.925132,1.0588995 22.540289,0.91853152 c 0,0 1.283401,-0.77096399 1.283401,-0.77096399 z"
       inkscape:connector-curvature="0" />
    <path
       style="fill:#000000;stroke:#000000;stroke-width:0.27733889;stroke-miterlimit:4;stroke-dasharray:none;stroke-opacity:1"
       id="path54-7"
       d="m 50.077418,13.481597 c -0.607321,0.471078 -1.144089,1.013664 -1.774963,1.460183 -0.63714,0.450956 -1.068593,0.686308 -1.752665,1.09102 -1.432398,0.810794 -2.921922,1.533728 -4.487138,2.10594 -1.301204,0.475694 -2.643939,0.853834 -3.979777,1.237488 -1.527103,0.447157 -3.08606,0.800105 -4.609498,1.257514 -0.357282,0.114671 -0.702234,0.250652 -1.025481,0.430897 0.399935,-0.209681 1.595173,-0.845811 1.199802,-0.629038 -0.468689,0.256972 -0.942011,0.507041 -1.419791,0.749652 -0.05571,0.02829 -0.436939,0.140982 -0.450993,0.145002 -0.365738,0.104699 -0.498164,0.133284 -0.889983,0.230434 -1.097504,0.252399 -2.174502,0.570061 -3.257576,0.868021 -0.486525,0.105529 -0.94833,0.272056 -1.392803,0.478372 -0.523124,0.209464 -1.03718,0.439653 -1.572521,0.622309 -0.598073,0.192555 -1.862716,0.894887 0.491576,-0.336079 -0.59672,0.364537 -1.226637,0.662656 -1.874994,0.930822 -0.230953,0.124663 -0.476684,0.223306 -0.712475,0.339579 -0.143908,0.07161 -0.300249,0.109319 -0.4597,0.137837 0,0 1.216699,-0.848245 1.216699,-0.848245 v 0 c 0.150453,-0.04032 0.29611,-0.09114 0.433151,-0.161783 0.241564,-0.110886 0.480537,-0.226382 0.722111,-0.337073 0.08915,-0.03722 0.178385,-0.07299 0.268169,-0.108755 0.03167,-0.01262 0.123803,-0.05585 0.09403,-0.03983 -0.714683,0.384623 -1.664172,0.875456 -1.113453,0.590535 0.717238,-0.378161 1.352977,-0.769348 2.120316,-1.015364 0.529865,-0.189017 1.045773,-0.410527 1.560919,-0.630337 0.444475,-0.194641 0.904678,-0.345068 1.386646,-0.444178 1.079545,-0.282997 2.153361,-0.584221 3.237568,-0.852479 0.376364,-0.102352 0.565873,-0.147982 0.920547,-0.264033 0.09486,-0.03104 0.188957,-0.06422 0.281574,-0.100479 0.06116,-0.02394 0.236454,-0.111203 0.179372,-0.07998 -0.07337,0.04013 -3.472956,1.846909 0.218986,-0.122114 0.322076,-0.15798 0.658524,-0.283901 1.008969,-0.380704 1.479518,-0.396805 2.981405,-0.722477 4.452391,-1.146917 1.340086,-0.385023 2.68179,-0.770042 3.983371,-1.256256 1.296838,-0.484445 1.081341,-0.454974 2.322109,-0.99178 0.0365,-0.0158 -0.06568,0.04296 -0.09853,0.06444 0.678505,-0.399701 1.06949,-0.609857 1.69781,-1.053639 0.603282,-0.426097 1.110173,-0.944198 1.673459,-1.410489 0,0 1.402771,-0.530493 1.402771,-0.530493 z"
       inkscape:connector-curvature="0" />
    <path
       style="fill:#000000;stroke:#000000;stroke-width:0.27733889;stroke-miterlimit:4;stroke-dasharray:none;stroke-opacity:1"
       id="path56-6"
       d="m 23.679068,0.94108952 c -0.05402,0.31216898 -0.07513,0.62797708 -0.09017,0.94338308 -0.0067,0.449218 -0.101361,0.891383 -0.155166,1.336881 -0.0545,0.550613 -0.06251,1.103435 -0.102385,1.654955 -0.05091,0.648848 -0.06492,1.2992692 -0.07576,1.9494853 -0.0077,0.75415 -0.02062,1.508454 -9.73e-4,2.262491 0.02383,0.7714895 0.05008,1.5427361 0.143778,2.3101591 0.05879,0.489478 0.167455,0.972121 0.232258,1.460901 0.03041,0.302376 0.09108,0.600863 0.125472,0.902822 0.03295,0.332287 0.06524,0.664548 0.134806,0.992309 0.1136,0.556456 0.201781,1.117336 0.271966,1.679694 0.08615,0.739648 0.12922,1.482693 0.204158,2.223148 0.04414,0.406943 0.09997,0.812772 0.132013,1.220728 -0.005,0.194147 0.04218,0.381822 0.07398,0.57228 0.05166,0.19421 0.09839,0.388393 0.124744,0.586932 0.02173,0.179581 0.01095,0.359887 0.04864,0.537578 0.04381,0.169214 0.06095,0.342136 0.07124,0.515301 0.0085,0.187664 0.0082,0.375539 0.0082,0.563326 -6.6e-5,0.125127 0.0023,0.06315 -0.0069,0.185928 0,0 -1.37663,0.618999 -1.37663,0.618999 v 0 c 0.02556,-0.106035 0.01811,-0.04958 0.01824,-0.169759 4e-5,-0.185643 6.38e-4,-0.37134 -0.0058,-0.556912 -0.0078,-0.166352 -0.02004,-0.333036 -0.0622,-0.495619 -0.04237,-0.182281 -0.04078,-0.364647 -0.05204,-0.550282 -0.02142,-0.197392 -0.06204,-0.391278 -0.122236,-0.582067 -0.03136,-0.19571 -0.08871,-0.387283 -0.07365,-0.587176 -0.01703,-0.412359 -0.05373,-0.82365 -0.09264,-1.234708 -0.06296,-0.740804 -0.101942,-1.483304 -0.196471,-2.221823 -0.07431,-0.555177 -0.179811,-1.10609 -0.29647,-1.655061 -0.07648,-0.329321 -0.119558,-0.664631 -0.154235,-0.999426 -0.0288,-0.3033 -0.08896,-0.602872 -0.113052,-0.90645 -0.05369,-0.493178 -0.151607,-0.98049 -0.20807,-1.473293 -0.08315,-0.773288 -0.09794,-1.549913 -0.13502,-2.3258076 -0.02735,-0.7537955 -0.01141,-1.5082495 -0.01269,-2.2623735 0.0071,-0.650757 0.02062,-1.3017651 0.06357,-1.9514912 0.03618,-0.5520042 0.04869,-1.104615 0.09182,-1.6562221 0.04639,-0.4410651 0.141034,-0.8781409 0.144189,-1.321855 0.01107,-0.316487 0.03376,-0.632033 0.06877,-0.947107 0,0 1.37448,-0.61986808 1.37448,-0.61986808 z"
       inkscape:connector-curvature="0" />
    <path
       style="fill:#808080;stroke:#000000;stroke-width:0.0990496;stroke-miterlimit:4;stroke-dasharray:none;stroke-opacity:1"
       d="m 24.994244,22.288529 c -0.0049,-0.272851 -0.04847,-0.751228 -0.09703,-1.063058 -0.09521,-0.611464 -0.347315,-2.764953 -0.519917,-4.44122 -0.05887,-0.571691 -0.172853,-1.422136 -0.253304,-1.889881 -0.580604,-3.375601 -0.621756,-3.850911 -0.621756,-7.1815481 0,-3.7267912 0.183847,-6.1448272 0.459218,-6.0398661 0.08899,0.033914 0.780869,0.2696666 1.537539,0.5238942 4.279041,1.4376791 6.239546,2.2280429 11.716803,4.7235469 4.350044,1.981933 10.272443,4.9621321 12.045142,6.0612161 l 0.615501,0.381612 -0.632909,0.237042 c -0.450705,0.1688 -0.904632,0.463207 -1.576811,1.022679 -1.047029,0.871472 -1.95057,1.44807 -3.07216,1.96051 -1.684046,0.769421 -4.448528,1.643907 -8.226477,2.602269 -1.262425,0.320242 -2.553393,0.710261 -2.949709,0.891144 -0.387621,0.176916 -1.786623,0.604181 -3.108894,0.949479 -1.598746,0.417496 -2.872296,0.817168 -3.801643,1.193043 -0.768632,0.310878 -1.421669,0.565232 -1.451192,0.565232 -0.02952,0 -0.05762,-0.223243 -0.0624,-0.496094 z"
       id="path358-9"
       inkscape:connector-curvature="0" />
  </g>
</svg>
