<?xml version="1.0" encoding="UTF-8" standalone="no"?>
<!-- Created with Inkscape (http://www.inkscape.org/) -->

<svg
   xmlns:dc="http://purl.org/dc/elements/1.1/"
   xmlns:cc="http://creativecommons.org/ns#"
   xmlns:rdf="http://www.w3.org/1999/02/22-rdf-syntax-ns#"
   xmlns:svg="http://www.w3.org/2000/svg"
   xmlns="http://www.w3.org/2000/svg"
   xmlns:sodipodi="http://sodipodi.sourceforge.net/DTD/sodipodi-0.dtd"
   xmlns:inkscape="http://www.inkscape.org/namespaces/inkscape"
   width="55.728928mm"
   height="27.57559mm"
   viewBox="0 0 55.728928 27.57559"
   version="1.1"
   id="svg8"
   sodipodi:docname="Forward.svg"
   inkscape:version="0.92.2 (5c3e80d, 2017-08-06)">
  <defs
     id="defs2" />
  <sodipodi:namedview
     id="base"
     pagecolor="#ffffff"
     bordercolor="#666666"
     borderopacity="1.0"
     inkscape:pageopacity="0.0"
     inkscape:pageshadow="2"
     inkscape:zoom="1.979899"
     inkscape:cx="161.37807"
     inkscape:cy="4.9261519"
     inkscape:document-units="mm"
     inkscape:current-layer="layer1"
     showgrid="false"
     inkscape:window-width="1366"
     inkscape:window-height="746"
     inkscape:window-x="1352"
     inkscape:window-y="-8"
     inkscape:window-maximized="1"
     showguides="false"
     fit-margin-top="0"
     fit-margin-left="0"
     fit-margin-right="0"
     fit-margin-bottom="0" />
  <metadata
     id="metadata5">
    <rdf:RDF>
      <cc:Work
         rdf:about="">
        <dc:format>image/svg+xml</dc:format>
        <dc:type
           rdf:resource="http://purl.org/dc/dcmitype/StillImage" />
        <dc:title></dc:title>
      </cc:Work>
    </rdf:RDF>
  </metadata>
  <g
     inkscape:label="Layer 1"
     inkscape:groupmode="layer"
     id="layer1"
     transform="translate(-3.2940783,-3.7021653)">
    <path
       style="fill:#000000;stroke:#000000;stroke-width:0.26499999;stroke-miterlimit:4;stroke-dasharray:none;stroke-opacity:1"
       id="path50"
       d="m 5.1530446,4.4570961 c 0.3414901,0.143325 0.6733718,0.308478 1.0102046,0.462888 0.8944343,0.419043 1.8218353,0.762547 2.7388409,1.128057 1.1562719,0.468936 2.3267799,0.903468 3.4692519,1.406072 0.475313,0.209103 1.355478,0.623299 1.820483,0.840385 2.012674,0.955477 3.995604,1.9712719 5.984267,2.9751769 1.856738,0.914673 3.665333,1.921203 5.48086,2.913796 1.030324,0.580119 2.090237,1.106541 3.122464,1.682843 0.403641,0.219144 0.789983,0.464564 1.160267,0.735324 0.15345,0.102059 0.288787,0.226255 0.434012,0.338665 0,0 -1.184831,0.743892 -1.184831,0.743892 v 0 C 29.049484,17.568318 28.911626,17.451298 28.765891,17.343259 28.413754,17.066825 28.035699,16.828086 27.651053,16.599207 26.64924,16.003113 25.629951,15.436276 24.615383,14.862362 22.822004,13.851343 21.028559,12.838032 19.184081,11.922041 17.189032,10.922079 15.196733,9.9155811 13.176569,8.9669441 12.74101,8.7674241 11.794678,8.3311841 11.347816,8.1371251 10.199463,7.6384281 9.0279161,7.1953341 7.8584833,6.7493241 6.9111112,6.3993781 5.9435257,6.0953751 5.0240052,5.6757931 4.6787327,5.5210301 4.3326643,5.3684281 3.981303,5.2280601 c 0,0 1.1717416,-0.770964 1.1717416,-0.770964 z"
       inkscape:connector-curvature="0" />
    <path
       style="fill:#000000;stroke:#000000;stroke-width:0.26499999;stroke-miterlimit:4;stroke-dasharray:none;stroke-opacity:1"
       id="path54"
       d="m 29.122668,17.791126 c -0.554485,0.471078 -1.044554,1.013664 -1.620541,1.460183 -0.581708,0.450956 -0.975625,0.686308 -1.600181,1.09102 -1.307779,0.810794 -2.667711,1.533728 -4.096752,2.10594 -1.187997,0.475694 -2.413912,0.853834 -3.633531,1.237488 -1.394243,0.447156 -2.817568,0.800105 -4.208464,1.257514 -0.326199,0.114671 -0.64114,0.250651 -0.936263,0.430896 0.36514,-0.20968 1.456391,-0.84581 1.095418,-0.629037 -0.427913,0.256971 -0.860056,0.50704 -1.296269,0.749652 -0.05086,0.02829 -0.398925,0.140981 -0.411755,0.145002 -0.333919,0.104699 -0.454823,0.133284 -0.812553,0.230434 -1.00202,0.252399 -1.9853189,0.570061 -2.9741639,0.868021 -0.4441972,0.105529 -0.8658231,0.272055 -1.2716275,0.478372 -0.4776113,0.209463 -0.9469438,0.439653 -1.4357096,0.622308 -0.54604,0.192556 -1.7006573,0.894887 0.4488092,-0.336079 -0.5448051,0.364538 -1.1199185,0.662657 -1.7118668,0.930823 -0.210861,0.124663 -0.4352131,0.223305 -0.650489,0.339579 -0.131387,0.07161 -0.2741281,0.109318 -0.4197059,0.137837 0,0 1.1108436,-0.848246 1.1108436,-0.848246 v 0 c 0.1373635,-0.04032 0.2703486,-0.09114 0.3954674,-0.161782 0.2205472,-0.110887 0.4387305,-0.226383 0.6592853,-0.337074 0.081398,-0.03722 0.1628651,-0.07299 0.244838,-0.108754 0.028915,-0.01262 0.1130303,-0.05585 0.085853,-0.03983 -0.6525058,0.384623 -1.5193869,0.875456 -1.0165818,0.590535 0.6548382,-0.378161 1.2352671,-0.769348 1.9358462,-1.015363 0.4837665,-0.189018 0.9547905,-0.410527 1.4251179,-0.630338 0.405805,-0.19464 0.82597,-0.345067 1.266006,-0.444177 0.9856229,-0.282998 1.9660159,-0.584221 2.9558949,-0.85248 0.343619,-0.102351 0.516642,-0.147981 0.840458,-0.264033 0.08661,-0.03104 0.172518,-0.06422 0.257077,-0.100478 0.05583,-0.02394 0.215883,-0.111204 0.163767,-0.07998 -0.06699,0.04013 -3.170805,1.84691 0.199934,-0.122113 0.294055,-0.15798 0.601231,-0.283901 0.921187,-0.380704 1.350798,-0.396806 2.722018,-0.722477 4.065028,-1.146918 1.223496,-0.385022 2.44847,-0.770041 3.636811,-1.256255 1.184012,-0.484445 0.987262,-0.454975 2.120083,-0.99178 0.03333,-0.0158 -0.05997,0.04296 -0.08996,0.06444 0.619474,-0.399701 0.976442,-0.609857 1.550098,-1.05364 0.550794,-0.426096 1.013587,-0.944197 1.527866,-1.410489 0,0 1.280723,-0.530492 1.280723,-0.530492 z"
       inkscape:connector-curvature="0" />
    <path
       style="fill:#000000;stroke:#000000;stroke-width:0.26499999;stroke-miterlimit:4;stroke-dasharray:none;stroke-opacity:1"
       id="path56"
       d="m 5.0210064,5.2506181 c -0.049305,0.312169 -0.068601,0.627977 -0.082327,0.943383 -0.00606,0.449218 -0.09254,0.891383 -0.1416664,1.336881 -0.049751,0.550613 -0.057074,1.103435 -0.093479,1.654955 -0.046487,0.648848 -0.059267,1.2992689 -0.069166,1.9494849 -0.00696,0.75415 -0.018825,1.508454 -8.466e-4,2.262491 0.021749,0.771489 0.045734,1.542737 0.1312687,2.31016 0.053672,0.489478 0.1528848,0.972121 0.2120498,1.460901 0.027765,0.302376 0.08316,0.600863 0.114562,0.902822 0.030076,0.332287 0.059567,0.664548 0.1230815,0.992309 0.103718,0.556456 0.1842256,1.117335 0.2483051,1.679694 0.078663,0.739648 0.1179735,1.482693 0.1863952,2.223148 0.040285,0.406943 0.091267,0.812771 0.1205275,1.220727 -0.00459,0.194148 0.038519,0.381823 0.067545,0.57228 0.047163,0.19421 0.089843,0.388393 0.1138876,0.586933 0.019836,0.179581 0.010054,0.359887 0.044413,0.537578 0.040002,0.169214 0.055649,0.342136 0.06505,0.5153 0.00779,0.187664 0.00747,0.375539 0.00761,0.563327 -5.98e-5,0.125127 0.00212,0.06315 -0.0063,0.185928 0,0 -1.256861,0.618998 -1.256861,0.618998 v 0 c 0.023339,-0.106034 0.016544,-0.04958 0.016658,-0.169759 3.6e-5,-0.185643 5.821e-4,-0.37134 -0.00529,-0.556911 -0.00714,-0.166352 -0.018285,-0.333036 -0.056789,-0.49562 -0.038678,-0.18228 -0.037233,-0.364646 -0.047511,-0.550281 C 4.692567,25.797955 4.655488,25.604068 4.6005198,25.41328 4.571895,25.21757 4.5195165,25.025996 4.5332764,24.826103 4.5177269,24.413745 4.4842232,24.002453 4.4486934,23.591396 4.3912002,22.850592 4.3556199,22.108092 4.2693154,21.369573 4.2014675,20.814396 4.1051489,20.263483 3.9986395,19.714512 3.9287975,19.385191 3.8894799,19.049881 3.8578225,18.715086 3.8315308,18.411786 3.776607,18.112214 3.7545982,17.808636 3.705587,17.315458 3.6161817,16.828146 3.5646311,16.335343 3.4887211,15.562055 3.4752091,14.78543 3.4413559,14.009534 c -0.024974,-0.753795 -0.010435,-1.508249 -0.011549,-2.262373 0.00651,-0.650757 0.018809,-1.301765 0.058032,-1.9514909 0.033019,-0.552004 0.044459,-1.104615 0.083827,-1.656222 0.042346,-0.441065 0.1287597,-0.878141 0.1316445,-1.321855 0.010126,-0.316487 0.030816,-0.632033 0.062793,-0.947107 0,0 1.254897,-0.619868 1.254897,-0.619868 z"
       inkscape:connector-curvature="0" />
    <path
       style="fill:#000000;stroke:#000000;stroke-width:0.26499999;stroke-miterlimit:4;stroke-dasharray:none;stroke-opacity:1"
       id="path76"
       d="m 46.890312,4.4750531 c 0.0013,0.508498 0.117081,1.010753 0.266483,1.494137 0.156937,0.443043 0.324644,0.881613 0.504457,1.315812 0.115337,0.343107 0.166886,0.703056 0.223496,1.059323 0.07715,0.432502 0.185984,0.856887 0.321244,1.274588 0.131183,0.4432049 0.287965,0.8774199 0.452197,1.3091849 0.214008,0.563356 0.349858,1.152402 0.518186,1.730396 0.183042,0.524956 0.322906,1.059162 0.400085,1.60942 0.03768,0.429254 0.07051,0.859121 0.101118,1.289044 0.02289,0.349582 0.03626,0.699732 0.04092,1.050015 -0.0065,0.279358 0.01085,0.556328 0.04048,0.833874 0.03526,0.309533 0.04296,0.620866 0.05012,0.931995 0.0051,0.269698 0.0064,0.539464 0.008,0.809207 -1.22e-4,0.221239 0.0066,0.442616 -0.0096,0.663363 -0.03723,0.247901 -0.05145,0.49839 -0.08185,0.746948 -0.03852,0.206849 -0.06102,0.416174 -0.106596,0.62162 -0.0592,0.185952 -0.12002,0.369327 -0.151931,0.562284 -0.03269,0.20115 -0.08348,0.395976 -0.163447,0.583322 -0.0761,0.17903 -0.123399,0.368906 -0.17385,0.556424 -0.05064,0.201417 -0.05251,0.409231 -0.09776,0.611532 -0.06969,0.22271 -0.115056,0.45081 -0.140718,0.682437 -0.0069,0.217625 -0.04436,0.431823 -0.07356,0.647107 -0.02719,0.201139 -0.03297,0.404085 -0.03865,0.606687 -0.03063,0.348626 0.04029,0.687787 0.107794,1.027483 0.0813,0.393766 0.128051,0.792961 0.157332,1.193578 0.0159,0.232589 0.01873,0.46574 0.0195,0.69878 1.6e-5,0.188889 -7.94e-4,0.377775 -0.0011,0.566661 -2.65e-4,0.188283 -2.65e-4,0.376563 -2.65e-4,0.564846 0.0072,0.130942 -0.01627,0.259876 -0.03772,0.388321 0,0 -1.256681,0.614166 -1.256681,0.614166 v 0 c 0.02061,-0.121671 0.05389,-0.243234 0.04787,-0.36736 -3e-6,-0.188331 -1.9e-5,-0.376659 1.82e-4,-0.564986 2.65e-4,-0.189021 7.94e-4,-0.378045 0.0019,-0.567063 0.0013,-0.232249 0.0033,-0.464588 -0.0051,-0.696741 -0.01781,-0.396801 -0.05517,-0.792922 -0.136345,-1.182357 -0.07251,-0.34459 -0.165346,-0.687601 -0.142589,-1.043339 7.94e-4,-0.207425 0.0074,-0.415081 0.03192,-0.621242 0.02731,-0.21436 0.07181,-0.426466 0.07483,-0.643162 0.02217,-0.238249 0.06203,-0.474083 0.132122,-0.703392 0.06406,-0.19875 0.05335,-0.404373 0.0958,-0.607997 0.04578,-0.194768 0.102232,-0.387778 0.1652,-0.577384 0.07858,-0.178962 0.146892,-0.354283 0.178038,-0.549127 0.02439,-0.197215 0.06718,-0.390364 0.147432,-0.573241 0.04896,-0.203028 0.07568,-0.408347 0.114845,-0.613608 0.04452,-0.244311 0.0401,-0.495414 0.08606,-0.740095 0.02469,-0.216144 0.0075,-0.434028 0.01408,-0.651283 0.0019,-0.270192 0.0035,-0.540385 5.29e-4,-0.81058 -0.0044,-0.307226 -0.01426,-0.614664 -0.04612,-0.920454 -0.02977,-0.281614 -0.0635,-0.561596 -0.0469,-0.845564 -0.0021,-0.349947 -0.0043,-0.700037 -0.02503,-1.049508 C 48.43087,15.761192 48.38493,15.334969 48.36024,14.90699 48.29856,14.359734 48.169525,13.826648 47.99222,13.304964 47.823553,12.732608 47.671508,12.153222 47.459989,11.594979 47.292286,11.162127 47.1337,10.725872 47.004456,10.279708 46.865002,9.8569911 46.748546,9.4286031 46.666483,8.9907551 c -0.06103,-0.345613 -0.107209,-0.695805 -0.214096,-1.031284 -0.167706,-0.443751 -0.327257,-0.890302 -0.487656,-1.336765 -0.155167,-0.492302 -0.266094,-0.997675 -0.323657,-1.511166 0,0 1.249178,-0.636487 1.249178,-0.636487 z"
       inkscape:connector-curvature="0" />
    <path
       style="fill:#000000;stroke:#000000;stroke-width:0.26499999;stroke-miterlimit:4;stroke-dasharray:none;stroke-opacity:1"
       id="path78"
       d="m 48.990828,30.099016 c 0.339749,0.01024 0.67971,0.0054 1.019551,0.0048 0.417333,7.94e-4 0.834665,0.0033 1.251992,0.0057 0.587831,0.009 1.17569,0.0011 1.763525,-0.0013 0.32517,-0.0011 0.650319,-0.0074 0.975492,-0.0059 0.345369,0.0034 0.690761,0.0029 1.036138,0.0016 0.285379,-0.0021 0.57077,-0.0016 0.856154,-0.0013 0.25884,-0.0011 0.517681,-7.94e-4 0.776521,-0.0013 0.214101,-5.29e-4 0.428201,-0.0019 0.6423,-7.94e-4 0.211936,0.01019 0.427595,-0.02138 0.636878,0.01738 0.160454,0.01897 0.299056,0.100306 0.454798,0.137128 0.02513,0.0041 0.05026,0.0082 0.0754,0.01225 0,0 -1.150512,0.800859 -1.150512,0.800859 v 0 c -0.02715,-0.0066 -0.0543,-0.01328 -0.08144,-0.0199 -0.145873,-0.0463 -0.285731,-0.111424 -0.440984,-0.121833 -0.207557,-0.0122 -0.415893,-0.0019 -0.623705,-0.0052 -0.213442,0.0011 -0.426884,-2.65e-4 -0.640328,-7.94e-4 -0.257614,-5.29e-4 -0.515229,-2.65e-4 -0.772843,-0.0013 -0.284279,5.29e-4 -0.56856,0.0011 -0.852834,-0.0013 -0.346885,-0.0013 -0.693782,-0.0019 -1.040659,0.0016 -0.319786,0.0013 -0.639546,-0.0048 -0.959326,-0.0059 -0.586627,-0.0024 -1.173274,-0.01032 -1.759898,-0.0013 -0.422526,0.0024 -0.845057,0.0048 -1.267589,0.0057 -0.344281,-5.29e-4 -0.688666,-0.0052 -1.032857,0.0048 0,0 1.134229,-0.824066 1.134229,-0.824066 z"
       inkscape:connector-curvature="0" />
    <path
       style="fill:#000000;stroke:#000000;stroke-width:0.26499999;stroke-miterlimit:4;stroke-dasharray:none;stroke-opacity:1"
       id="path80"
       d="m 57.628641,31.145255 c -0.190686,-0.709538 -0.331272,-1.428204 -0.437113,-2.154851 -0.111818,-0.869275 -0.155562,-1.745014 -0.184439,-2.620325 -0.01336,-0.473874 -0.02101,-0.947896 -0.01889,-1.421958 -0.0011,-0.37851 0.007,-0.757243 -0.007,-1.135544 -0.04004,-0.714555 -0.04453,-1.430501 -0.05192,-2.145958 -0.0086,-0.631013 -0.02109,-1.261962 -0.03307,-1.89292 -0.0042,-0.27727 -0.0078,-0.554611 -0.0069,-0.831921 0.0019,-0.319934 0.0057,-0.63986 0.0055,-0.959797 -0.0026,-0.288954 -0.0033,-0.577911 -0.0049,-0.866871 0.01135,-0.458294 -0.0912,-0.910308 -0.156184,-1.362046 -0.0998,-0.729631 -0.157249,-1.464079 -0.194492,-2.199285 -0.02347,-0.369015 -0.0062,-0.739937 0.04661,-1.105654 0.05418,-0.280025 0.161232,-0.544826 0.231246,-0.820626 0.04991,-0.205269 0.06326,-0.416071 0.06973,-0.626398 0.0034,-0.299782 0.0093,-0.599536 0.01463,-0.899292 0.0093,-0.5211499 2.2e-4,-1.0423599 -0.0042,-1.5635059 -0.0021,-0.323791 -0.0059,-0.647559 -0.0058,-0.971359 5.29e-4,-0.26489 -0.0021,-0.529781 -0.0016,-0.794669 0.01532,-0.265157 -0.02244,-0.527444 -0.05328,-0.789919 -0.02212,-0.18232 -0.03265,-0.365646 -0.0394,-0.549078 0,0 1.243587,-0.638313 1.243587,-0.638313 v 0 c 0.0041,0.180739 0.0108,0.361514 0.0295,0.541437 0.02822,0.267458 0.074,0.533621 0.06056,0.803574 7.93e-4,0.265393 -0.0021,0.53079 -0.0016,0.796185 9e-5,0.325721 -0.0038,0.65141 -0.0056,0.977123 -0.0041,0.522201 -0.01275,1.044486 -0.0024,1.566672 0.0062,0.296468 0.01627,0.5930239 0.01291,0.8895779 -0.0048,0.21978 -0.01508,0.440269 -0.06229,0.655778 -0.06434,0.275922 -0.167151,0.538149 -0.238078,0.812145 -0.06625,0.359335 -0.09408,0.729015 -0.08488,1.093937 0.01958,0.733531 0.05919,1.467648 0.170908,2.193753 0.07871,0.462298 0.04095,0.269103 0.130296,0.692725 0.01355,0.06426 0.07194,0.323344 0.08049,0.408299 0.0086,0.0851 -0.0093,0.171498 1.09e-4,0.25659 -0.0016,0.290625 -0.0024,0.581247 -0.0049,0.871867 -1.67e-4,0.318158 0.0037,0.636306 0.0051,0.954465 5.29e-4,0.279702 -0.0039,0.559414 -0.0077,0.839078 -0.01045,0.637649 -0.01752,1.275424 -0.0105,1.913158 0.01307,0.706831 0.02852,1.414277 0.09275,2.118709 0.02806,0.380251 0.0072,0.76155 0.01101,1.142598 -0.0011,0.477459 -0.01241,0.954841 -0.0089,1.432319 0.0089,0.874395 0.03686,1.750274 0.152167,2.618115 0.108386,0.712619 0.24611,1.42394 0.49898,2.10148 0,0 -1.230442,0.670705 -1.230442,0.670705 z"
       inkscape:connector-curvature="0" />
    <path
       style="fill:#000000;stroke:#000000;stroke-width:0.26499999;stroke-miterlimit:4;stroke-dasharray:none;stroke-opacity:1"
       id="path82"
       d="m 56.675291,5.0317141 c -0.473517,-0.06709 -0.952894,-0.07848 -1.430282,-0.09219 -0.440039,2.91e-4 -0.877813,-0.05 -1.316378,-0.07984 -0.275204,-0.0016 -0.5445,-0.05705 -0.817682,-0.08371 -0.296444,-0.05588 -0.595646,-0.09155 -0.896469,-0.111837 -0.323218,-0.01525 -0.646938,-0.01793 -0.970455,-0.02151 -0.517358,0.02055 -1.033931,0.05637 -1.550926,0.084 -0.148276,-0.0038 -0.287216,0.01698 -0.42536,0.06842 -0.03257,0.01213 -0.06635,0.02188 -0.09698,0.03832 -0.0263,0.01411 -0.09839,0.06729 -0.0724,0.05262 0.377939,-0.213399 0.752507,-0.43272 1.12876,-0.64908 -0.588166,0.386037 -1.120886,0.711445 -1.770671,0.902032 -0.237249,0.03649 -0.461097,0.09394 -0.686922,0.174629 -0.302458,0.102148 -0.60593,0.193355 -0.921028,0.247569 -0.123118,0.0373 -0.249928,0.05902 -0.376303,0.08155 0,0 1.111136,-0.839722 1.111136,-0.839722 v 0 c 0.125251,-0.02548 0.249679,-0.05425 0.374896,-0.07991 0.309576,-0.06287 0.60892,-0.159924 0.907312,-0.26286 0.227618,-0.076 0.461991,-0.109459 0.692375,-0.174823 0.537136,-0.186493 1.50862,-0.705064 -0.638498,0.455498 0.851601,-0.491596 1.077725,-0.818999 1.885707,-0.830025 0.515381,-0.01983 1.030097,-0.05256 1.545476,-0.0719 0.332089,-0.0025 0.66516,-0.0139 0.996397,0.01628 0.299963,0.02837 0.59735,0.07405 0.89558,0.116113 0.27169,0.02915 0.5417,0.07272 0.815306,0.08162 0.428323,0.03958 0.856448,0.08985 1.287184,0.09215 0.48853,0.01398 0.976614,0.03639 1.464458,0.06255 0,0 -1.134229,0.824066 -1.134229,0.824066 z"
       inkscape:connector-curvature="0" />
    <path
       style="fill:#000000;stroke:#000000;stroke-width:0.26499999;stroke-miterlimit:4;stroke-dasharray:none;stroke-opacity:1"
       id="path84"
       d="m 57.136026,5.3303131 c -0.232878,-0.140018 -0.463719,-0.280055 -0.689364,-0.431297 -0.131561,-0.07832 -0.250095,-0.166594 -0.397573,-0.212302 0,0 1.162836,-0.782022 1.162836,-0.782022 v 0 c 0.146751,0.06487 0.275076,0.157297 0.409331,0.244352 0.223049,0.15623 0.458171,0.291319 0.695076,0.425532 0,0 -1.180306,0.755737 -1.180306,0.755737 z"
       inkscape:connector-curvature="0" />
    <path
       style="fill:#808080;stroke:#000000;stroke-width:0.09464285;stroke-miterlimit:4;stroke-dasharray:none;stroke-opacity:1"
       d="M 6.2217604,26.598058 C 6.2173763,26.325206 6.1775144,25.846829 6.1331819,25.534999 6.0462507,24.923536 5.8160828,22.770047 5.658498,21.09378 5.6047537,20.522089 5.5006836,19.671644 5.4272307,19.203898 4.8971409,15.828298 4.8595704,15.352988 4.8595704,12.02235 c 0,-3.7267908 0.1678508,-6.1448268 0.4192645,-6.0398656 0.081235,0.033914 0.712932,0.2696665 1.4037712,0.5238941 3.9067589,1.4376791 5.6966979,2.228043 10.6974259,4.7235465 3.971585,1.981933 9.378727,4.962133 10.997199,6.061217 l 0.561949,0.381612 -0.577842,0.237041 c -0.411494,0.168801 -0.825929,0.463208 -1.439627,1.02268 -0.955935,0.871472 -1.780868,1.44807 -2.804878,1.96051 -1.537532,0.769421 -4.0615,1.643906 -7.510763,2.602269 -1.152591,0.320242 -2.331244,0.710261 -2.693081,0.891144 -0.353897,0.176916 -1.631183,0.604181 -2.838415,0.949478 -1.4596527,0.417497 -2.6224036,0.817168 -3.4708956,1.193043 -0.7017607,0.310878 -1.2979821,0.565232 -1.3249365,0.565232 -0.026954,0 -0.052596,-0.223242 -0.056982,-0.496093 z"
       id="path358"
       inkscape:connector-curvature="0" />
    <path
       style="fill:#808080;stroke:#000000;stroke-width:0.09464285;stroke-miterlimit:4;stroke-dasharray:none;stroke-opacity:1"
       d="m 49.224146,28.724173 c -2.09e-4,-0.662639 -0.06724,-1.60876 -0.14895,-2.102493 -0.220766,-1.333929 -0.07309,-2.56159 0.585401,-4.866442 0.267169,-0.935143 0.269841,-0.969925 0.257723,-3.354538 -0.0067,-1.32528 -0.05947,-2.904789 -0.117195,-3.51002 -0.108831,-1.141117 -0.526602,-2.774442 -1.17861,-4.607886 C 48.442786,9.7773931 48.201047,8.9202412 48.085321,8.3780124 47.969592,7.8357838 47.733764,7.0013398 47.561261,6.5236928 L 47.247613,5.655243 47.787223,5.5052901 c 0.296786,-0.082474 0.773483,-0.2391068 1.059325,-0.3480728 0.823267,-0.3138353 2.591401,-0.4148582 4.110493,-0.2348543 0.675632,0.080059 1.765348,0.1728531 2.421588,0.2062094 l 1.193168,0.060648 0.05888,0.4295677 c 0.03239,0.2362623 0.05842,1.6461496 0.05786,3.1330831 -7.94e-4,2.2023678 -0.02876,2.7910958 -0.150646,3.1759858 -0.194307,0.613584 -0.194122,1.996598 5.29e-4,3.697693 0.104018,0.909189 0.180457,3.00326 0.249611,6.838393 0.09042,5.014127 0.153704,6.393519 0.330194,7.197079 l 0.05888,0.267949 H 53.200839 49.22458 l -2.65e-4,-1.204798 z"
       id="path362"
       inkscape:connector-curvature="0" />
    <path
       style="fill:#000000;stroke:#000000;stroke-width:0.26499999;stroke-miterlimit:4;stroke-dasharray:none;stroke-opacity:1"
       id="path50-1"
       d="m 24.695617,4.0229757 c 0.34149,0.143325 0.673371,0.308478 1.010204,0.462888 0.894435,0.419043 1.821835,0.7625471 2.738841,1.1280571 1.156272,0.468936 2.32678,0.903468 3.469252,1.4060719 0.475313,0.2091031 1.355478,0.6232991 1.820483,0.8403852 2.012674,0.9554768 3.995604,1.9712718 5.984267,2.9751771 1.856738,0.914673 3.665333,1.921203 5.48086,2.913796 1.030324,0.580118 2.090237,1.10654 3.122464,1.682842 0.403641,0.219144 0.789983,0.464564 1.160267,0.735324 0.153451,0.102059 0.288788,0.226255 0.434012,0.338665 0,0 -1.184831,0.743892 -1.184831,0.743892 v 0 c -0.13938,-0.115877 -0.277238,-0.232897 -0.422973,-0.340936 -0.352137,-0.276434 -0.730192,-0.515173 -1.114838,-0.744052 -1.001813,-0.596094 -2.021102,-1.162931 -3.03567,-1.736845 -1.793379,-1.011018 -3.586824,-2.024329 -5.431302,-2.94032 C 36.731604,10.487959 34.739305,9.4814607 32.719141,8.5328239 32.283582,8.3333037 31.33725,7.8970637 30.890388,7.7030048 c -1.148353,-0.498697 -2.3199,-0.941791 -3.489333,-1.387801 -0.947372,-0.349946 -1.914957,-0.653949 -2.834478,-1.0735311 -0.345272,-0.1547629 -0.691341,-0.307365 -1.042702,-0.447733 0,0 1.171742,-0.770964 1.171742,-0.770964 z"
       inkscape:connector-curvature="0" />
    <path
       style="fill:#000000;stroke:#000000;stroke-width:0.26499999;stroke-miterlimit:4;stroke-dasharray:none;stroke-opacity:1"
       id="path54-7"
       d="m 48.66524,17.357005 c -0.554485,0.471078 -1.044554,1.013664 -1.620541,1.460183 -0.581708,0.450956 -0.975625,0.686308 -1.600181,1.09102 -1.307779,0.810794 -2.667711,1.533728 -4.096752,2.10594 -1.187997,0.475694 -2.413912,0.853834 -3.633531,1.237488 -1.394243,0.447157 -2.817568,0.800105 -4.208464,1.257514 -0.326199,0.114671 -0.64114,0.250652 -0.936263,0.430897 0.36514,-0.209681 1.456391,-0.845811 1.095418,-0.629038 -0.427913,0.256972 -0.860056,0.507041 -1.296269,0.749652 -0.05086,0.02829 -0.398925,0.140982 -0.411755,0.145002 -0.333919,0.104699 -0.454823,0.133284 -0.812553,0.230434 -1.00202,0.252399 -1.985319,0.570061 -2.974164,0.868021 -0.444197,0.105529 -0.865823,0.272056 -1.271627,0.478372 -0.477612,0.209464 -0.946944,0.439653 -1.43571,0.622309 -0.54604,0.192555 -1.700657,0.894887 0.448809,-0.336079 -0.544805,0.364537 -1.119918,0.662656 -1.711867,0.930822 -0.210861,0.124663 -0.435213,0.223306 -0.650489,0.339579 -0.131387,0.07161 -0.274128,0.109319 -0.419706,0.137837 0,0 1.110844,-0.848245 1.110844,-0.848245 v 0 c 0.137364,-0.04032 0.270349,-0.09114 0.395467,-0.161783 0.220548,-0.110886 0.438731,-0.226382 0.659286,-0.337073 0.0814,-0.03722 0.162865,-0.07299 0.244838,-0.108755 0.02892,-0.01262 0.11303,-0.05585 0.08585,-0.03983 -0.652506,0.384623 -1.519387,0.875456 -1.016582,0.590535 0.654838,-0.378161 1.235267,-0.769348 1.935846,-1.015364 0.483767,-0.189017 0.95479,-0.410527 1.425118,-0.630337 0.405805,-0.194641 0.82597,-0.345068 1.266006,-0.444178 0.985623,-0.282997 1.966016,-0.584221 2.955895,-0.852479 0.343619,-0.102352 0.516642,-0.147982 0.840458,-0.264033 0.08661,-0.03104 0.172518,-0.06422 0.257077,-0.100479 0.05583,-0.02394 0.215883,-0.111203 0.163767,-0.07998 -0.06699,0.04013 -3.170805,1.846909 0.199934,-0.122114 0.294055,-0.15798 0.601231,-0.283901 0.921187,-0.380704 1.350798,-0.396805 2.722018,-0.722477 4.065028,-1.146917 1.223496,-0.385023 2.44847,-0.770042 3.636811,-1.256256 1.184012,-0.484445 0.987262,-0.454974 2.120083,-0.99178 0.03333,-0.0158 -0.05997,0.04296 -0.08996,0.06444 0.619474,-0.399701 0.976442,-0.609857 1.550098,-1.053639 0.550794,-0.426097 1.013587,-0.944198 1.527866,-1.410489 0,0 1.280723,-0.530493 1.280723,-0.530493 z"
       inkscape:connector-curvature="0" />
    <path
       style="fill:#000000;stroke:#000000;stroke-width:0.26499999;stroke-miterlimit:4;stroke-dasharray:none;stroke-opacity:1"
       id="path56-6"
       d="m 24.563578,4.8164977 c -0.04931,0.312169 -0.0686,0.6279771 -0.08233,0.9433831 -0.0061,0.449218 -0.09254,0.891383 -0.141666,1.336881 -0.04975,0.550613 -0.05707,1.103435 -0.09348,1.654955 -0.04649,0.648848 -0.05927,1.2992692 -0.06917,1.9494852 -0.007,0.75415 -0.01882,1.508454 -8.47e-4,2.262491 0.02175,0.771489 0.04573,1.542736 0.131269,2.310159 0.05367,0.489478 0.152885,0.972121 0.21205,1.460901 0.02777,0.302376 0.08316,0.600863 0.114562,0.902822 0.03008,0.332287 0.05957,0.664548 0.123081,0.992309 0.103718,0.556456 0.184226,1.117336 0.248305,1.679694 0.07866,0.739648 0.117974,1.482693 0.186396,2.223148 0.04029,0.406943 0.09127,0.812772 0.120527,1.220728 -0.0046,0.194147 0.03852,0.381822 0.06754,0.57228 0.04716,0.19421 0.08984,0.388393 0.113888,0.586932 0.01984,0.179581 0.01005,0.359887 0.04441,0.537578 0.04,0.169214 0.05565,0.342136 0.06505,0.515301 0.0078,0.187664 0.0075,0.375539 0.0076,0.563326 -6e-5,0.125127 0.0021,0.06315 -0.0063,0.185928 0,0 -1.256861,0.618999 -1.256861,0.618999 v 0 c 0.02334,-0.106035 0.01654,-0.04958 0.01666,-0.169759 3.6e-5,-0.185643 5.82e-4,-0.37134 -0.0053,-0.556912 -0.0071,-0.166352 -0.01829,-0.333036 -0.05679,-0.495619 -0.03868,-0.182281 -0.03723,-0.364647 -0.04751,-0.550282 -0.01956,-0.197392 -0.05664,-0.391278 -0.111604,-0.582067 -0.02862,-0.19571 -0.081,-0.387283 -0.06724,-0.587176 -0.01555,-0.412359 -0.04905,-0.82365 -0.08458,-1.234708 -0.05749,-0.740804 -0.09307,-1.483304 -0.179379,-2.221823 -0.06785,-0.555177 -0.164166,-1.10609 -0.270676,-1.655061 -0.06984,-0.329321 -0.109159,-0.664631 -0.140817,-0.999426 -0.02629,-0.3033 -0.08122,-0.602872 -0.103224,-0.90645 -0.04901,-0.493178 -0.138416,-0.98049 -0.189967,-1.473293 -0.07591,-0.773288 -0.08942,-1.549913 -0.123275,-2.325808 -0.02497,-0.753795 -0.01044,-1.508249 -0.01155,-2.262373 0.0065,-0.650757 0.01881,-1.301765 0.05803,-1.9514911 0.03302,-0.5520042 0.04446,-1.104615 0.08383,-1.6562221 0.04235,-0.4410651 0.128759,-0.8781409 0.131644,-1.321855 0.01013,-0.316487 0.03082,-0.632033 0.06279,-0.947107 0,0 1.254897,-0.6198681 1.254897,-0.6198681 z"
       inkscape:connector-curvature="0" />
    <path
       style="fill:#808080;stroke:#000000;stroke-width:0.09464285;stroke-miterlimit:4;stroke-dasharray:none;stroke-opacity:1"
       d="m 25.764332,26.163937 c -0.0044,-0.272851 -0.04425,-0.751228 -0.08858,-1.063058 -0.08693,-0.611464 -0.317099,-2.764953 -0.474684,-4.44122 -0.05374,-0.571691 -0.157814,-1.422136 -0.231267,-1.889881 -0.53009,-3.375601 -0.567661,-3.850911 -0.567661,-7.181548 0,-3.7267911 0.167851,-6.1448271 0.419265,-6.039866 0.08124,0.033914 0.712932,0.2696666 1.403771,0.5238942 3.906759,1.4376791 5.696698,2.2280429 10.697426,4.7235468 3.971585,1.981933 9.378727,4.962132 10.997199,6.061216 l 0.561949,0.381612 -0.577842,0.237042 c -0.411494,0.1688 -0.825929,0.463207 -1.439627,1.022679 -0.955935,0.871472 -1.780868,1.44807 -2.804878,1.96051 -1.537532,0.769421 -4.0615,1.643907 -7.510763,2.602269 -1.152591,0.320242 -2.331244,0.710261 -2.693081,0.891144 -0.353897,0.176916 -1.631183,0.604181 -2.838415,0.949479 -1.459653,0.417496 -2.622404,0.817168 -3.470896,1.193043 -0.70176,0.310878 -1.297982,0.565232 -1.324936,0.565232 -0.02695,0 -0.0526,-0.223243 -0.05698,-0.496094 z"
       id="path358-9"
       inkscape:connector-curvature="0" />
  </g>
</svg>
