<?xml version="1.0" encoding="UTF-8" standalone="no"?>
<!-- Created with Inkscape (http://www.inkscape.org/) -->

<svg
   xmlns:dc="http://purl.org/dc/elements/1.1/"
   xmlns:cc="http://creativecommons.org/ns#"
   xmlns:rdf="http://www.w3.org/1999/02/22-rdf-syntax-ns#"
   xmlns:svg="http://www.w3.org/2000/svg"
   xmlns="http://www.w3.org/2000/svg"
   xmlns:sodipodi="http://sodipodi.sourceforge.net/DTD/sodipodi-0.dtd"
   xmlns:inkscape="http://www.inkscape.org/namespaces/inkscape"
   width="42.226315mm"
   height="41.691772mm"
   viewBox="0 0 42.226315 41.691772"
   version="1.1"
   id="svg647"
   inkscape:version="0.92.2 (5c3e80d, 2017-08-06)"
   sodipodi:docname="icono.svg">
  <defs
     id="defs641" />
  <sodipodi:namedview
     id="base"
     pagecolor="#ffffff"
     bordercolor="#666666"
     borderopacity="1.0"
     inkscape:pageopacity="0.0"
     inkscape:pageshadow="2"
     inkscape:zoom="2.8"
     inkscape:cx="138.34362"
     inkscape:cy="78.72099"
     inkscape:document-units="mm"
     inkscape:current-layer="layer1"
     showgrid="false"
     inkscape:window-width="1366"
     inkscape:window-height="746"
     inkscape:window-x="1352"
     inkscape:window-y="-8"
     inkscape:window-maximized="1"
     fit-margin-top="0"
     fit-margin-left="0"
     fit-margin-right="0"
     fit-margin-bottom="0" />
  <metadata
     id="metadata644">
    <rdf:RDF>
      <cc:Work
         rdf:about="">
        <dc:format>image/svg+xml</dc:format>
        <dc:type
           rdf:resource="http://purl.org/dc/dcmitype/StillImage" />
        <dc:title></dc:title>
      </cc:Work>
    </rdf:RDF>
  </metadata>
  <g
     inkscape:label="Layer 1"
     inkscape:groupmode="layer"
     id="layer1"
     transform="translate(-15.636404,-72.895637)">
    <ellipse
       style="fill:#000000;stroke:#000000;stroke-width:0.26499999;stroke-miterlimit:4;stroke-dasharray:none;stroke-opacity:1"
       id="path729"
       cx="36.749561"
       cy="93.741524"
       rx="20.980658"
       ry="20.713387" />
    <path
       style="fill:#ffffff;stroke:#000000;stroke-width:0.26499999;stroke-miterlimit:4;stroke-dasharray:none;stroke-opacity:1"
       id="path731"
       d="m 38.496673,96.954206 c -0.683021,-0.507904 -1.407813,-0.932153 -2.21557,-1.202859 -0.693981,-0.07628 -1.393804,-0.05191 -2.055191,0.177377 -0.758687,0.20897 -1.506701,0.461057 -2.235652,0.758206 -0.702075,0.286282 -1.467715,0.318836 -2.165062,0.608938 -1.464566,0.513594 -4.028284,2.158066 1.8884,-1.23816 -0.43389,0.228936 -0.779444,0.55185 -1.087736,0.927624 -0.318627,0.397275 -0.541735,0.844386 -0.676823,1.333005 -0.08704,0.490585 -0.120936,0.983425 -0.227145,1.471129 -0.107947,0.472074 -0.134805,0.955964 -0.152767,1.438194 -0.0084,0.45982 -0.05991,0.92845 0.11036,1.36537 0.126648,0.36487 0.339661,0.67312 0.559459,0.98468 0.264866,0.38721 0.666586,0.64769 1.070792,0.87107 0.641972,0.26682 1.359112,0.30045 2.04343,0.38686 1.042869,0.20423 2.07227,0.45811 3.126195,0.60652 0.44532,0.006 0.938162,0.1827 1.380442,0.0505 0.183063,-0.0547 0.437388,-0.22478 0.594263,-0.32029 -5.626341,3.5174 -2.882914,1.70595 -1.687695,0.71243 0.390493,-0.33127 0.78841,-0.6732 1.06104,-1.11106 0.173413,-0.38425 0.414969,-0.72976 0.605625,-1.10425 0.247722,-0.42478 0.33759,-0.89929 0.391351,-1.38096 0.0058,-0.54389 0.10573,-1.07587 0.190145,-1.61102 0.08785,-0.5294 0.109882,-1.057855 0.05079,-1.590209 -0.0772,-0.537359 -0.385607,-0.976757 -0.692185,-1.407899 0,0 3.41003,-2.011883 3.41003,-2.011883 v 0 c 0.343156,0.483076 0.659704,0.990658 0.778126,1.580737 0.0848,0.564216 0.09692,1.118761 0.0044,1.685427 -0.07432,0.530567 -0.21105,1.051354 -0.198419,1.590387 -0.03803,0.51786 -0.09477,1.04089 -0.318307,1.51699 -0.199337,0.37249 -0.386191,0.73898 -0.612097,1.09601 -0.20243,0.52364 -0.587412,0.90411 -1.005928,1.26869 -1.576459,1.31579 -2.979086,2.40679 -5.053279,3.22579 -0.721786,0.28658 -1.355238,0.19763 -2.106449,0.0659 -1.040302,-0.18053 -2.062519,-0.45037 -3.106983,-0.60371 -0.739931,-0.0876 -1.511763,-0.11112 -2.173169,-0.49287 -0.441499,-0.27242 -0.875323,-0.57027 -1.172927,-1.00527 -0.239424,-0.33531 -0.459652,-0.67656 -0.603095,-1.06601 -0.202363,-0.48691 -0.20415,-0.99422 -0.178301,-1.51528 0.01113,-0.50127 0.02491,-1.00497 0.115712,-1.49946 0.102677,-0.49352 0.209461,-0.97418 0.23036,-1.48118 0.104921,-0.539343 0.292227,-1.028688 0.600485,-1.486724 0.295489,-0.398761 0.592281,-0.821033 1.043858,-1.053555 1.684864,-0.982043 3.110079,-2.038757 4.909473,-2.622706 0.713259,-0.207145 1.457741,-0.306885 2.143599,-0.607673 0.747514,-0.273143 1.497835,-0.537753 2.269966,-0.734023 0.723786,-0.148791 1.477314,-0.179584 2.194809,0.02363 0.814364,0.330076 1.546683,0.800124 2.290074,1.264012 0,0 -3.338406,2.137545 -3.338406,2.137545 z"
       inkscape:connector-curvature="0" />
    <path
       style="fill:#ffffff;stroke:#000000;stroke-width:0.26499999;stroke-miterlimit:4;stroke-dasharray:none;stroke-opacity:1"
       id="path733"
       d="m 40.02206,78.944183 c 0.270886,0.9666 0.62316,1.905368 0.953868,2.852071 0.389088,1.229974 0.919916,2.401887 1.457417,3.57187 1.019551,2.033296 2.18989,3.986739 3.391882,5.916186 1.094258,1.778781 2.313942,3.472519 3.569705,5.139298 0,0 -3.321613,1.965323 -3.321613,1.965323 v 0 c -1.207786,-1.709351 -2.394135,-3.433985 -3.494344,-5.215295 -1.214665,-1.938769 -2.412199,-3.892333 -3.504774,-5.902891 -0.567233,-1.169847 -1.114955,-2.348193 -1.508329,-3.590404 -0.328208,-0.944329 -0.680167,-1.881965 -1.020966,-2.821138 0,0 3.477154,-1.91502 3.477154,-1.91502 z"
       inkscape:connector-curvature="0" />
    <path
       style="fill:#ffffff;stroke:#000000;stroke-width:0.26499999;stroke-miterlimit:4;stroke-dasharray:none;stroke-opacity:1"
       id="path735"
       d="m 34.640755,85.180732 c -0.0483,0.808411 -0.186928,1.595851 -0.407345,2.373509 -0.179048,0.840443 -0.541744,1.597805 -0.973367,2.332871 -0.453882,0.696253 -0.970627,1.348816 -1.453658,2.025179 -0.295992,0.450479 -0.657908,0.848481 -0.993071,1.268513 -0.325448,0.458591 -0.747739,0.833612 -1.111031,1.260689 -0.478475,0.543899 -1.020177,1.028745 -1.567756,1.501532 -1.31367,1.415465 -2.677383,1.861939 -4.589268,2.947114 -3.632525,2.035801 10.408458,-5.932085 -1.301549,0.730792 -0.249745,0.05354 -0.461137,0.19149 -0.692946,0.291441 0,0 3.105514,-2.46213 3.105514,-2.46213 v 0 c 0.224708,-0.104076 0.45535,-0.191704 0.678187,-0.299934 -6.813915,3.952902 -1.003283,0.534651 1.309418,-0.726636 -1.056597,0.614339 -2.115295,1.225076 -3.169791,1.843016 -0.07122,0.04174 0.149443,-0.07096 0.219721,-0.114268 0.307147,-0.189294 0.578777,-0.424678 0.78858,-0.719932 0.52317,-0.486235 1.09145,-0.925197 1.585603,-1.445032 0.348097,-0.43389 0.725813,-0.832146 1.113253,-1.231178 0.295976,-0.46256 0.712007,-0.818864 1.001622,-1.286203 0.523373,-0.64144 0.972161,-1.346152 1.495962,-1.988825 0.145952,-0.256238 0.318911,-0.496612 0.461807,-0.754565 0.256508,-0.463042 0.401571,-0.982435 0.542321,-1.488554 0.222261,-0.740643 0.403048,-1.478354 0.424585,-2.257139 0,0 3.533209,-1.80026 3.533209,-1.80026 z"
       inkscape:connector-curvature="0" />
    <path
       style="fill:#ffffff;stroke:#000000;stroke-width:0.26499999;stroke-miterlimit:4;stroke-dasharray:none;stroke-opacity:1"
       id="path737"
       d="m 35.258888,99.41363 c 0.33011,0.299913 0.160591,0.140211 0.506934,0.480822 0,0 -3.351726,2.064628 -3.351726,2.064628 v 0 c -0.353147,-0.32692 -0.174382,-0.16915 -0.5359,-0.47376 0,0 3.380692,-2.07169 3.380692,-2.07169 z"
       inkscape:connector-curvature="0" />
    <path
       style="fill:#ffffff;stroke:#000000;stroke-width:0.26499999;stroke-miterlimit:4;stroke-dasharray:none;stroke-opacity:1"
       id="path739"
       d="m 48.068999,100.76768 c 0.599559,0.78475 1.284939,1.49889 1.968447,2.20996 0.439852,0.40128 0.228407,0.20252 0.635207,0.59534 0,0 -3.349263,2.05539 -3.349263,2.05539 v 0 c -0.394044,-0.39796 -0.186653,-0.19191 -0.623109,-0.61719 -0.686377,-0.72931 -1.367137,-1.46385 -2.038266,-2.20721 0,0 3.406984,-2.03629 3.406984,-2.03629 z"
       inkscape:connector-curvature="0" />
    <path
       style="fill:#ffffff;stroke:#000000;stroke-width:0.26499999;stroke-miterlimit:4;stroke-dasharray:none;stroke-opacity:1"
       id="path741"
       d="m 25.904453,82.041113 c 0.488384,0.603755 1.047378,1.144246 1.562342,1.724882 0.323493,0.429723 0.679881,0.831128 1.010341,1.255207 0,0 -3.403496,2.030201 -3.403496,2.030201 v 0 c -0.328562,-0.414555 -0.66218,-0.824439 -0.979177,-1.248027 -0.5068,-0.579125 -1.035529,-1.137742 -1.570702,-1.690573 0,0 3.380692,-2.07169 3.380692,-2.07169 z"
       inkscape:connector-curvature="0" />
    <path
       sodipodi:type="star"
       style="fill:#ffffff;stroke:#000000;stroke-width:0.26499999;stroke-miterlimit:4;stroke-dasharray:none;stroke-opacity:1"
       id="path750"
       sodipodi:sides="5"
       sodipodi:cx="89.802559"
       sodipodi:cy="119.26576"
       sodipodi:r1="2.6726952"
       sodipodi:r2="1.3363476"
       sodipodi:arg1="0.92729522"
       sodipodi:arg2="1.5556137"
       inkscape:flatsided="false"
       inkscape:rounded="0"
       inkscape:randomized="0"
       d="m 91.406176,121.40392 -1.583329,-0.80196 -1.55825,0.84966 0.273436,-1.75366 -1.289604,-1.21942 1.752321,-0.28186 0.761232,-1.6033 0.809558,1.57945 1.760071,0.22853 -1.251987,1.25801 z"
       inkscape:transform-center-x="0.012540066"
       inkscape:transform-center-y="-0.20669636"
       transform="matrix(1,0,0,0.84966905,-40.730793,-17.082058)" />
  </g>
</svg>
