<?xml version="1.0" encoding="UTF-8" standalone="no"?>
<!-- Created with Inkscape (http://www.inkscape.org/) -->

<svg
   xmlns:dc="http://purl.org/dc/elements/1.1/"
   xmlns:cc="http://creativecommons.org/ns#"
   xmlns:rdf="http://www.w3.org/1999/02/22-rdf-syntax-ns#"
   xmlns:svg="http://www.w3.org/2000/svg"
   xmlns="http://www.w3.org/2000/svg"
   xmlns:sodipodi="http://sodipodi.sourceforge.net/DTD/sodipodi-0.dtd"
   xmlns:inkscape="http://www.inkscape.org/namespaces/inkscape"
   width="77.561142mm"
   height="49.779873mm"
   viewBox="0 0 77.561142 49.779874"
   version="1.1"
   id="svg593"
   inkscape:version="0.92.2 (5c3e80d, 2017-08-06)"
   sodipodi:docname="login.svg">
  <defs
     id="defs587" />
  <sodipodi:namedview
     id="base"
     pagecolor="#ffffff"
     bordercolor="#666666"
     borderopacity="1.0"
     inkscape:pageopacity="0.0"
     inkscape:pageshadow="2"
     inkscape:zoom="1.4"
     inkscape:cx="-115.80207"
     inkscape:cy="45.42771"
     inkscape:document-units="mm"
     inkscape:current-layer="layer1"
     showgrid="false"
     inkscape:window-width="1366"
     inkscape:window-height="746"
     inkscape:window-x="1352"
     inkscape:window-y="-8"
     inkscape:window-maximized="1"
     fit-margin-top="0"
     fit-margin-left="0"
     fit-margin-right="0"
     fit-margin-bottom="0" />
  <metadata
     id="metadata590">
    <rdf:RDF>
      <cc:Work
         rdf:about="">
        <dc:format>image/svg+xml</dc:format>
        <dc:type
           rdf:resource="http://purl.org/dc/dcmitype/StillImage" />
        <dc:title></dc:title>
      </cc:Work>
    </rdf:RDF>
  </metadata>
  <g
     inkscape:label="Layer 1"
     inkscape:groupmode="layer"
     id="layer1"
     transform="translate(-26.32583,-19.810949)">
    <rect
       style="fill:#000000;stroke:#000000;stroke-width:0.15018477;stroke-miterlimit:4;stroke-dasharray:none;stroke-opacity:1"
       id="rect607"
       width="77.410957"
       height="49.629688"
       x="26.400923"
       y="19.886042" />
    <path
       style="fill:#ffffff;stroke:#000000;stroke-width:0.15018477;stroke-miterlimit:4;stroke-dasharray:none;stroke-opacity:1"
       id="path625"
       d="m 31.454348,25.210561 c 0.128894,0.698793 0.275024,1.391161 0.386753,2.095766 0.04531,0.535041 0.153106,1.051237 0.231753,1.577086 0.06115,0.472366 0.06234,0.95116 0.122859,1.42349 0.0845,0.614157 0.178768,1.225568 0.294457,1.830016 0.121573,0.639218 0.311214,1.24634 0.441147,1.881706 0.106788,0.461355 0.267993,0.891188 0.418145,1.32695 0.206207,0.610624 0.421344,1.215544 0.648924,1.811622 0.287657,0.757003 0.558614,1.526096 0.860919,2.272324 0.282843,0.72949 0.563431,1.460545 0.846587,2.189825 0.254273,0.620073 0.52544,1.226239 0.787012,1.840264 0.245086,0.612014 0.442005,1.256263 0.662857,1.884521 0.212687,0.653265 0.475632,1.265663 0.650573,1.941667 0.141831,0.470014 0.27946,0.943906 0.392958,1.428636 0.108332,0.501946 0.132871,1.025395 0.143117,1.545844 0.0077,0.63099 0.0061,1.262197 0.003,1.893248 -0.0017,0.869383 -0.0016,1.735848 -0.05488,2.602522 -0.06094,0.838362 -0.157621,1.673002 -0.262725,2.502987 -0.07799,0.659087 -0.197061,1.302066 -0.37122,1.924646 -0.175423,0.540088 -0.339147,1.088763 -0.525373,1.62203 -0.135959,0.407793 -0.343187,0.748032 -0.55267,1.085023 -0.211588,0.313189 -0.430002,0.62159 -0.664681,0.90199 -1.081191,0.967069 -2.180055,1.918179 -3.38829,2.536442 -0.391564,0.190045 -0.804127,0.218399 -1.214505,0.237379 -0.423363,0.01798 -0.836177,0.05909 -1.240767,-0.13319 -0.436492,-0.20773 -0.807458,-0.648005 -1.078152,-1.156806 -0.319699,-0.59199 -0.406161,-1.304806 -0.465852,-2.019412 -0.05217,-0.732122 -0.04662,-1.468756 -0.04496,-2.203489 0.0061,-0.696058 -0.01591,-1.393186 0.01661,-2.08813 0.0619,-0.404155 0.17851,-0.872917 0.45688,-1.095232 2.44417,-1.951963 1.581257,-1.688381 2.732063,-1.996111 0.448993,-0.08093 0.892357,-0.0975 1.336033,0.02535 0.441001,0.103423 0.847431,0.366427 1.263851,0.578323 0.506972,0.313097 1.008385,0.656868 1.484766,1.052655 0.411286,0.397952 0.841532,0.751472 1.276098,1.097169 0.484601,0.344764 0.964117,0.700609 1.44393,1.058488 0.388187,0.236053 0.74872,0.54309 1.110336,0.845954 0.296885,0.257834 0.620939,0.437263 0.931928,0.659007 0.550281,0.344021 1.109929,0.651241 1.680773,0.923004 0.524305,0.309946 1.056808,0.581218 1.620926,0.706061 0.447269,0.0032 0.861654,0.223262 1.291236,0.364308 0.437452,0.106841 0.873867,0.231219 1.300594,0.403822 0.493563,0.251026 1.002701,0.434675 1.501146,0.665556 0.555793,0.251851 1.119574,0.468873 1.672777,0.731594 0.433666,0.255535 0.906877,0.283565 1.357905,0.434549 0.408883,0.13151 0.827159,0.180878 1.245399,0.2082 0.425324,-6.69e-4 0.841765,0.01533 1.261297,0.11085 0.45176,0.202454 0.916552,0.308116 1.388175,0.365018 0.531202,0.105692 1.054306,0.264318 1.581763,0.398455 0.464565,0.10581 0.935301,0.133485 1.405184,0.146483 0.442199,0.137612 0.894579,0.171536 1.341005,0.266912 0.670596,0.144273 1.348592,0.195115 2.026046,0.226209 0.552469,0.01798 1.105146,0.01975 1.657741,0.0224 0.668101,0.0027 1.336235,0.0019 2.004349,5.28e-4 0.593399,-0.0027 1.186795,-0.0027 1.780192,-0.0068 0.481448,-6.69e-4 0.962886,-0.0013 1.444329,-0.0019 0.415993,-0.0013 0.831981,-0.0027 1.247975,-0.0032 0.403896,-5.28e-4 0.807778,0.0019 1.211672,0.0013 0.389968,0.02093 0.767762,0.0041 1.149966,-0.0975 0.42399,-0.107313 0.856306,-0.12479 1.286105,-0.141708 0.423843,0.0047 0.837545,-0.0041 1.253933,-0.110585 0.368257,-0.09809 0.742624,-0.129388 1.11661,-0.147367 0.430004,-0.112854 0.855756,-0.25303 1.287838,-0.351265 0.508193,-0.219784 1.029133,-0.318149 1.558337,-0.364832 0.705497,0.0019 1.404405,-0.06779 2.105591,-0.168883 0.656754,-0.100417 1.31733,-0.104307 1.977139,-0.108669 0.789398,0.0168 1.573921,-0.131599 2.360271,-0.206639 0.755778,-0.05426 1.513144,-0.04613 2.269718,-0.04913 0.622609,-0.0047 1.245202,-0.01179 1.867814,-0.01621 0.356313,0.05739 0.687785,-0.107283 1.034225,-0.182942 0.338637,-0.09196 0.669796,-0.2166 1.015385,-0.272954 0.322615,-0.06298 0.629852,-0.205813 0.956987,-0.258423 0.329586,-0.08833 0.628806,-0.283624 0.947861,-0.415188 0.05296,-0.01562 0.106975,-0.02535 0.158884,-0.0468 0.299969,-0.123612 0.004,-0.04586 0.318978,-0.153144 0.217062,-0.07389 0.438947,-0.09532 0.657165,-0.166142 0.451821,-0.103806 0.904496,-0.242154 1.331906,-0.473781 0.440443,-0.25919 0.883599,-0.510328 1.328589,-0.754103 0.447362,-0.23231 0.9073,-0.458552 1.322621,-0.788705 0.36963,-0.264377 0.76186,-0.483622 1.163567,-0.636457 0.193692,-0.02712 0.363215,-0.13487 0.534844,-0.25191 0,0 -2.115844,2.306508 -2.115844,2.306508 v 0 c -0.181739,0.08547 -0.365153,0.156387 -0.550174,0.227123 -0.386054,0.189426 -0.767077,0.400919 -1.125628,0.677021 -0.438414,0.280175 -0.886158,0.532454 -1.339338,0.763211 -0.446227,0.255181 -0.894184,0.505617 -1.34501,0.744589 -0.442836,0.176988 -0.889611,0.322549 -1.343954,0.431957 -0.384255,0.102598 -0.759686,0.237056 -1.130184,0.412508 -0.316873,0.160572 -0.641359,0.288399 -0.975077,0.36393 -0.319076,0.08267 -0.629611,0.221111 -0.955071,0.253944 -0.340422,0.08208 -0.671563,0.219578 -1.014121,0.285687 -0.348642,0.09429 -0.693845,0.158243 -1.05096,0.118631 -0.611868,-0.0059 -1.223733,-0.01503 -1.835627,-0.01356 -0.759176,0.0068 -1.51895,0.01474 -2.276719,0.08583 -0.784364,0.07634 -1.568618,0.177902 -2.355634,0.17634 -0.659694,0.02004 -1.319447,0.05199 -1.976231,0.14551 -0.703907,0.08618 -1.408466,0.119722 -2.113844,0.17133 -0.523885,0.07463 -1.034357,0.227064 -1.546033,0.397317 -0.438526,0.122197 -0.875633,0.274281 -1.322401,0.32486 -0.368121,0.03042 -0.7341,0.08695 -1.097227,0.177607 -0.42047,0.07486 -0.843796,0.04327 -1.266687,0.06903 -0.426963,0.02712 -0.853188,0.07436 -1.27358,0.186096 -0.389093,0.07156 -0.780682,0.04312 -1.172365,0.04598 -0.404845,-5.28e-4 -0.809677,0.0019 -1.21452,0.0013 -0.413721,-6.66e-4 -0.827445,-0.0027 -1.241168,-0.0032 -0.480248,-1.8e-4 -0.960486,-0.0013 -1.440734,-0.0019 -0.589188,-0.0041 -1.178374,-0.0041 -1.767562,-0.0053 -0.669854,-5.27e-4 -1.339722,0.0013 -2.009564,0.0041 -0.554323,0.0013 -1.10896,0.0053 -1.662701,-0.03661 -0.682751,-0.0496 -1.365026,-0.116303 -2.042333,-0.249729 -0.447904,-0.06617 -0.89347,-0.145924 -1.339976,-0.223026 -0.476334,-0.02829 -0.952558,-0.07937 -1.421669,-0.202601 -0.520275,-0.144656 -1.04129,-0.28327 -1.568609,-0.370777 -0.475356,-0.07542 -0.937042,-0.224175 -1.402741,-0.371351 -0.415076,-0.07416 -0.832338,-0.04834 -1.249517,-0.084 -0.426566,-0.04524 -0.850565,-0.122551 -1.268212,-0.253796 -0.461426,-0.117717 -0.920561,-0.244954 -1.359537,-0.483457 -0.556132,-0.250525 -1.117654,-0.477135 -1.6743,-0.72549 -0.50042,-0.215363 -1.001913,-0.425998 -1.502189,-0.641762 -0.429699,-0.144361 -0.860328,-0.280057 -1.293785,-0.400751 -0.426419,-0.149254 -0.849352,-0.28716 -1.288305,-0.344749 -0.558807,-0.174689 -1.084248,-0.479584 -1.614732,-0.773959 -0.585805,-0.274958 -1.163926,-0.584306 -1.728463,-0.93421 -0.3259,-0.206874 -0.645467,-0.420192 -0.948332,-0.688133 -0.353171,-0.306288 -0.72146,-0.576094 -1.091593,-0.841129 -0.477135,-0.371127 -0.968681,-0.699271 -1.448973,-1.06186 -0.435353,-0.345355 -0.858251,-0.716347 -1.275059,-1.103119 -0.469275,-0.375162 -0.954861,-0.720551 -1.458644,-0.997817 -0.407197,-0.211 -0.816223,-0.421942 -1.249247,-0.507943 -0.419839,-0.0804 -0.849563,-0.03493 -1.261885,0.09768 -0.98132,0.470775 -0.117572,0.07648 1.910112,-1.615537 0.05996,-0.05005 -0.133573,0.06284 -0.193623,0.112589 -0.10887,0.09019 -0.215401,0.25418 -0.279034,0.403454 -0.03631,0.08518 -0.05813,0.180702 -0.08719,0.271068 -0.06304,0.682568 -0.01544,1.375611 -0.03556,2.062281 7.72e-4,0.722593 -0.003,1.446162 0.03303,2.167467 0.04562,0.650507 0.110134,1.303374 0.405246,1.839364 0.246195,0.4517 0.586273,0.799982 0.985437,0.945767 0.391334,0.106163 0.791791,0.05305 1.188204,0.03885 0.397771,-0.03879 0.792692,-0.114976 1.162843,-0.333051 0.01988,-0.0112 0.376852,-0.214803 0.393559,-0.224912 0.06323,-0.0382 0.247323,-0.168529 0.187938,-0.119928 -3.69941,3.026351 -2.626236,2.100577 -1.82837,1.469089 0.279872,-0.188777 0.455183,-0.546512 0.696873,-0.809006 0.202792,-0.327734 0.417665,-0.629286 0.582968,-0.997761 0.1863,-0.533888 0.367904,-1.069354 0.542613,-1.611611 0.195471,-0.592373 0.315261,-1.22027 0.400998,-1.85958 0.12604,-0.815364 0.206535,-1.649423 0.282201,-2.475904 0.06375,-0.853013 0.06871,-1.705316 0.05226,-2.562582 -0.0013,-0.62592 0.0023,-1.251896 -0.0063,-1.877751 -0.01146,-0.486823 -0.02035,-0.978627 -0.112683,-1.451971 -0.107023,-0.484786 -0.250322,-0.953261 -0.380143,-1.427125 -0.158908,-0.66903 -0.422344,-1.264775 -0.627405,-1.90687 -0.220946,-0.61821 -0.422798,-1.248801 -0.656108,-1.858735 -0.259981,-0.620945 -0.54114,-1.224866 -0.787429,-1.857007 C 33.104971,42.729354 32.822007,42.00323 32.54553,41.271809 32.242492,40.523592 31.967156,39.755801 31.676247,38.998913 31.439874,38.402708 31.222382,37.793497 31.003675,37.184775 30.846733,36.72818 30.671733,36.282028 30.566744,35.794967 30.44861,35.153332 30.260108,34.54443 30.129431,33.907658 30.014479,33.295549 29.910498,32.6796 29.815708,32.061429 c -0.06646,-0.471252 -0.08562,-0.941873 -0.124427,-1.418416 -0.07058,-0.529397 -0.183938,-1.045746 -0.214512,-1.584999 -0.09811,-0.692109 -0.23717,-1.370727 -0.392132,-2.042201 0,0 2.369671,-1.80509 2.369671,-1.80509 z"
       inkscape:connector-curvature="0" />
    <path
       style="fill:#ffffff;stroke:#000000;stroke-width:0.15018477;stroke-miterlimit:4;stroke-dasharray:none;stroke-opacity:1"
       id="path627"
       d="m 47.95756,32.150067 c -0.493196,0.749352 -0.963172,1.52699 -1.440238,2.295839 -0.500682,0.844533 -0.926824,1.763364 -1.369981,2.664861 -0.500845,0.998648 -0.950691,2.040722 -1.404253,3.080615 -0.32348,0.810695 -0.64651,1.622286 -0.955622,2.443727 -0.257392,0.674148 -0.470264,1.381618 -0.631766,2.110385 -0.123584,0.622569 -0.150018,1.26877 -0.164475,1.910679 -0.0061,0.546185 -0.0051,1.092512 -0.0049,1.638759 -0.02814,0.5757 0.08702,1.119133 0.201178,1.663921 0.159469,0.446886 0.24605,0.927124 0.344003,1.403911 0.105689,0.504274 0.256884,0.972814 0.499973,1.377916 0.16782,0.407822 0.401713,0.743867 0.613832,1.104746 0.190512,0.339497 0.439002,0.584374 0.672774,0.85874 0.270493,0.267973 0.606206,0.384464 0.926686,0.486917 0.447558,0.212681 0.914091,0.298906 1.383395,0.350366 0.490691,0.04067 0.982525,0.0374 1.47388,0.03973 0.456934,-6.67e-4 0.913859,-0.0053 1.370792,-0.0077 0.610461,-0.120016 1.184372,-0.444136 1.754331,-0.75649 0.722827,-0.398723 1.426319,-0.838786 2.117306,-1.33151 -4.026168,3.028447 -2.049965,1.873174 -1.345144,0.877798 0.259658,-0.432615 0.371252,-0.957238 0.472208,-1.489396 0.127327,-0.647969 0.264898,-1.28811 0.342862,-1.951742 0.06976,-0.665541 0.07446,-1.338886 0.07736,-2.009957 0.01403,-0.559646 -0.07759,-1.108917 -0.129199,-1.661138 -0.0881,-0.424215 -0.145293,-0.857611 -0.215658,-1.28742 -0.11004,-0.466802 -0.128357,-0.959139 -0.198863,-1.436312 -0.09088,-0.487436 -0.191049,-0.970648 -0.28292,-1.45796 -0.127093,-0.596048 -0.280127,-1.175866 -0.369445,-1.786907 -0.08113,-0.529639 -0.197038,-1.045773 -0.301835,-1.56665 -0.109689,-0.537419 -0.25723,-1.0534 -0.426152,-1.559714 -0.11769,-0.483884 -0.351171,-0.864042 -0.617997,-1.204882 -0.332021,-0.456954 -0.702126,-0.868266 -1.109889,-1.187594 -0.42775,-0.367564 -0.87106,-0.698651 -1.301215,-1.058747 -0.32519,-0.297364 -0.687244,-0.482195 -1.042712,-0.695483 -0.234171,-0.14445 -0.484439,-0.216896 -0.73344,-0.291493 0,0 2.204814,-2.108455 2.204814,-2.108455 v 0 c 0.258344,0.09261 0.516968,0.186332 0.761687,0.337207 0.371818,0.205813 0.735429,0.425261 1.069441,0.735909 0.430882,0.354162 0.856746,0.718844 1.290889,1.065549 0.415625,0.35464 0.804751,0.765737 1.147077,1.249512 0.290286,0.376765 0.553027,0.792315 0.677393,1.326496 0.171002,0.526453 0.327341,1.059024 0.448097,1.612156 0.101454,0.532457 0.225109,1.055402 0.308783,1.594605 0.07635,0.606075 0.2256,1.175819 0.354867,1.762035 0.103957,0.488093 0.205974,0.975862 0.301379,1.46682 0.08003,0.471299 0.07911,0.965463 0.194254,1.428179 0.08599,0.439592 0.124356,0.896036 0.22808,1.330741 0.0465,0.569885 0.144685,1.135001 0.136544,1.709987 -0.0054,0.686029 -0.0033,1.37509 -0.06035,2.057398 -0.06985,0.677923 -0.193202,1.330858 -0.326064,1.988798 -0.116145,0.558874 -0.181154,1.129905 -0.420013,1.625847 -0.728991,1.483864 -2.443099,1.621181 -3.221397,2.897555 -0.687595,0.481945 -1.403815,0.873662 -2.115486,1.281844 -0.595072,0.314662 -1.202712,0.655726 -1.847985,0.683201 -0.45412,-5.27e-4 -0.908233,-0.0013 -1.362351,-0.0027 -0.497575,-0.0013 -0.99585,-0.0047 -1.49193,-0.06437 -0.479258,-0.07436 -0.95006,-0.19927 -1.412346,-0.392425 -0.354332,-0.136433 -0.715098,-0.279026 -0.999735,-0.617629 -0.252121,-0.281059 -0.495315,-0.567786 -0.698131,-0.920393 -0.217109,-0.358792 -0.440125,-0.708767 -0.615735,-1.11177 -0.250761,-0.455922 -0.428215,-0.959751 -0.547317,-1.508999 -0.09818,-0.476495 -0.19119,-0.953954 -0.345283,-1.403366 -0.115233,-0.575175 -0.254357,-1.1501 -0.232267,-1.756137 -0.0023,-0.549699 -0.0084,-1.099465 1.28e-4,-1.64914 0.01357,-0.670271 0.04106,-1.342317 0.142907,-1.999889 0.147656,-0.755246 0.362624,-1.4827 0.617938,-2.180753 0.307314,-0.838783 0.652417,-1.649084 0.967724,-2.482249 0.467192,-1.030709 0.900889,-2.089003 1.395303,-3.096168 0.455592,-0.900504 0.87102,-1.837847 1.362658,-2.703781 0.468708,-0.746508 0.918033,-1.519595 1.394054,-2.25363 0,0 2.487441,-1.46989 2.487441,-1.46989 z"
       inkscape:connector-curvature="0" />
    <path
       style="fill:#ffffff;stroke:#000000;stroke-width:0.15018477;stroke-miterlimit:4;stroke-dasharray:none;stroke-opacity:1"
       id="path631"
       d="m 65.997115,39.670034 c 0.07605,-0.751362 -0.08061,-1.382411 -0.315394,-2.043566 -0.166276,-0.630542 -0.537348,-0.980433 -0.928209,-1.324174 -0.342258,-0.27372 -0.685812,-0.535828 -1.050932,-0.747716 -0.344308,-0.177519 -0.712239,-0.194879 -1.075067,-0.212121 -0.501743,0.0059 -1.009277,-0.06425 -1.507151,0.03546 -0.261824,0.09865 -0.541684,0.085 -0.805113,0.163224 -0.104145,0.03092 -0.201787,0.0944 -0.303307,0.138997 -0.242916,0.02594 -0.422856,0.252942 -0.638585,0.372772 -0.448737,0.249287 0.05228,-0.08913 -0.363882,0.205666 0.510775,-0.432005 -1.031362,0.753747 -0.511662,0.335662 3.764755,-3.02862 2.6797,-2.142223 1.889822,-1.48181 -0.254923,0.24071 -0.457021,0.547656 -0.650402,0.8748 -0.194582,0.360927 -0.296558,0.783751 -0.388167,1.209549 -0.138602,0.5912 -0.269614,1.180419 -0.345201,1.793733 -0.08431,0.557707 -0.172194,1.112374 -0.218536,1.679023 -0.0345,0.500115 -0.0363,1.002951 -0.0382,1.504873 -0.0051,0.522085 -0.008,1.040871 0.04138,1.559063 0.07233,0.623821 0.189107,1.23379 0.249555,1.861001 0.05284,0.620057 0.06908,1.244468 0.07214,1.868325 0.0054,0.642732 -0.0012,1.285431 -0.0023,1.928151 -5.29e-4,0.620001 0.0049,1.239985 0.0022,1.859981 -0.01287,0.556345 0.01053,1.1147 0.117432,1.653012 0.106461,0.457311 0.269102,0.88684 0.43094,1.310752 0.220525,0.400197 0.389585,0.844763 0.603234,1.251657 0.25082,0.436883 0.587955,0.712593 0.915817,1.016323 0.269888,0.19367 0.526299,0.41756 0.823669,0.520638 0.322477,0.08152 0.651932,0.08002 0.978606,0.08394 0.432087,6.63e-4 0.864176,0.0027 1.296263,0.0041 0.323941,6.66e-4 0.654625,0.01621 0.971873,-0.09579 0.128661,-0.04548 0.250372,-0.122992 0.377418,-0.176487 0.841931,-0.546203 2.07751,-1.546931 -1.757728,1.419022 -0.232174,0.179553 0.275116,-0.271775 0.425562,-0.455238 0.254725,-0.284272 0.524454,-0.542139 0.793792,-0.799454 0.830228,-0.66133 1.657253,-1.330414 2.490679,-1.983997 0.128006,-0.100387 0.523354,-0.371997 0.395956,-0.270095 -0.700521,0.560252 -2.806613,2.230139 -2.105518,1.671256 0.921184,-0.734326 5.276695,-4.187975 0.366619,-0.293674 0.249209,-0.242567 0.467457,-0.547258 0.659283,-0.873804 0.188078,-0.440702 0.26104,-0.952645 0.367052,-1.438038 0.115256,-0.496735 0.159282,-1.013305 0.183259,-1.531393 0.01404,-0.469042 0.03567,-0.937367 -0.02704,-1.400622 -0.08057,-0.398453 -0.279457,-0.655571 -0.490681,-0.927249 -0.352609,-0.440926 -0.772988,-0.570091 -1.230079,-0.661099 -0.57792,-0.08748 -1.160062,-0.09045 -1.740712,-0.08989 -0.423988,0.0032 -0.847955,0.0088 -1.271943,0.01149 -0.365675,0.0019 -0.731354,0.0021 -1.09703,0.0023 0,0 2.18169,-2.192555 2.18169,-2.192555 v 0 c 0.365104,-1.77e-4 0.730205,-7.34e-4 1.095306,-0.0019 0.420734,-0.0013 0.841487,-0.0032 1.262212,0.0029 0.587728,0.01179 1.17712,0.02682 1.759992,0.142799 0.498097,0.129241 0.956732,0.333572 1.333899,0.825252 0.253939,0.323607 0.475155,0.658827 0.580133,1.12602 0.07521,0.492912 0.07203,0.985114 0.05308,1.487693 -0.01778,0.543202 -0.04952,1.08779 -0.158954,1.612902 -0.108613,0.507817 -0.203775,1.019329 -0.325282,1.52187 -0.145293,0.411701 -0.405044,0.695277 -0.626507,1.028295 -0.82372,0.666815 -1.661146,1.302272 -2.471167,2.000464 -0.688212,0.593192 2.813989,-2.231147 2.10557,-1.685342 -0.839983,0.647167 -1.665024,1.330799 -2.500322,1.989479 -0.127701,0.100711 -0.518104,0.384231 -0.391039,0.282002 0.704234,-0.566633 1.410892,-1.127485 2.116336,-1.691227 -0.293056,0.192638 -0.526788,0.511999 -0.80633,0.735529 -0.179657,0.201981 -0.09168,0.09172 -0.262482,0.332965 -0.880207,1.045817 -1.941553,1.85243 -3.039793,2.37717 -0.453056,0.176694 -0.916702,0.200361 -1.385812,0.178639 -0.437507,0.0041 -0.875072,0.01208 -1.312563,0.0041 -0.345084,-0.01238 -0.695055,-0.02505 -1.027619,-0.167173 -0.303082,-0.155505 -0.584091,-0.383353 -0.859859,-0.614408 -0.353588,-0.32338 -0.695341,-0.667377 -0.962693,-1.130406 -0.223191,-0.419131 -0.40445,-0.87299 -0.624153,-1.295407 -0.173973,-0.444756 -0.346902,-0.897693 -0.461365,-1.378803 -0.119584,-0.566513 -0.159095,-1.160213 -0.145457,-1.749179 -0.0023,-0.621626 0.0033,-1.243233 0.0042,-1.864859 6.3e-5,-0.640038 -0.0033,-1.28007 -0.0023,-1.92011 -0.0058,-0.611066 -0.0068,-1.223395 -0.05369,-1.83184 -0.05668,-0.626707 -0.170019,-1.23385 -0.252633,-1.853103 -0.05951,-0.533753 -0.08185,-1.062351 -0.06501,-1.603214 7.7e-4,-0.512965 6.27e-4,-1.026579 0.02779,-1.538475 0.03787,-0.57593 0.109502,-1.143876 0.219541,-1.702422 0.06604,-0.629421 0.178535,-1.234386 0.318115,-1.838937 0.109595,-0.442029 0.170136,-0.904651 0.34685,-1.312075 0.171119,-0.374092 0.374557,-0.699085 0.620565,-0.981942 0.164732,-0.205018 0.0695,-0.107962 0.265787,-0.2637 0.990565,-0.785996 1.933609,-1.658898 2.976827,-2.288275 0.341914,-0.191931 0.668083,-0.437752 1.033565,-0.539135 0.36803,-0.126324 0.75044,-0.160808 1.125153,-0.234757 0.510937,-0.03136 1.023004,-0.01297 1.53413,0.0023 0.38917,0.03289 0.777447,0.09169 1.13608,0.320954 0.367883,0.236849 0.719669,0.508377 1.063745,0.806124 0.424222,0.386292 0.820265,0.814612 1.000766,1.499173 0.244006,0.700482 0.44187,1.381552 0.392165,2.177797 0,0 -2.407871,1.696919 -2.407871,1.696919 z"
       inkscape:connector-curvature="0" />
    <path
       style="fill:#ffffff;stroke:#000000;stroke-width:0.15018477;stroke-miterlimit:4;stroke-dasharray:none;stroke-opacity:1"
       id="path633"
       d="m 74.804483,32.768383 c 0.154486,0.897029 0.271499,1.80499 0.398473,2.70992 0.186675,0.889785 0.339494,1.788102 0.413218,2.709603 0.08922,0.895738 0.226373,1.779156 0.311794,2.675743 0.125479,1.037063 0.203986,2.082986 0.2541,3.131727 0.0371,0.775831 0.0441,1.553445 0.04997,2.33067 0.0049,0.583564 0.0033,1.167104 -0.0014,1.750647 -0.0019,0.621154 4.81e-4,1.242311 0.0023,1.863462 0.0014,0.518689 0.0014,1.037382 0.0019,1.556074 1.15e-4,0.502956 8.6e-5,1.005919 7.5e-5,1.508878 -1.4e-5,0.503567 -1.9e-5,1.007133 -2.4e-5,1.5107 -0.0042,0.572932 -0.0023,1.145921 -0.0014,1.718874 0.02781,0.534366 -0.04066,1.057076 -0.09958,1.582022 0,0 -2.419986,1.643711 -2.419986,1.643711 v 0 c 0.05254,-0.511112 0.148381,-1.014304 0.119842,-1.534541 9.64e-4,-0.572251 0.0028,-1.144535 -0.0014,-1.716766 -5e-6,-0.503561 -9e-6,-1.007113 -2.3e-5,-1.510668 -1.7e-5,-0.502991 -4.9e-5,-1.00598 5.6e-5,-1.508975 1.26e-4,-0.519521 3.81e-4,-1.03905 0.0019,-1.558579 0.0014,-0.622655 0.0049,-1.245312 0.0033,-1.867975 -0.004,-0.583113 -0.0023,-1.16616 0.0019,-1.749273 0.0028,-0.775754 0.0019,-1.551753 -0.02175,-2.326983 -0.04014,-1.042006 -0.106227,-2.081917 -0.246397,-3.108617 -0.08255,-0.899555 -0.229928,-1.780745 -0.320381,-2.678446 -0.06899,-0.91344 -0.201179,-1.807916 -0.391608,-2.688487 -0.129245,-0.882573 -0.233982,-1.774697 -0.423983,-2.637631 0,0 2.369666,-1.80509 2.369666,-1.80509 z"
       inkscape:connector-curvature="0" />
    <path
       style="fill:#ffffff;stroke:#000000;stroke-width:0.15018477;stroke-miterlimit:4;stroke-dasharray:none;stroke-opacity:1"
       id="path639"
       d="m 81.50247,61.060834 c 0.217577,-0.841079 0.546735,-1.615036 0.86118,-2.391937 0.323349,-0.721143 0.60994,-1.471553 0.885552,-2.229063 0.250132,-0.582794 0.44371,-1.204001 0.631215,-1.828601 0.194792,-0.715121 0.361253,-1.444222 0.548382,-2.1639 0.214606,-0.77497 0.443369,-1.539917 0.588065,-2.34681 0.08173,-0.553618 0.16485,-1.107025 0.252056,-1.659019 0.133456,-0.635726 0.177271,-1.293418 0.204336,-1.951282 0.01942,-0.589358 0.01918,-1.179467 0.01872,-1.769297 -9.62e-4,-0.508288 -0.0019,-1.01657 -0.0023,-1.524859 -0.0117,-0.484279 0.02129,-0.972283 -0.01567,-1.454635 -0.0396,-0.376052 -0.126976,-0.740725 -0.25174,-1.078942 -0.132567,-0.333466 -0.18485,-0.710889 -0.330982,-1.034608 -0.171283,-0.420021 -0.277294,-0.881417 -0.459503,-1.292122 -0.154557,-0.38541 -0.295506,-0.774478 -0.508549,-1.105232 -0.229039,-0.235906 -0.419443,-0.54109 -0.673655,-0.726342 -0.272538,-0.197208 -0.554841,-0.388078 -0.847136,-0.525772 -0.198021,-0.203132 -0.481703,-0.234079 -0.652992,-0.483681 1.676788,-1.640701 1.798621,-2.566741 2.988401,-1.624235 0.249122,0.174955 0.475539,0.423213 0.669905,0.700612 0.203167,0.287897 0.403021,0.585795 0.623216,0.849659 0.220828,0.2894 0.444477,0.579602 0.646842,0.894521 0.23208,0.337439 0.455259,0.687449 0.681183,1.034249 0.310916,0.429953 0.539242,0.950267 0.788364,1.446379 0.25239,0.472903 0.476187,0.976525 0.691784,1.482426 0.229507,0.508848 0.448612,1.025687 0.66471,1.545617 0.202956,0.465437 0.422706,0.915851 0.658789,1.35057 0.231238,0.440019 0.424196,0.914077 0.587672,1.407849 0.172148,0.430735 0.310002,0.887091 0.481198,1.318338 0.161621,0.392982 0.256762,0.827996 0.390328,1.23792 0.157387,0.563786 0.298619,1.140483 0.424781,1.720203 0.173809,0.582101 0.284595,1.189992 0.350186,1.81163 0.09589,0.537832 0.228548,1.049274 0.292782,1.598504 0.143562,0.873341 0.205553,1.762103 0.251216,2.653614 -0.0033,0.776438 0.08555,1.540453 0.150626,2.30868 0.02814,0.317689 0.04077,0.637223 0.05727,0.956244 0.004,0.07551 0.0054,0.151465 0.01333,0.226386 0.0019,0.01798 0.01778,0.06823 0.01567,0.05025 -0.0077,-0.06652 -0.02175,-0.131364 -0.03254,-0.19706 -0.764434,0.579635 -1.523603,1.172756 -2.293305,1.738907 -0.03446,0.02535 0.06283,-0.0677 0.08347,-0.113473 0.02852,-0.06325 0.04318,-0.136698 0.06108,-0.207022 0.08639,-0.339717 0.159047,-0.689005 0.235661,-1.033102 0.137995,-0.796286 0.330606,-1.570652 0.506277,-2.351844 0.131445,-0.729941 0.311223,-1.438416 0.471553,-2.156361 0.152077,-0.746511 0.316835,-1.487377 0.494368,-2.223059 0.175727,-0.650616 0.377331,-1.282728 0.496468,-1.958921 0.135328,-0.840402 0.328564,-1.659394 0.530945,-2.472594 0.205529,-0.864812 0.437114,-1.717872 0.638105,-2.584617 0.118134,-0.627382 0.313686,-1.21707 0.464027,-1.828681 0.110087,-0.441539 0.28779,-0.843779 0.435918,-1.263063 0.127936,-0.422343 0.259053,-0.842426 0.388296,-1.264074 0.123935,-0.38371 0.269487,-0.753092 0.408078,-1.126837 0.144849,-0.38938 0.325556,-0.746696 0.47301,-1.136009 0.1885,-0.580106 0.426143,-1.12368 0.673569,-1.658235 0.121853,-0.247784 0.26021,-0.478623 0.394698,-0.713188 0,0 2.47562,-1.46155 2.47562,-1.46155 v 0 c -0.135862,0.229658 -0.263094,0.469201 -0.411449,0.684177 -0.251512,0.514852 -0.494627,1.037164 -0.676223,1.605092 -0.126813,0.399322 -0.268197,0.785425 -0.471345,1.120969 -0.10639,0.392769 -0.27141,0.751898 -0.416298,1.119011 -0.118906,0.433505 -0.264005,0.849925 -0.384111,1.280471 -0.130111,0.42285 -0.284012,0.825709 -0.451605,1.220627 -0.128895,0.632304 -0.366152,1.205519 -0.487222,1.842863 -0.186183,0.876353 -0.440526,1.722968 -0.636986,2.595463 -0.193155,0.803365 -0.400294,1.599984 -0.535242,2.427871 -0.09315,0.697243 -0.271107,1.349739 -0.481252,1.995772 -0.179095,0.731721 -0.357938,1.462487 -0.501364,2.209658 -0.141387,0.729233 -0.359595,1.425429 -0.468905,2.168064 -0.188336,0.772633 -0.375031,1.549505 -0.512754,2.342604 -0.06648,0.34283 -0.15203,0.678203 -0.212852,1.022858 -0.298219,1.689553 0.300416,0.467275 -2.491123,2.392075 -0.04761,-0.06546 -0.104099,-0.120547 -0.142884,-0.196353 -0.108168,-0.211442 -0.02082,-1.047765 -0.08754,-1.33018 -0.06272,-0.777647 -0.149269,-1.551276 -0.141105,-2.336426 -0.03619,-0.879009 -0.09858,-1.755112 -0.249471,-2.612791 -0.06824,-0.551977 -0.215027,-1.05857 -0.309218,-1.600741 -0.05109,-0.607635 -0.150135,-1.200326 -0.320477,-1.767211 -0.119187,-0.564517 -0.274223,-1.113974 -0.424138,-1.663139 -0.13107,-0.402007 -0.225834,-0.826947 -0.380505,-1.215051 -0.16969,-0.441708 -0.30942,-0.905467 -0.485648,-1.342978 -0.155398,-0.46981 -0.333135,-0.923909 -0.557191,-1.33896 -0.243842,-0.446038 -0.462254,-0.915598 -0.672219,-1.393057 -0.215846,-0.518212 -0.431043,-1.036253 -0.664876,-1.539598 -0.214956,-0.496531 -0.426839,-0.998978 -0.679028,-1.461444 -0.243534,-0.482065 -0.46556,-0.989269 -0.773463,-1.401426 -0.230069,-0.343196 -0.459208,-0.687564 -0.691483,-1.027453 -0.201389,-0.300452 -0.410801,-0.593074 -0.633255,-0.863488 -0.214489,-0.280882 -0.422756,-0.571087 -0.630753,-0.860997 -0.186956,-0.240357 -0.390429,-0.458396 -0.624079,-0.60546 -1.233286,-0.750071 -1.267171,-0.0032 1.591857,-2.409108 0.177037,0.129301 0.386856,0.25191 0.576135,0.378302 0.298329,0.173186 0.598045,0.351365 0.876246,0.580566 0.257324,0.241004 0.483886,0.539232 0.715149,0.825293 0.218864,0.35128 0.367897,0.75769 0.528182,1.162373 0.182488,0.411698 0.289491,0.870724 0.467368,1.28699 0.145644,0.336443 0.216571,0.709569 0.340703,1.059522 0.138322,0.374921 0.240997,0.776836 0.290995,1.192654 0.05748,0.495624 0.01638,1.001062 0.02882,1.501578 3.81e-4,0.508943 9.64e-4,1.017882 9.64e-4,1.526822 -9.64e-4,0.59838 -0.0033,1.196942 -0.02339,1.794809 -0.02505,0.673496 -0.04723,1.35187 -0.169856,2.008015 -0.113923,0.542389 -0.168334,1.111711 -0.263927,1.660749 -0.135281,0.825842 -0.360993,1.606846 -0.587429,2.391804 -0.185552,0.721314 -0.362479,1.444833 -0.527235,2.174387 -0.198067,0.627954 -0.358792,1.281087 -0.631831,1.858249 -0.286667,0.757657 -0.550686,1.535675 -0.891447,2.251032 -0.31305,0.741474 -0.638514,1.491534 -0.846696,2.302043 0,0 -2.448692,1.590588 -2.448692,1.590588 z"
       inkscape:connector-curvature="0" />
  </g>
</svg>
