<?xml version="1.0" encoding="UTF-8" standalone="no"?>
<!-- Created with Inkscape (http://www.inkscape.org/) -->

<svg
   xmlns:dc="http://purl.org/dc/elements/1.1/"
   xmlns:cc="http://creativecommons.org/ns#"
   xmlns:rdf="http://www.w3.org/1999/02/22-rdf-syntax-ns#"
   xmlns:svg="http://www.w3.org/2000/svg"
   xmlns="http://www.w3.org/2000/svg"
   xmlns:sodipodi="http://sodipodi.sourceforge.net/DTD/sodipodi-0.dtd"
   xmlns:inkscape="http://www.inkscape.org/namespaces/inkscape"
   width="55.728928mm"
   height="27.68705mm"
   viewBox="0 0 55.728928 27.68705"
   version="1.1"
   id="svg8"
   sodipodi:docname="PlayPause.svg"
   inkscape:version="0.92.2 (5c3e80d, 2017-08-06)">
  <defs
     id="defs2" />
  <sodipodi:namedview
     id="base"
     pagecolor="#ffffff"
     bordercolor="#666666"
     borderopacity="1.0"
     inkscape:pageopacity="0.0"
     inkscape:pageshadow="2"
     inkscape:zoom="1.979899"
     inkscape:cx="161.37807"
     inkscape:cy="4.9261519"
     inkscape:document-units="mm"
     inkscape:current-layer="layer1"
     showgrid="false"
     inkscape:window-width="1366"
     inkscape:window-height="746"
     inkscape:window-x="1352"
     inkscape:window-y="-8"
     inkscape:window-maximized="1"
     showguides="false"
     fit-margin-top="0"
     fit-margin-left="0"
     fit-margin-right="0"
     fit-margin-bottom="0" />
  <metadata
     id="metadata5">
    <rdf:RDF>
      <cc:Work
         rdf:about="">
        <dc:format>image/svg+xml</dc:format>
        <dc:type
           rdf:resource="http://purl.org/dc/dcmitype/StillImage" />
        <dc:title></dc:title>
      </cc:Work>
    </rdf:RDF>
  </metadata>
  <g
     inkscape:label="Layer 1"
     inkscape:groupmode="layer"
     id="layer1"
     transform="translate(-3.2940783,-3.5907051)">
    <path
       style="fill:#000000;stroke:#000000;stroke-width:0.26499999;stroke-miterlimit:4;stroke-dasharray:none;stroke-opacity:1"
       id="path50"
       d="m 5.1530446,4.4570961 c 0.3414901,0.143325 0.6733718,0.308478 1.0102046,0.462888 0.8944343,0.419043 1.8218353,0.762547 2.7388409,1.128057 1.1562719,0.468936 2.3267799,0.903468 3.4692519,1.406072 0.475313,0.209103 1.355478,0.623299 1.820483,0.840385 2.012674,0.955477 3.995604,1.9712719 5.984267,2.9751769 1.856738,0.914673 3.665333,1.921203 5.48086,2.913796 1.030324,0.580119 2.090237,1.106541 3.122464,1.682843 0.403641,0.219144 0.789983,0.464564 1.160267,0.735324 0.15345,0.102059 0.288787,0.226255 0.434012,0.338665 0,0 -1.184831,0.743892 -1.184831,0.743892 v 0 C 29.049484,17.568318 28.911626,17.451298 28.765891,17.343259 28.413754,17.066825 28.035699,16.828086 27.651053,16.599207 26.64924,16.003113 25.629951,15.436276 24.615383,14.862362 22.822004,13.851343 21.028559,12.838032 19.184081,11.922041 17.189032,10.922079 15.196733,9.9155811 13.176569,8.9669441 12.74101,8.7674241 11.794678,8.3311841 11.347816,8.1371251 10.199463,7.6384281 9.0279161,7.1953341 7.8584833,6.7493241 6.9111112,6.3993781 5.9435257,6.0953751 5.0240052,5.6757931 4.6787327,5.5210301 4.3326643,5.3684281 3.981303,5.2280601 c 0,0 1.1717416,-0.770964 1.1717416,-0.770964 z"
       inkscape:connector-curvature="0" />
    <path
       style="fill:#000000;stroke:#000000;stroke-width:0.26499999;stroke-miterlimit:4;stroke-dasharray:none;stroke-opacity:1"
       id="path54"
       d="m 29.122668,17.791126 c -0.554485,0.471078 -1.044554,1.013664 -1.620541,1.460183 -0.581708,0.450956 -0.975625,0.686308 -1.600181,1.09102 -1.307779,0.810794 -2.667711,1.533728 -4.096752,2.10594 -1.187997,0.475694 -2.413912,0.853834 -3.633531,1.237488 -1.394243,0.447156 -2.817568,0.800105 -4.208464,1.257514 -0.326199,0.114671 -0.64114,0.250651 -0.936263,0.430896 0.36514,-0.20968 1.456391,-0.84581 1.095418,-0.629037 -0.427913,0.256971 -0.860056,0.50704 -1.296269,0.749652 -0.05086,0.02829 -0.398925,0.140981 -0.411755,0.145002 -0.333919,0.104699 -0.454823,0.133284 -0.812553,0.230434 -1.00202,0.252399 -1.9853189,0.570061 -2.9741639,0.868021 -0.4441972,0.105529 -0.8658231,0.272055 -1.2716275,0.478372 -0.4776113,0.209463 -0.9469438,0.439653 -1.4357096,0.622308 -0.54604,0.192556 -1.7006573,0.894887 0.4488092,-0.336079 -0.5448051,0.364538 -1.1199185,0.662657 -1.7118668,0.930823 -0.210861,0.124663 -0.4352131,0.223305 -0.650489,0.339579 -0.131387,0.07161 -0.2741281,0.109318 -0.4197059,0.137837 0,0 1.1108436,-0.848246 1.1108436,-0.848246 v 0 c 0.1373635,-0.04032 0.2703486,-0.09114 0.3954674,-0.161782 0.2205472,-0.110887 0.4387305,-0.226383 0.6592853,-0.337074 0.081398,-0.03722 0.1628651,-0.07299 0.244838,-0.108754 0.028915,-0.01262 0.1130303,-0.05585 0.085853,-0.03983 -0.6525058,0.384623 -1.5193869,0.875456 -1.0165818,0.590535 0.6548382,-0.378161 1.2352671,-0.769348 1.9358462,-1.015363 0.4837665,-0.189018 0.9547905,-0.410527 1.4251179,-0.630338 0.405805,-0.19464 0.82597,-0.345067 1.266006,-0.444177 0.9856229,-0.282998 1.9660159,-0.584221 2.9558949,-0.85248 0.343619,-0.102351 0.516642,-0.147981 0.840458,-0.264033 0.08661,-0.03104 0.172518,-0.06422 0.257077,-0.100478 0.05583,-0.02394 0.215883,-0.111204 0.163767,-0.07998 -0.06699,0.04013 -3.170805,1.84691 0.199934,-0.122113 0.294055,-0.15798 0.601231,-0.283901 0.921187,-0.380704 1.350798,-0.396806 2.722018,-0.722477 4.065028,-1.146918 1.223496,-0.385022 2.44847,-0.770041 3.636811,-1.256255 1.184012,-0.484445 0.987262,-0.454975 2.120083,-0.99178 0.03333,-0.0158 -0.05997,0.04296 -0.08996,0.06444 0.619474,-0.399701 0.976442,-0.609857 1.550098,-1.05364 0.550794,-0.426096 1.013587,-0.944197 1.527866,-1.410489 0,0 1.280723,-0.530492 1.280723,-0.530492 z"
       inkscape:connector-curvature="0" />
    <path
       style="fill:#000000;stroke:#000000;stroke-width:0.26499999;stroke-miterlimit:4;stroke-dasharray:none;stroke-opacity:1"
       id="path56"
       d="m 5.0210064,5.2506181 c -0.049305,0.312169 -0.068601,0.627977 -0.082327,0.943383 -0.00606,0.449218 -0.09254,0.891383 -0.1416664,1.336881 -0.049751,0.550613 -0.057074,1.103435 -0.093479,1.654955 -0.046487,0.648848 -0.059267,1.2992689 -0.069166,1.9494849 -0.00696,0.75415 -0.018825,1.508454 -8.466e-4,2.262491 0.021749,0.771489 0.045734,1.542737 0.1312687,2.31016 0.053672,0.489478 0.1528848,0.972121 0.2120498,1.460901 0.027765,0.302376 0.08316,0.600863 0.114562,0.902822 0.030076,0.332287 0.059567,0.664548 0.1230815,0.992309 0.103718,0.556456 0.1842256,1.117335 0.2483051,1.679694 0.078663,0.739648 0.1179735,1.482693 0.1863952,2.223148 0.040285,0.406943 0.091267,0.812771 0.1205275,1.220727 -0.00459,0.194148 0.038519,0.381823 0.067545,0.57228 0.047163,0.19421 0.089843,0.388393 0.1138876,0.586933 0.019836,0.179581 0.010054,0.359887 0.044413,0.537578 0.040002,0.169214 0.055649,0.342136 0.06505,0.5153 0.00779,0.187664 0.00747,0.375539 0.00761,0.563327 -5.98e-5,0.125127 0.00212,0.06315 -0.0063,0.185928 0,0 -1.256861,0.618998 -1.256861,0.618998 v 0 c 0.023339,-0.106034 0.016544,-0.04958 0.016658,-0.169759 3.6e-5,-0.185643 5.821e-4,-0.37134 -0.00529,-0.556911 -0.00714,-0.166352 -0.018285,-0.333036 -0.056789,-0.49562 -0.038678,-0.18228 -0.037233,-0.364646 -0.047511,-0.550281 C 4.692567,25.797955 4.655488,25.604068 4.6005198,25.41328 4.571895,25.21757 4.5195165,25.025996 4.5332764,24.826103 4.5177269,24.413745 4.4842232,24.002453 4.4486934,23.591396 4.3912002,22.850592 4.3556199,22.108092 4.2693154,21.369573 4.2014675,20.814396 4.1051489,20.263483 3.9986395,19.714512 3.9287975,19.385191 3.8894799,19.049881 3.8578225,18.715086 3.8315308,18.411786 3.776607,18.112214 3.7545982,17.808636 3.705587,17.315458 3.6161817,16.828146 3.5646311,16.335343 3.4887211,15.562055 3.4752091,14.78543 3.4413559,14.009534 c -0.024974,-0.753795 -0.010435,-1.508249 -0.011549,-2.262373 0.00651,-0.650757 0.018809,-1.301765 0.058032,-1.9514909 0.033019,-0.552004 0.044459,-1.104615 0.083827,-1.656222 0.042346,-0.441065 0.1287597,-0.878141 0.1316445,-1.321855 0.010126,-0.316487 0.030816,-0.632033 0.062793,-0.947107 0,0 1.254897,-0.619868 1.254897,-0.619868 z"
       inkscape:connector-curvature="0" />
    <path
       style="fill:#000000;stroke:#000000;stroke-width:0.26499999;stroke-miterlimit:4;stroke-dasharray:none;stroke-opacity:1"
       id="path58"
       d="m 32.911454,3.7232051 c 0.02756,0.31697 0.05511,0.633972 0.0699,0.951829 0.01095,0.244828 0.01487,0.489877 0.01669,0.734917 -0.01061,0.229685 0.0461,0.455176 0.14692,0.660361 0.107778,0.180254 0.172503,0.379242 0.229894,0.579872 0.07851,0.273252 0.176221,0.540576 0.254548,0.813799 0.07139,0.293223 0.118972,0.591709 0.178813,0.887458 0.07052,0.249542 0.08503,0.508752 0.128945,0.7627 0.03932,0.241932 0.122952,0.471741 0.201393,0.702882 0.113403,0.2911329 0.195908,0.5960929 0.338944,0.8746099 0.133308,0.2107 0.179946,0.439638 0.200004,0.684028 -0.03765,0.631956 -0.402026,1.205004 -0.707205,1.742811 -0.289094,0.514862 -0.612581,1.012757 -0.839639,1.559436 -0.138488,0.345183 -0.193918,0.715894 -0.329755,1.062329 -0.0414,0.105589 -0.09107,0.207748 -0.1366,0.311622 -0.33696,0.67817 -0.708535,1.339016 -1.014589,2.032066 -0.149156,0.327734 -0.23386,0.670711 -0.262247,1.027967 -0.01408,0.288838 -0.01672,0.578003 0.01979,0.865092 0.03524,0.220268 0.06054,0.441608 0.07016,0.664453 -0.0028,0.337775 0.06298,0.669875 0.10731,1.00325 0.04905,0.388025 0.05751,0.779084 0.104169,1.167284 0.03826,0.296269 0.06102,0.594124 0.07124,0.892601 0.0043,0.299418 0.0052,0.598858 0.0069,0.8983 0.0076,0.211426 0.0056,0.419766 -0.03295,0.627935 -0.03464,0.175181 -0.05482,0.35314 -0.04784,0.531643 0.03025,0.204955 0.04466,0.412372 0.07741,0.61685 0.0308,0.194453 0.09606,0.380257 0.140293,0.571574 0.05463,0.166897 0.149365,0.318656 0.236522,0.470427 0.05817,0.08776 0.111662,0.178429 0.167698,0.267554 0,0 -1.206439,0.702988 -1.206439,0.702988 v 0 c -0.0574,-0.09037 -0.111742,-0.1826 -0.171908,-0.27119 -0.09583,-0.163378 -0.198051,-0.327525 -0.25786,-0.507908 -0.04084,-0.194249 -0.110199,-0.380484 -0.142232,-0.576731 -0.0412,-0.207629 -0.04357,-0.421457 -0.08285,-0.629893 -0.02101,-0.188137 -0.0063,-0.376894 0.02698,-0.563208 0.04077,-0.202576 0.07027,-0.400201 0.05394,-0.608656 0.0019,-0.298111 0.0034,-0.596349 -0.0048,-0.894378 -0.0087,-0.295831 -0.02291,-0.591561 -0.06001,-0.885434 -0.04301,-0.388646 -0.05078,-0.779203 -0.09735,-1.167574 -0.04711,-0.33473 -0.11938,-0.667504 -0.129386,-1.006203 -0.0097,-0.219625 -0.02663,-0.438732 -0.06071,-0.656111 -0.03855,-0.296185 -0.04062,-0.59246 -0.02823,-0.890934 0.01968,-0.379325 0.100923,-0.739944 0.267623,-1.084715 0.313804,-0.690801 0.687489,-1.351649 1.019625,-2.03367 0.04404,-0.0986 0.09248,-0.195354 0.132123,-0.295806 0.13654,-0.345994 0.181782,-0.717242 0.31366,-1.063942 0.222949,-0.563524 0.571397,-1.064206 0.866178,-1.591145 0.285604,-0.501914 0.64199,-1.062017 0.698883,-1.647609 -0.02008,-0.225582 -0.0571,-0.438916 -0.178014,-0.63556 -0.141936,-0.286461 -0.218337,-0.59999 -0.342366,-0.89445 -0.082,-0.236697 -0.185404,-0.46714 -0.220202,-0.7173249 -0.0454,-0.252924 -0.05059,-0.512916 -0.120287,-0.762173 -0.06363,-0.292053 -0.10632,-0.588473 -0.172487,-0.880008 -0.07643,-0.273064 -0.179309,-0.537626 -0.263285,-0.808379 -0.05581,-0.192573 -0.115112,-0.385223 -0.215921,-0.559965 -0.107466,-0.221916 -0.184907,-0.465538 -0.179446,-0.71439 7.94e-4,-0.244732 0.0016,-0.489524 -0.0058,-0.734176 -0.01214,-0.312845 -0.0263,-0.626552 -0.07523,-0.936221 0,0 1.239094,-0.650884 1.239094,-0.650884 z"
       inkscape:connector-curvature="0" />
    <path
       style="fill:#000000;stroke:#000000;stroke-width:0.26499999;stroke-miterlimit:4;stroke-dasharray:none;stroke-opacity:1"
       id="path60"
       d="m 40.434243,5.3532351 c -0.575492,0.123859 -1.151731,0.239768 -1.734029,0.326939 -0.542994,0.0758 -1.091274,0.09114 -1.638649,0.09857 -0.630783,-0.0061 -1.258237,0.05581 -1.880867,0.151602 -0.502285,0.04879 -1.004629,0.227538 -1.512097,0.185051 -0.250282,-0.04975 -0.476742,-0.156808 -0.699672,-0.275794 -0.161385,-0.113717 -0.319214,-0.227846 -0.507971,-0.289997 -0.122899,-0.05083 -0.06147,-0.02233 -0.184015,-0.08613 0,0 1.166725,-0.769463 1.166725,-0.769463 v 0 c 0.118171,0.05328 0.05869,0.02824 0.178404,0.0752 0.184843,0.07986 0.345601,0.197022 0.514953,0.304587 0.208224,0.105779 0.418801,0.208895 0.655188,0.232931 0.4929,0.0011 0.977958,-0.127592 1.465717,-0.183644 0.632524,-0.09115 1.269132,-0.153946 1.909038,-0.150118 0.540528,-0.0096 1.081923,-0.02745 1.617697,-0.105837 0.592865,-0.09055 1.182301,-0.206008 1.75995,-0.368832 0,0 -1.110372,0.854932 -1.110372,0.854932 z"
       inkscape:connector-curvature="0" />
    <path
       style="fill:#000000;stroke:#000000;stroke-width:0.26499999;stroke-miterlimit:4;stroke-dasharray:none;stroke-opacity:1"
       id="path70"
       d="m 41.768098,4.7763901 c -0.150794,0.287893 -0.201539,0.609087 -0.238956,0.927846 -0.06903,0.614127 -0.04232,1.186438 0.06003,1.794933 0.03187,0.131027 0.06039,0.262917 0.09563,0.393081 0.03143,0.116111 0.225073,0.748521 0.254389,0.851763 0.132813,0.467742 0.24012,0.940587 0.34412,1.4153389 0.232788,1.058433 0.514382,2.104332 0.710943,3.170614 0.199946,1.034231 0.281009,2.08484 0.343604,3.134638 0.03454,0.570449 0.04162,1.14192 0.04973,1.71319 0.02559,0.346022 -0.02758,0.683299 -0.09296,1.021294 -0.05506,0.199194 -0.105225,0.401741 -0.178229,0.595397 -0.06853,0.193358 -0.143002,0.384847 -0.202232,0.58129 -0.07964,0.261548 -0.191134,0.512273 -0.295362,0.764714 -0.09496,0.2949 -0.202028,0.585439 -0.30974,0.875845 -0.09145,0.267637 -0.23255,0.513578 -0.333867,0.777052 -0.0469,0.198724 -0.131926,0.379413 -0.23223,0.55571 -0.07222,0.170193 -0.173013,0.322927 -0.274984,0.476115 -0.105741,0.128296 -0.167669,0.279871 -0.245732,0.424132 -0.09922,0.181182 -0.232505,0.338268 -0.357047,0.501709 -0.18996,0.25768 -0.368924,0.521485 -0.536943,0.793964 -0.159546,0.288864 -0.326122,0.574331 -0.43712,0.885986 -0.09678,0.272262 -0.07959,0.541885 -0.03391,0.820928 0.07062,0.398637 0.223848,0.771914 0.383045,1.141421 0.181192,0.335325 0.354997,0.677079 0.553164,1.003017 0.08438,0.142629 0.04536,0.07186 0.11766,0.211965 0,0 -1.21303,0.690333 -1.21303,0.690333 v 0 c -0.06438,-0.134824 -0.02903,-0.06558 -0.106973,-0.207257 -0.189865,-0.337423 -0.362702,-0.684855 -0.5499,-1.023747 -0.16584,-0.377404 -0.320717,-0.760991 -0.406656,-1.165825 -0.05549,-0.298326 -0.09521,-0.583187 -0.0019,-0.880327 0.104235,-0.326231 0.273174,-0.617919 0.433697,-0.919086 0.16664,-0.269724 0.324471,-0.544533 0.52162,-0.793795 0.105096,-0.173646 0.258911,-0.311565 0.351568,-0.494178 0.09937,-0.134361 0.126778,-0.303342 0.248288,-0.423802 0.0909,-0.158564 0.219638,-0.293661 0.278106,-0.469444 0.09252,-0.175882 0.214842,-0.336834 0.246327,-0.538772 0.09237,-0.269229 0.237734,-0.512902 0.338828,-0.778682 0.101476,-0.293692 0.229862,-0.578567 0.308383,-0.880197 0.09493,-0.2511 0.207668,-0.495448 0.295963,-0.748961 0.05175,-0.201038 0.126949,-0.392861 0.189259,-0.590693 0.07685,-0.190074 0.132487,-0.385889 0.201406,-0.579639 0.06953,-0.331205 0.136985,-0.659643 0.113286,-1.000881 0.0097,-0.576228 0.01035,-1.152652 -0.0047,-1.728812 -0.03702,-1.048913 -0.115165,-2.097534 -0.313991,-3.129872 -0.198816,-1.063076 -0.478404,-2.106761 -0.720696,-3.16031 -0.105019,-0.470084 -0.21019,-0.9400099 -0.345334,-1.4026379 -0.03072,-0.105168 -0.233498,-0.737695 -0.266462,-0.85298 -0.03778,-0.132124 -0.06903,-0.266029 -0.103542,-0.399044 -0.06198,-0.319727 -0.09083,-0.418432 -0.116353,-0.736815 -0.02864,-0.357187 -0.0075,-0.717501 0.0055,-1.07476 0.02774,-0.328539 0.07522,-0.654619 0.196406,-0.963588 0,0 1.277921,-0.578171 1.277921,-0.578171 z"
       inkscape:connector-curvature="0" />
    <path
       style="fill:#000000;stroke:#000000;stroke-width:0.26499999;stroke-miterlimit:4;stroke-dasharray:none;stroke-opacity:1"
       id="path72"
       d="m 39.672328,30.658861 c -0.732999,0.04955 -1.466766,0.08648 -2.201093,0.112289 -0.62407,0.0084 -1.252019,0.08122 -1.872715,-0.01021 -0.52269,-0.136504 -1.048988,-0.258654 -1.57302,-0.38975 -0.35371,-0.08327 -0.684019,-0.223523 -1.009533,-0.380206 -0.141198,-0.108694 -0.292714,-0.167889 -0.467347,-0.191379 -0.177244,-0.01627 -0.355539,-0.014 -0.533342,-0.01363 -0.199257,0.0089 -0.393086,0.0021 -0.588925,-0.03431 -0.235217,-0.05217 -0.455131,-0.160401 -0.684173,-0.238371 -0.260239,-0.07501 -0.520949,-0.146595 -0.784961,-0.207066 0,0 1.135976,-0.784738 1.135976,-0.784738 v 0 c 0.265073,0.06787 0.528709,0.141012 0.791996,0.215501 0.228155,0.07222 0.448349,0.174553 0.68576,0.21083 0.191381,0.02627 0.383717,0.01455 0.576432,0.01595 0.183607,0.0011 0.368662,2.65e-4 0.549915,0.0336 0.177813,0.04247 0.333166,0.122848 0.483486,0.226607 0.308782,0.157575 0.627745,0.289597 0.964983,0.374962 0.523762,0.134139 1.05114,0.255556 1.580362,0.365967 0.601829,0.07597 1.208963,0.03661 1.813578,0.02376 0.753171,-0.03054 1.507744,-0.06432 2.25492,-0.169788 0,0 -1.122299,0.839983 -1.122299,0.839982 z"
       inkscape:connector-curvature="0" />
    <path
       style="fill:#000000;stroke:#000000;stroke-width:0.26499999;stroke-miterlimit:4;stroke-dasharray:none;stroke-opacity:1"
       id="path74"
       d="m 31.223068,27.302542 c 0.105228,0.259726 0.198969,0.523825 0.299625,0.78535 0.07022,0.217281 0.137493,0.434766 0.218408,0.648417 0,0 -1.221155,0.67846 -1.221155,0.67846 v 0 c -0.0797,-0.214561 -0.15086,-0.430942 -0.212386,-0.651467 -0.09522,-0.257675 -0.186111,-0.518203 -0.303385,-0.766739 0,0 1.218893,-0.694021 1.218893,-0.694021 z"
       inkscape:connector-curvature="0" />
    <path
       style="fill:#000000;stroke:#000000;stroke-width:0.26499999;stroke-miterlimit:4;stroke-dasharray:none;stroke-opacity:1"
       id="path76"
       d="m 46.890312,4.4750531 c 0.0013,0.508498 0.117081,1.010753 0.266483,1.494137 0.156937,0.443043 0.324644,0.881613 0.504457,1.315812 0.115337,0.343107 0.166886,0.703056 0.223496,1.059323 0.07715,0.432502 0.185984,0.856887 0.321244,1.274588 0.131183,0.4432049 0.287965,0.8774199 0.452197,1.3091849 0.214008,0.563356 0.349858,1.152402 0.518186,1.730396 0.183042,0.524956 0.322906,1.059162 0.400085,1.60942 0.03768,0.429254 0.07051,0.859121 0.101118,1.289044 0.02289,0.349582 0.03626,0.699732 0.04092,1.050015 -0.0065,0.279358 0.01085,0.556328 0.04048,0.833874 0.03526,0.309533 0.04296,0.620866 0.05012,0.931995 0.0051,0.269698 0.0064,0.539464 0.008,0.809207 -1.22e-4,0.221239 0.0066,0.442616 -0.0096,0.663363 -0.03723,0.247901 -0.05145,0.49839 -0.08185,0.746948 -0.03852,0.206849 -0.06102,0.416174 -0.106596,0.62162 -0.0592,0.185952 -0.12002,0.369327 -0.151931,0.562284 -0.03269,0.20115 -0.08348,0.395976 -0.163447,0.583322 -0.0761,0.17903 -0.123399,0.368906 -0.17385,0.556424 -0.05064,0.201417 -0.05251,0.409231 -0.09776,0.611532 -0.06969,0.22271 -0.115056,0.45081 -0.140718,0.682437 -0.0069,0.217625 -0.04436,0.431823 -0.07356,0.647107 -0.02719,0.201139 -0.03297,0.404085 -0.03865,0.606687 -0.03063,0.348626 0.04029,0.687787 0.107794,1.027483 0.0813,0.393766 0.128051,0.792961 0.157332,1.193578 0.0159,0.232589 0.01873,0.46574 0.0195,0.69878 1.6e-5,0.188889 -7.94e-4,0.377775 -0.0011,0.566661 -2.65e-4,0.188283 -2.65e-4,0.376563 -2.65e-4,0.564846 0.0072,0.130942 -0.01627,0.259876 -0.03772,0.388321 0,0 -1.256681,0.614166 -1.256681,0.614166 v 0 c 0.02061,-0.121671 0.05389,-0.243234 0.04787,-0.36736 -3e-6,-0.188331 -1.9e-5,-0.376659 1.82e-4,-0.564986 2.65e-4,-0.189021 7.94e-4,-0.378045 0.0019,-0.567063 0.0013,-0.232249 0.0033,-0.464588 -0.0051,-0.696741 -0.01781,-0.396801 -0.05517,-0.792922 -0.136345,-1.182357 -0.07251,-0.34459 -0.165346,-0.687601 -0.142589,-1.043339 7.94e-4,-0.207425 0.0074,-0.415081 0.03192,-0.621242 0.02731,-0.21436 0.07181,-0.426466 0.07483,-0.643162 0.02217,-0.238249 0.06203,-0.474083 0.132122,-0.703392 0.06406,-0.19875 0.05335,-0.404373 0.0958,-0.607997 0.04578,-0.194768 0.102232,-0.387778 0.1652,-0.577384 0.07858,-0.178962 0.146892,-0.354283 0.178038,-0.549127 0.02439,-0.197215 0.06718,-0.390364 0.147432,-0.573241 0.04896,-0.203028 0.07568,-0.408347 0.114845,-0.613608 0.04452,-0.244311 0.0401,-0.495414 0.08606,-0.740095 0.02469,-0.216144 0.0075,-0.434028 0.01408,-0.651283 0.0019,-0.270192 0.0035,-0.540385 5.29e-4,-0.81058 -0.0044,-0.307226 -0.01426,-0.614664 -0.04612,-0.920454 -0.02977,-0.281614 -0.0635,-0.561596 -0.0469,-0.845564 -0.0021,-0.349947 -0.0043,-0.700037 -0.02503,-1.049508 C 48.43087,15.761192 48.38493,15.334969 48.36024,14.90699 48.29856,14.359734 48.169525,13.826648 47.99222,13.304964 47.823553,12.732608 47.671508,12.153222 47.459989,11.594979 47.292286,11.162127 47.1337,10.725872 47.004456,10.279708 46.865002,9.8569911 46.748546,9.4286031 46.666483,8.9907551 c -0.06103,-0.345613 -0.107209,-0.695805 -0.214096,-1.031284 -0.167706,-0.443751 -0.327257,-0.890302 -0.487656,-1.336765 -0.155167,-0.492302 -0.266094,-0.997675 -0.323657,-1.511166 0,0 1.249178,-0.636487 1.249178,-0.636487 z"
       inkscape:connector-curvature="0" />
    <path
       style="fill:#000000;stroke:#000000;stroke-width:0.26499999;stroke-miterlimit:4;stroke-dasharray:none;stroke-opacity:1"
       id="path78"
       d="m 48.990828,30.099016 c 0.339749,0.01024 0.67971,0.0054 1.019551,0.0048 0.417333,7.94e-4 0.834665,0.0033 1.251992,0.0057 0.587831,0.009 1.17569,0.0011 1.763525,-0.0013 0.32517,-0.0011 0.650319,-0.0074 0.975492,-0.0059 0.345369,0.0034 0.690761,0.0029 1.036138,0.0016 0.285379,-0.0021 0.57077,-0.0016 0.856154,-0.0013 0.25884,-0.0011 0.517681,-7.94e-4 0.776521,-0.0013 0.214101,-5.29e-4 0.428201,-0.0019 0.6423,-7.94e-4 0.211936,0.01019 0.427595,-0.02138 0.636878,0.01738 0.160454,0.01897 0.299056,0.100306 0.454798,0.137128 0.02513,0.0041 0.05026,0.0082 0.0754,0.01225 0,0 -1.150512,0.800859 -1.150512,0.800859 v 0 c -0.02715,-0.0066 -0.0543,-0.01328 -0.08144,-0.0199 -0.145873,-0.0463 -0.285731,-0.111424 -0.440984,-0.121833 -0.207557,-0.0122 -0.415893,-0.0019 -0.623705,-0.0052 -0.213442,0.0011 -0.426884,-2.65e-4 -0.640328,-7.94e-4 -0.257614,-5.29e-4 -0.515229,-2.65e-4 -0.772843,-0.0013 -0.284279,5.29e-4 -0.56856,0.0011 -0.852834,-0.0013 -0.346885,-0.0013 -0.693782,-0.0019 -1.040659,0.0016 -0.319786,0.0013 -0.639546,-0.0048 -0.959326,-0.0059 -0.586627,-0.0024 -1.173274,-0.01032 -1.759898,-0.0013 -0.422526,0.0024 -0.845057,0.0048 -1.267589,0.0057 -0.344281,-5.29e-4 -0.688666,-0.0052 -1.032857,0.0048 0,0 1.134229,-0.824066 1.134229,-0.824066 z"
       inkscape:connector-curvature="0" />
    <path
       style="fill:#000000;stroke:#000000;stroke-width:0.26499999;stroke-miterlimit:4;stroke-dasharray:none;stroke-opacity:1"
       id="path80"
       d="m 57.628641,31.145255 c -0.190686,-0.709538 -0.331272,-1.428204 -0.437113,-2.154851 -0.111818,-0.869275 -0.155562,-1.745014 -0.184439,-2.620325 -0.01336,-0.473874 -0.02101,-0.947896 -0.01889,-1.421958 -0.0011,-0.37851 0.007,-0.757243 -0.007,-1.135544 -0.04004,-0.714555 -0.04453,-1.430501 -0.05192,-2.145958 -0.0086,-0.631013 -0.02109,-1.261962 -0.03307,-1.89292 -0.0042,-0.27727 -0.0078,-0.554611 -0.0069,-0.831921 0.0019,-0.319934 0.0057,-0.63986 0.0055,-0.959797 -0.0026,-0.288954 -0.0033,-0.577911 -0.0049,-0.866871 0.01135,-0.458294 -0.0912,-0.910308 -0.156184,-1.362046 -0.0998,-0.729631 -0.157249,-1.464079 -0.194492,-2.199285 -0.02347,-0.369015 -0.0062,-0.739937 0.04661,-1.105654 0.05418,-0.280025 0.161232,-0.544826 0.231246,-0.820626 0.04991,-0.205269 0.06326,-0.416071 0.06973,-0.626398 0.0034,-0.299782 0.0093,-0.599536 0.01463,-0.899292 0.0093,-0.5211499 2.2e-4,-1.0423599 -0.0042,-1.5635059 -0.0021,-0.323791 -0.0059,-0.647559 -0.0058,-0.971359 5.29e-4,-0.26489 -0.0021,-0.529781 -0.0016,-0.794669 0.01532,-0.265157 -0.02244,-0.527444 -0.05328,-0.789919 -0.02212,-0.18232 -0.03265,-0.365646 -0.0394,-0.549078 0,0 1.243587,-0.638313 1.243587,-0.638313 v 0 c 0.0041,0.180739 0.0108,0.361514 0.0295,0.541437 0.02822,0.267458 0.074,0.533621 0.06056,0.803574 7.93e-4,0.265393 -0.0021,0.53079 -0.0016,0.796185 9e-5,0.325721 -0.0038,0.65141 -0.0056,0.977123 -0.0041,0.522201 -0.01275,1.044486 -0.0024,1.566672 0.0062,0.296468 0.01627,0.5930239 0.01291,0.8895779 -0.0048,0.21978 -0.01508,0.440269 -0.06229,0.655778 -0.06434,0.275922 -0.167151,0.538149 -0.238078,0.812145 -0.06625,0.359335 -0.09408,0.729015 -0.08488,1.093937 0.01958,0.733531 0.05919,1.467648 0.170908,2.193753 0.07871,0.462298 0.04095,0.269103 0.130296,0.692725 0.01355,0.06426 0.07194,0.323344 0.08049,0.408299 0.0086,0.0851 -0.0093,0.171498 1.09e-4,0.25659 -0.0016,0.290625 -0.0024,0.581247 -0.0049,0.871867 -1.67e-4,0.318158 0.0037,0.636306 0.0051,0.954465 5.29e-4,0.279702 -0.0039,0.559414 -0.0077,0.839078 -0.01045,0.637649 -0.01752,1.275424 -0.0105,1.913158 0.01307,0.706831 0.02852,1.414277 0.09275,2.118709 0.02806,0.380251 0.0072,0.76155 0.01101,1.142598 -0.0011,0.477459 -0.01241,0.954841 -0.0089,1.432319 0.0089,0.874395 0.03686,1.750274 0.152167,2.618115 0.108386,0.712619 0.24611,1.42394 0.49898,2.10148 0,0 -1.230442,0.670705 -1.230442,0.670705 z"
       inkscape:connector-curvature="0" />
    <path
       style="fill:#000000;stroke:#000000;stroke-width:0.26499999;stroke-miterlimit:4;stroke-dasharray:none;stroke-opacity:1"
       id="path82"
       d="m 56.675291,5.0317141 c -0.473517,-0.06709 -0.952894,-0.07848 -1.430282,-0.09219 -0.440039,2.91e-4 -0.877813,-0.05 -1.316378,-0.07984 -0.275204,-0.0016 -0.5445,-0.05705 -0.817682,-0.08371 -0.296444,-0.05588 -0.595646,-0.09155 -0.896469,-0.111837 -0.323218,-0.01525 -0.646938,-0.01793 -0.970455,-0.02151 -0.517358,0.02055 -1.033931,0.05637 -1.550926,0.084 -0.148276,-0.0038 -0.287216,0.01698 -0.42536,0.06842 -0.03257,0.01213 -0.06635,0.02188 -0.09698,0.03832 -0.0263,0.01411 -0.09839,0.06729 -0.0724,0.05262 0.377939,-0.213399 0.752507,-0.43272 1.12876,-0.64908 -0.588166,0.386037 -1.120886,0.711445 -1.770671,0.902032 -0.237249,0.03649 -0.461097,0.09394 -0.686922,0.174629 -0.302458,0.102148 -0.60593,0.193355 -0.921028,0.247569 -0.123118,0.0373 -0.249928,0.05902 -0.376303,0.08155 0,0 1.111136,-0.839722 1.111136,-0.839722 v 0 c 0.125251,-0.02548 0.249679,-0.05425 0.374896,-0.07991 0.309576,-0.06287 0.60892,-0.159924 0.907312,-0.26286 0.227618,-0.076 0.461991,-0.109459 0.692375,-0.174823 0.537136,-0.186493 1.50862,-0.705064 -0.638498,0.455498 0.851601,-0.491596 1.077725,-0.818999 1.885707,-0.830025 0.515381,-0.01983 1.030097,-0.05256 1.545476,-0.0719 0.332089,-0.0025 0.66516,-0.0139 0.996397,0.01628 0.299963,0.02837 0.59735,0.07405 0.89558,0.116113 0.27169,0.02915 0.5417,0.07272 0.815306,0.08162 0.428323,0.03958 0.856448,0.08985 1.287184,0.09215 0.48853,0.01398 0.976614,0.03639 1.464458,0.06255 0,0 -1.134229,0.824066 -1.134229,0.824066 z"
       inkscape:connector-curvature="0" />
    <path
       style="fill:#000000;stroke:#000000;stroke-width:0.26499999;stroke-miterlimit:4;stroke-dasharray:none;stroke-opacity:1"
       id="path84"
       d="m 57.136026,5.3303131 c -0.232878,-0.140018 -0.463719,-0.280055 -0.689364,-0.431297 -0.131561,-0.07832 -0.250095,-0.166594 -0.397573,-0.212302 0,0 1.162836,-0.782022 1.162836,-0.782022 v 0 c 0.146751,0.06487 0.275076,0.157297 0.409331,0.244352 0.223049,0.15623 0.458171,0.291319 0.695076,0.425532 0,0 -1.180306,0.755737 -1.180306,0.755737 z"
       inkscape:connector-curvature="0" />
    <path
       style="fill:#808080;stroke:#000000;stroke-width:0.09464285;stroke-miterlimit:4;stroke-dasharray:none;stroke-opacity:1"
       d="M 6.2217604,26.598058 C 6.2173763,26.325206 6.1775144,25.846829 6.1331819,25.534999 6.0462507,24.923536 5.8160828,22.770047 5.658498,21.09378 5.6047537,20.522089 5.5006836,19.671644 5.4272307,19.203898 4.8971409,15.828298 4.8595704,15.352988 4.8595704,12.02235 c 0,-3.7267908 0.1678508,-6.1448268 0.4192645,-6.0398656 0.081235,0.033914 0.712932,0.2696665 1.4037712,0.5238941 3.9067589,1.4376791 5.6966979,2.228043 10.6974259,4.7235465 3.971585,1.981933 9.378727,4.962133 10.997199,6.061217 l 0.561949,0.381612 -0.577842,0.237041 c -0.411494,0.168801 -0.825929,0.463208 -1.439627,1.02268 -0.955935,0.871472 -1.780868,1.44807 -2.804878,1.96051 -1.537532,0.769421 -4.0615,1.643906 -7.510763,2.602269 -1.152591,0.320242 -2.331244,0.710261 -2.693081,0.891144 -0.353897,0.176916 -1.631183,0.604181 -2.838415,0.949478 -1.4596527,0.417497 -2.6224036,0.817168 -3.4708956,1.193043 -0.7017607,0.310878 -1.2979821,0.565232 -1.3249365,0.565232 -0.026954,0 -0.052596,-0.223242 -0.056982,-0.496093 z"
       id="path358"
       inkscape:connector-curvature="0" />
    <path
       style="fill:#808080;stroke:#000000;stroke-width:0.09464285;stroke-miterlimit:4;stroke-dasharray:none;stroke-opacity:1"
       d="m 35.755418,29.558383 c -0.573728,-0.147125 -1.263301,-0.379064 -1.532388,-0.515419 -0.356883,-0.180848 -0.634126,-0.24792 -1.024765,-0.24792 -0.658125,0 -1.247862,-0.167241 -1.365618,-0.387268 -0.07139,-0.133382 -0.02048,-0.205817 0.265433,-0.377759 0.194564,-0.117001 0.371258,-0.226396 0.392652,-0.243097 0.02141,-0.01669 -0.0706,-0.232558 -0.20443,-0.479684 -0.331698,-0.612497 -0.43401,-1.297196 -0.378442,-2.532655 0.0317,-0.704734 -0.02217,-1.75255 -0.165822,-3.225035 C 31.615353,20.25087 31.5558,19.19146 31.59485,18.931057 c 0.03607,-0.240541 0.35759,-1.028314 0.714486,-1.750608 0.356897,-0.722294 0.736367,-1.604298 0.84327,-1.96001 0.106905,-0.355712 0.471225,-1.135756 0.809601,-1.733431 1.009182,-1.78251 1.045816,-2.009209 0.526814,-3.260044 C 34.338074,9.8631615 34.144798,9.1828045 34.059523,8.7150587 33.925472,7.9797584 33.607435,6.689513 33.475482,6.3456446 c -0.02774,-0.072298 0.03719,-0.095347 0.1876,-0.066594 0.126516,0.024186 0.634466,-0.024921 1.128774,-0.1091231 0.494307,-0.084203 1.63704,-0.1944336 2.539404,-0.2449568 0.902364,-0.050524 1.928485,-0.1491565 2.280269,-0.2191848 0.623546,-0.1241269 0.638112,-0.1226066 0.57998,0.060548 -0.0328,0.1033296 -0.06194,0.5964523 -0.06477,1.0958285 -0.0043,0.7672176 0.04831,1.0983696 0.339699,2.1363792 0.404765,1.4418964 1.030882,4.0833534 1.254307,5.2916674 0.104743,0.566456 0.171903,1.576199 0.201121,3.023809 l 0.04387,2.173364 -0.513917,1.464656 c -0.743042,2.117675 -1.104585,2.89714 -1.873662,4.039497 -0.898695,1.334881 -1.146974,1.884431 -1.13936,2.521887 0.006,0.501906 0.328309,1.520258 0.624002,1.971542 0.13994,0.21358 0.139882,0.236903 -7.94e-4,0.290857 -0.08407,0.03226 -0.627758,0.05672 -1.208191,0.05436 -0.839898,-0.0034 -1.268269,-0.0589 -2.098468,-0.271795 z"
       id="path360"
       inkscape:connector-curvature="0" />
    <path
       style="fill:#808080;stroke:#000000;stroke-width:0.09464285;stroke-miterlimit:4;stroke-dasharray:none;stroke-opacity:1"
       d="m 49.224146,28.724173 c -2.09e-4,-0.662639 -0.06724,-1.60876 -0.14895,-2.102493 -0.220766,-1.333929 -0.07309,-2.56159 0.585401,-4.866442 0.267169,-0.935143 0.269841,-0.969925 0.257723,-3.354538 -0.0067,-1.32528 -0.05947,-2.904789 -0.117195,-3.51002 -0.108831,-1.141117 -0.526602,-2.774442 -1.17861,-4.607886 C 48.442786,9.7773931 48.201047,8.9202412 48.085321,8.3780124 47.969592,7.8357838 47.733764,7.0013398 47.561261,6.5236928 L 47.247613,5.655243 47.787223,5.5052901 c 0.296786,-0.082474 0.773483,-0.2391068 1.059325,-0.3480728 0.823267,-0.3138353 2.591401,-0.4148582 4.110493,-0.2348543 0.675632,0.080059 1.765348,0.1728531 2.421588,0.2062094 l 1.193168,0.060648 0.05888,0.4295677 c 0.03239,0.2362623 0.05842,1.6461496 0.05786,3.1330831 -7.94e-4,2.2023678 -0.02876,2.7910958 -0.150646,3.1759858 -0.194307,0.613584 -0.194122,1.996598 5.29e-4,3.697693 0.104018,0.909189 0.180457,3.00326 0.249611,6.838393 0.09042,5.014127 0.153704,6.393519 0.330194,7.197079 l 0.05888,0.267949 H 53.200839 49.22458 l -2.65e-4,-1.204798 z"
       id="path362"
       inkscape:connector-curvature="0" />
  </g>
</svg>
