<?xml version="1.0" encoding="UTF-8" standalone="no"?>
<!-- Created with Inkscape (http://www.inkscape.org/) -->

<svg class='contro'
   xmlns:dc="http://purl.org/dc/elements/1.1/"
   xmlns:cc="http://creativecommons.org/ns#"
   xmlns:rdf="http://www.w3.org/1999/02/22-rdf-syntax-ns#"
   xmlns:svg="http://www.w3.org/2000/svg"
   xmlns="http://www.w3.org/2000/svg"
   xmlns:sodipodi="http://sodipodi.sourceforge.net/DTD/sodipodi-0.dtd"
   xmlns:inkscape="http://www.inkscape.org/namespaces/inkscape"
   width="97.420601mm"
   height="99.374001mm"
   viewBox="0 0 97.420601 99.374001"
   version="1.1"
   id="svg531"
   inkscape:version="0.92.2 (5c3e80d, 2017-08-06)"
   sodipodi:docname="Volume.svg">
  <defs
     id="defs525" />
  <sodipodi:namedview
     id="base"
     pagecolor="#ffffff"
     bordercolor="#666666"
     borderopacity="1.0"
     inkscape:pageopacity="0.0"
     inkscape:pageshadow="2"
     inkscape:zoom="0.7"
     inkscape:cx="240.2555"
     inkscape:cy="94.063514"
     inkscape:document-units="mm"
     inkscape:current-layer="layer1"
     showgrid="false"
     inkscape:window-width="1366"
     inkscape:window-height="746"
     inkscape:window-x="1352"
     inkscape:window-y="-8"
     inkscape:window-maximized="1"
     fit-margin-top="0"
     fit-margin-left="0"
     fit-margin-right="0"
     fit-margin-bottom="0" />
  <metadata
     id="metadata528">
    <rdf:RDF>
      <cc:Work
         rdf:about="">
        <dc:format>image/svg+xml</dc:format>
        <dc:type
           rdf:resource="http://purl.org/dc/dcmitype/StillImage" />
        <dc:title></dc:title>
      </cc:Work>
    </rdf:RDF>
  </metadata>
  <g
     inkscape:label="Layer 1"
     inkscape:groupmode="layer"
     id="layer1"
     transform="translate(-26.537655,-14.948341)">
    <path
       style="fill:#000000;stroke:#000000;stroke-width:0.26499999;stroke-miterlimit:4;stroke-dasharray:none;stroke-opacity:1"
       id="path557"
       d="m 78.776988,19.866077 c -0.93757,0.449984 -1.883233,0.881625 -2.84638,1.275316 -0.963639,0.464621 -1.959821,0.860875 -2.929279,1.312553 -0.942131,0.442059 -1.864132,0.921004 -2.870096,1.200626 -0.783035,0.228913 -1.421525,0.745465 -2.160329,1.063691 -0.380936,0.129309 -0.693491,0.377941 -1.045286,0.566015 -0.128746,0.06883 -0.514382,0.276205 -0.388112,0.202936 1.452374,-0.842742 2.910874,-1.674879 4.366755,-2.51155 0.156675,-0.09004 -0.312762,0.181105 -0.469144,0.271657 -15.61126,8.995002 0.07316,-0.04358 -1.071568,0.620819 -1.754314,1.018193 -3.510822,2.032645 -5.272079,3.038781 -0.179184,0.102359 -0.727308,0.390022 -0.548815,0.286464 5.650971,-3.278614 5.529895,-3.210283 3.816771,-2.170604 -0.659852,0.390609 -1.254874,0.8471 -1.729139,1.4504 -0.488919,0.678133 -0.853689,1.431563 -1.144001,2.212661 -0.223168,0.898379 -0.53414,1.770126 -0.796795,2.656673 -0.225475,0.776033 -0.293775,1.580568 -0.330316,2.383851 -0.02389,0.755544 -0.0186,1.51162 -0.01672,2.267426 -0.06229,0.750382 -0.16414,1.506947 -0.371538,2.232231 -0.222885,0.650555 -0.285547,1.336731 -0.43556,2.004494 -0.139375,0.823164 -0.508733,1.575163 -0.804257,2.348971 -0.36358,0.865195 -0.720119,1.733182 -1.06263,2.606966 -0.354724,0.76854 -0.776917,1.503407 -1.110512,2.282028 -0.214026,0.613463 -0.586396,1.145615 -0.883359,1.717342 -0.402741,0.783598 -0.950698,1.458497 -1.579115,2.069211 -0.501023,0.473694 -0.877739,1.03378 -1.241433,1.612344 -0.371486,0.526931 -0.801989,1.005004 -1.172197,1.533052 -0.448775,0.463899 -0.876006,0.950097 -1.319961,1.419556 -0.498385,0.453482 -1.038566,0.857199 -1.587984,1.246576 -1.832314,1.43886 -3.958,2.432664 -5.991857,3.561913 -1.514129,0.840682 3.004296,-1.723813 4.508439,-2.582235 0.100586,-0.0574 -0.198464,0.119428 -0.297696,0.179141 -2.003611,1.250908 -3.982051,2.763065 -6.260592,3.483084 -2.543429,0.803719 1.548582,-0.58315 -1.378921,0.423481 -1.816074,0.620512 -3.632126,1.240624 -5.454674,1.842307 -1.231265,0.396365 -2.499236,0.659098 -3.745942,0.99695 -1.053893,0.183293 -2.090637,0.416552 -3.136209,0.639845 -0.365906,0.159541 -0.740807,0.269618 -1.106191,0.431035 0,0 4.395642,-3.451931 4.395642,-3.451931 v 0 c 0.38083,-0.131861 0.759359,-0.276183 1.155589,-0.356487 1.033208,-0.229203 2.079868,-0.385074 3.106398,-0.643842 1.230929,-0.301808 2.463946,-0.601117 3.67197,-0.986909 1.825858,-0.606536 3.652927,-1.209942 5.465127,-1.85629 0.640218,-0.215937 1.279721,-0.416571 1.890403,-0.708173 0.124217,-0.05932 0.486296,-0.257863 0.367623,-0.188117 -6.200447,3.644223 -5.852065,3.435721 -4.182801,2.425126 1.750687,-1.380894 1.268177,-1.022445 5.375299,-3.142982 1.532133,-0.791049 -2.982349,1.731578 -4.471768,2.60038 -0.8627,0.503227 1.810824,-1.01804 0.892284,-0.583737 0.502615,-0.440624 1.105725,-0.760275 1.586992,-1.226621 0.543237,-0.357318 0.809299,-0.967621 1.365371,-1.315226 0.440016,-0.49722 -0.0108,0.04229 0.387501,-0.536683 0.179623,-0.261112 0.40639,-0.469763 0.60652,-0.709028 0.07068,-0.0845 0.123505,-0.182441 0.185256,-0.273664 0.237075,-0.268152 0.347726,-0.538231 0.530987,-0.83961 0.220927,-0.363326 0.175022,-0.208714 0.450768,-0.533683 0.08727,-0.102846 0.161732,-0.215905 0.242597,-0.323858 0.594217,-0.598953 1.24528,-1.13075 1.628026,-1.907101 0.306792,-0.560059 0.610918,-1.105474 0.923547,-1.661819 0.283167,-0.80692 0.695285,-1.563859 1.12985,-2.298623 0.35714,-0.865624 0.668827,-1.748089 1.043559,-2.607408 0.398121,-0.864433 -0.04086,0.133689 0.309171,-0.819742 0.176577,-0.480965 0.493183,-0.908116 0.525497,-1.437595 0.159517,-0.678159 0.234878,-1.364377 0.410744,-2.038821 0.227777,-0.680617 0.349586,-1.372106 0.454615,-2.083967 -0.0021,-0.762958 -0.0076,-1.526048 0.0081,-2.288902 0.02677,-0.842447 0.07726,-1.687976 0.285009,-2.508674 0.241787,-0.901242 0.60175,-1.768046 0.783987,-2.684068 0.259881,-0.829201 0.609748,-1.616096 1.057931,-2.361266 0.464071,-0.672452 0.958919,-1.241835 1.672722,-1.667288 2.059538,-1.209233 1.905484,-1.119872 5.701424,-3.310097 0.179033,-0.103299 0.722263,-0.402256 0.543801,-0.297975 -1.404517,0.820709 -5.627452,3.266717 -4.222147,2.447361 3.153723,-1.838762 9.877944,-5.721365 1.052571,-0.621074 2.347645,-1.376082 4.66647,-2.815871 7.107521,-4.020225 0.704649,-0.388754 1.415396,-0.770662 2.196711,-0.987095 0.96761,-0.346568 1.88065,-0.821807 2.817947,-1.240947 0.985369,-0.424626 1.954768,-0.883476 2.940976,-1.305851 0.969587,-0.421475 1.924272,-0.878558 2.90662,-1.267656 0,0 -4.433234,3.444161 -4.433234,3.444161 z"
       inkscape:connector-curvature="0" />
    <path
       style="fill:#000000;stroke:#000000;stroke-width:0.26499999;stroke-miterlimit:4;stroke-dasharray:none;stroke-opacity:1"
       id="path559"
       d="m 31.946725,64.04458 c -0.19998,1.266749 -0.272931,2.549197 -0.3234,3.829254 -0.01413,1.052865 0.189714,2.076977 0.416901,3.097951 0.157123,0.804243 0.386774,1.592945 0.639832,2.371688 0.204298,0.799327 0.444722,1.587272 0.695113,2.373418 0.263297,0.786051 0.332057,1.61312 0.542168,2.411444 0.19775,0.684499 0.262938,1.393026 0.301898,2.101194 -0.02498,0.840692 0.118959,1.665801 0.233608,2.494852 0.122444,0.852638 0.139176,1.713939 0.155679,2.573535 0.0019,0.146058 0.0039,0.292116 0.0058,0.438174 0,0 -4.973386,2.539992 -4.973386,2.539992 v 0 c -7.93e-4,-0.145227 -0.0016,-0.290457 -0.0024,-0.435684 -0.0109,-0.839295 -0.03045,-1.679988 -0.129114,-2.514433 -0.107027,-0.8421 -0.288002,-1.67754 -0.266769,-2.530242 -0.028,-0.671394 -0.07111,-1.345555 -0.250174,-1.996842 -0.207079,-0.793324 -0.270269,-1.609236 -0.507854,-2.39599 -0.252601,-0.784125 -0.527857,-1.560121 -0.704747,-2.366079 -0.257347,-0.797383 -0.506333,-1.60178 -0.655399,-2.427422 -0.22301,-1.070243 -0.449594,-2.137209 -0.454314,-3.237566 0.05593,-1.284574 0.142452,-2.567006 0.257077,-3.84777 0,0 5.01959,-2.479474 5.01959,-2.479474 z"
       inkscape:connector-curvature="0" />
    <path
       style="fill:#000000;stroke:#000000;stroke-width:0.26499999;stroke-miterlimit:4;stroke-dasharray:none;stroke-opacity:1"
       id="path561"
       d="m 34.733711,87.016491 c 1.648463,-0.03242 3.259566,-0.379082 4.87475,-0.673402 1.145153,-0.248269 2.312111,-0.442626 3.44719,-0.733697 1.022799,-0.422691 2.126794,-0.584523 3.220513,-0.696862 1.613458,-0.199261 3.179233,0.162867 4.747202,0.485447 1.80979,0.3811 3.485007,1.174228 5.151763,1.947857 1.056055,0.459946 2.014945,1.071401 2.950408,1.7356 0.826127,0.40141 1.237911,1.120921 1.605981,1.921833 0.475779,1.27744 1.015992,2.520402 1.619314,3.74342 0.690747,1.440564 1.397386,2.878791 2.017493,4.351862 0.519779,1.143841 1.045538,2.285391 1.571043,3.426871 0.412125,0.82951 0.622932,1.73115 0.837041,2.62611 0.137689,0.82832 0.305808,1.63647 0.621022,2.41566 0.249198,0.76163 0.417843,0.99544 1.121336,1.34492 1.004088,0.39121 2.041607,0.62801 3.10784,0.76223 1.0364,0.067 2.034654,0.37412 3.025675,0.66504 1.378077,0.38666 2.809396,0.47673 4.231608,0.54417 1.228302,0.0485 2.457601,0.0363 3.686495,0.0351 1.622335,0.0126 3.244683,0.0162 4.867055,0.019 1.184667,0.002 2.369304,-0.006 3.553953,-0.0104 0,0 -4.460539,3.24089 -4.460539,3.24089 v 0 c -1.176039,-0.004 -2.352069,-0.0114 -3.528127,-0.008 -1.645041,0.005 -3.29004,0.0124 -4.935005,0.0297 -1.223661,-0.002 -2.447899,-0.02 -3.670017,-0.0844 -1.45606,-0.0911 -2.915748,-0.21947 -4.324368,-0.62388 -0.986618,-0.2545 -1.972437,-0.51966 -2.992221,-0.60356 -1.110782,-0.18142 -2.207382,-0.45524 -3.242638,-0.90568 -0.686221,-0.39173 -1.115764,-0.90239 -1.32879,-1.67569 -0.318969,-0.80633 -0.525622,-1.63363 -0.645978,-2.49349 -0.20987,-0.86068 -0.390459,-1.73563 -0.767429,-2.54313 -0.519938,-1.15172 -1.032002,-2.30754 -1.543685,-3.46287 -0.605745,-1.46525 -1.303618,-2.896036 -1.990442,-4.324058 -0.616421,-1.218708 -1.190374,-2.448759 -1.683774,-3.721325 -0.348967,-0.720437 -0.726755,-1.295307 -1.463831,-1.672191 -0.903682,-0.63655 -1.819794,-1.243076 -2.833584,-1.696513 -1.621563,-0.781582 -3.286493,-1.499891 -5.063239,-1.84603 -1.557173,-0.305083 -3.114548,-0.562734 -4.702588,-0.302202 -1.08963,0.147 -2.146596,0.41165 -3.192446,0.74992 -1.136698,0.228623 -2.265437,0.498268 -3.412104,0.67383 -1.648679,0.287951 -3.296441,0.559935 -4.964948,0.704765 0,0 4.488071,-3.346828 4.488071,-3.346828 z"
       inkscape:connector-curvature="0" />
    <path
       style="fill:#000000;stroke:#000000;stroke-width:0.26499999;stroke-miterlimit:4;stroke-dasharray:none;stroke-opacity:1"
       id="path563"
       d="m 84.569976,15.080841 c 0.447892,1.583598 1.100254,3.103562 1.749677,4.613143 0.769006,1.524784 1.518293,3.066031 2.454679,4.497103 0.572683,0.792106 0.863135,1.730818 1.336924,2.576938 0.525007,0.917416 1.101841,1.801633 1.644933,2.708447 0.393957,0.686387 0.871509,1.316945 1.168628,2.053672 0.366188,0.915509 0.678487,1.851078 1.024128,2.774352 0.364077,1.078116 0.800682,2.128631 1.205595,3.19228 0.276743,0.886412 0.559874,1.770459 0.882409,2.641695 0.271952,0.740175 0.458716,1.506712 0.700146,2.257391 0.2712,0.994886 0.647192,1.955247 0.923948,2.947826 0.41338,1.119674 0.574189,2.294189 0.762038,3.464867 0.306464,1.065609 0.52057,2.149644 0.733395,3.236531 0.170347,0.92379 0.367044,1.839317 0.578597,2.754276 0.199596,0.744434 0.180533,1.520213 0.294477,2.275861 0.18764,0.712763 0.26078,1.441526 0.30902,2.1746 0.0554,0.903761 0.0413,1.809281 0.041,2.714109 -0.004,1.0473 -0.002,2.094621 -0.001,3.141929 0.002,1.002009 -0.002,2.004021 -7.9e-4,3.006032 -0.002,1.039852 -0.003,2.079733 7.9e-4,3.119588 -0.0449,1.009179 0.0236,2.006696 0.15503,3.006061 0.12412,0.849315 0.18422,1.705144 0.21591,2.562254 0.10648,0.917676 0.23669,1.830583 0.31138,2.752212 0.0631,0.969222 0.079,1.941544 0.0725,2.912634 -0.0162,1.514975 -0.022,3.030019 -0.0322,4.545044 -0.0262,2.071608 0.0169,4.142277 -0.10245,6.211303 -0.11133,1.190439 -0.11372,2.390618 -0.23525,3.579672 -0.0914,0.731959 -0.33512,1.421773 -0.62152,2.096667 -0.311977,0.834313 -0.661918,1.652972 -0.988371,2.481642 -0.36911,0.95062 -0.793597,1.87799 -1.186956,2.81867 -0.343918,0.75918 -0.729398,1.4993 -1.02476,2.27949 -0.155414,0.52086 -0.41856,0.99818 -0.644943,1.48957 0,0 -5.082254,2.33531 -5.082254,2.33531 v 0 c 0.198297,-0.49664 0.461952,-0.95344 0.673195,-1.4432 0.218435,-0.82209 0.620541,-1.58426 1.024835,-2.32954 0.380918,-0.94331 0.810895,-1.86294 1.173146,-2.81328 0.351798,-0.81357 0.676958,-1.64217 0.973423,-2.477 0.265716,-0.6484 0.573794,-1.278305 0.683792,-1.978622 0.257143,-1.166921 0.149601,-2.401131 0.347094,-3.580178 0.1612,-2.056749 0.153924,-4.113805 0.115019,-6.176161 -0.0088,-1.503444 -0.01064,-3.006934 -0.03068,-4.510288 -0.01402,-0.957887 -0.005,-1.916576 -0.06347,-2.873304 -0.0624,-0.928412 -0.177694,-1.84922 -0.337434,-2.766091 -0.02029,-0.843103 -0.06074,-1.686198 -0.172736,-2.522887 -0.130299,-1.022199 -0.247002,-2.036628 -0.187327,-3.070156 0.0038,-1.040104 0.003,-2.080228 7.93e-4,-3.120329 7.94e-4,-1.002097 -0.0021,-2.004198 5.3e-4,-3.006289 0.0021,-1.047226 0.0073,-2.094468 0.0031,-3.141689 -0.0027,-0.891971 -0.01117,-1.784297 -0.04308,-2.675736 -0.03988,-0.712391 -0.104463,-1.422202 -0.294044,-2.11314 -0.141571,-0.745075 -0.08374,-1.517227 -0.267055,-2.259137 -0.199438,-0.923396 -0.40917,-1.840934 -0.563459,-2.773624 C 94.017095,53.58209 93.860911,52.476545 93.51935,51.411266 93.316925,50.263475 93.204377,49.097419 92.782181,47.998784 92.509891,47.016826 92.108534,46.078565 91.847776,45.092379 91.584084,44.35408 91.40407,43.594665 91.148636,42.854647 90.818118,41.985197 90.572246,41.086738 90.291494,40.200881 89.889722,39.135608 89.464253,38.081079 89.089447,37.006326 88.73871,36.088727 88.42519,35.156978 88.029519,34.257043 87.765359,33.54138 87.291254,32.935809 86.927574,32.26934 86.398473,31.35082 85.816858,30.466339 85.29614,29.543264 84.815612,28.70604 84.477982,27.808232 83.978912,26.982846 c -0.893969,-1.489641 -1.633908,-3.063199 -2.427214,-4.60724 -0.667432,-1.514361 -1.317934,-3.036513 -1.898922,-4.586517 0,0 4.917437,-2.708248 4.917437,-2.708248 z"
       inkscape:connector-curvature="0" />
    <path
       style="fill:#000000;stroke:#000000;stroke-width:0.26499999;stroke-miterlimit:4;stroke-dasharray:none;stroke-opacity:1"
       id="path571"
       d="m 98.957354,27.898116 c 0.528801,0.923115 0.863147,1.934456 1.317836,2.891576 0.41885,0.814895 0.71208,1.679368 1.03307,2.533478 0.29542,0.740695 0.59763,1.478206 0.88559,2.222248 0.24314,0.746258 0.40669,1.517465 0.58515,2.281881 0.26195,0.755449 0.41656,1.534858 0.57065,2.316932 0.18882,0.863814 0.48067,1.696591 0.65083,2.565503 0.16086,0.80272 0.48861,1.552956 0.67459,2.348548 0.1419,0.819526 0.31416,1.633254 0.58798,2.418942 0.21036,0.687893 0.36889,1.391576 0.53738,2.091283 0.13616,0.762741 0.22884,1.525042 0.42502,2.276176 0.3122,0.893048 0.39832,1.831504 0.55134,2.757405 0.18176,0.835044 0.30287,1.678911 0.36854,2.530462 0.12886,0.652717 0.27408,1.298162 0.34973,1.96024 0.024,0.73506 0.10006,1.455893 0.22634,2.179814 0.13155,0.712666 0.13693,1.43672 0.29801,2.143472 0.17815,0.676891 0.24161,1.373068 0.28019,2.069452 0.0314,0.75084 0.0295,1.502545 0.0298,2.253887 -5.3e-4,0.756719 -0.002,1.513435 -0.002,2.270154 -5.3e-4,0.756076 -5.3e-4,1.512155 -5.3e-4,2.268231 -2e-5,0.755949 -1e-5,1.511895 0,2.267844 1e-5,0.755949 1e-5,1.511901 1e-5,2.26785 0,0.755954 0,1.511906 0,2.267857 0,0.755952 0,1.511906 0,2.267858 0,0.755951 0,1.511906 0,2.267857 -0.003,0.905941 -0.011,1.81183 -0.01,2.717792 0.007,0.890617 0.004,1.781204 0.003,2.671818 7.9e-4,0.842746 0.004,1.685489 0.005,2.528234 0.001,0.763548 0.001,1.527096 0.002,2.290646 0,0 -4.98605,2.540519 -4.98605,2.540519 v 0 c 1.1e-4,-0.764064 2.6e-4,-1.52813 0.002,-2.292194 0.002,-0.844555 0.005,-1.689108 0.005,-2.533663 -0.001,-0.891532 -0.004,-1.783035 0.003,-2.674567 0.002,-0.902724 -0.007,-1.805374 -0.01,-2.708077 0,-0.755951 0,-1.511903 0,-2.267857 0,-0.755952 0,-1.511904 0,-2.267858 0,-0.755951 0,-1.511903 0,-2.267855 0,-0.755949 0,-1.511898 -1e-5,-2.267847 0,-0.755957 -2e-5,-1.511916 -10e-6,-2.267873 3e-5,-0.7562 5e-5,-1.512398 5.3e-4,-2.268598 5.3e-4,-0.756595 0.002,-1.513192 0.003,-2.269787 2.6e-4,-0.742587 0.003,-1.485397 -0.0202,-2.227715 -0.0287,-0.664075 -0.0723,-1.330348 -0.23922,-1.976739 -0.17231,-0.719129 -0.19874,-1.446051 -0.30344,-2.177018 -0.12785,-0.73506 -0.25848,-1.460039 -0.25046,-2.209932 -0.0641,-0.67147 -0.19906,-1.326388 -0.35103,-1.983036 -0.0484,-0.835705 -0.14461,-1.666661 -0.32638,-2.485033 -0.16882,-0.902917 -0.21242,-1.831329 -0.53034,-2.703774 -0.23034,-0.752015 -0.34365,-1.515004 -0.449,-2.292284 -0.15744,-0.684054 -0.33728,-1.362139 -0.51217,-2.041075 -0.27459,-0.806532 -0.465261,-1.637856 -0.60404,-2.478625 -0.17875,-0.806138 -0.515935,-1.559848 -0.690229,-2.367716 -0.146878,-0.869479 -0.430821,-1.696784 -0.638246,-2.551256 -0.18255,-0.771919 -0.282327,-1.563917 -0.576096,-2.307905 -0.163841,-0.741788 -0.342554,-1.481455 -0.545206,-2.212477 -0.284607,-0.747366 -0.592365,-1.484535 -0.88192,-2.229382 -0.314338,-0.840515 -0.594902,-1.693421 -0.995349,-2.500315 -0.453057,-0.953212 -0.750094,-1.980065 -1.348221,-2.861424 0,0 4.875577,-2.776077 4.875577,-2.776077 z"
       inkscape:connector-curvature="0" />
    <path
       style="fill:#000000;stroke:#000000;stroke-width:0.26499999;stroke-miterlimit:4;stroke-dasharray:none;stroke-opacity:1"
       id="path573"
       d="m 109.85948,94.422083 c 1.14233,-0.463312 2.26994,-0.954423 3.42446,-1.391047 0.95922,-0.33193 1.90802,-0.681786 2.8409,-1.077447 0.10985,-0.06145 0.2197,-0.122901 0.32955,-0.184351 -1.49958,0.85639 -2.9935,1.722798 -4.49876,2.569173 -0.0984,0.05531 0.18519,-0.12904 0.27664,-0.19517 0.24519,-0.177302 0.46244,-0.378634 0.69035,-0.576913 0.46158,-0.431681 0.75172,-0.995407 1.03367,-1.552067 0.30715,-0.690822 0.73237,-1.315715 1.0506,-2.002097 0.45208,-0.870508 0.77024,-1.791356 1.12445,-2.703102 0.40055,-0.935397 0.65726,-1.919327 1.00628,-2.873941 0.27336,-0.829858 0.43899,-1.687317 0.67427,-2.5283 0.14108,-0.703797 0.32462,-1.398511 0.46801,-2.101858 0.0987,-0.753166 0.18445,-1.502712 0.32653,-2.249649 0.1588,-0.837353 0.19525,-1.690635 0.22041,-2.540497 0.017,-0.776452 0.0144,-1.553152 0.0134,-2.329736 -10e-4,-0.755819 -0.002,-1.511639 -0.003,-2.267458 -2.6e-4,-0.755626 -2.6e-4,-1.511252 -2.6e-4,-2.266876 0,-0.755933 1e-5,-1.511869 2e-5,-2.267802 0,-0.755957 0,-1.511911 0,-2.267868 -0.0964,-0.754388 -0.23181,-1.500907 -0.29404,-2.259737 -0.13064,-0.862743 -0.29107,-1.718795 -0.3805,-2.58743 -0.0387,-0.733229 -0.18353,-1.453044 -0.42527,-2.144664 -0.17161,-0.604367 -0.38524,-1.19415 -0.61431,-1.779223 -0.19667,-0.646266 -0.49556,-1.246394 -0.78845,-1.852366 -0.34083,-0.556906 -0.6388,-1.125001 -1.00839,-1.663385 -0.39058,-0.584089 -0.60008,-1.257946 -0.97132,-1.850393 -0.39508,-0.666012 -0.7101,-1.375778 -1.0586,-2.066875 -0.49705,-0.880673 -0.95812,-1.779357 -1.49168,-2.638652 -0.42673,-0.678786 -0.69284,-1.437923 -1.15449,-2.094415 -0.44082,-0.664303 -0.87623,-1.332603 -1.29664,-2.01008 -0.49087,-0.812339 -0.89271,-1.670253 -1.35383,-2.49855 -0.4174,-0.667075 -0.74696,-1.369925 -1.08654,-2.07682 -0.28856,-0.65971 -0.70308,-1.252398 -1.05418,-1.879135 -0.4706,-0.605152 -0.92345,-1.218898 -1.37774,-1.836427 -0.27741,-0.540121 -0.79932,-0.844296 -1.22681,-1.246 -0.43318,-0.302099 -0.7431,-0.744718 -1.20805,-1.000816 -0.43289,-0.312512 -0.9068,-0.602197 -1.40932,-0.791077 -0.62556,-0.174064 -1.281065,-0.17901 -1.925616,-0.192969 -0.724913,-0.0222 -1.486342,0.05298 -2.158222,0.338931 -0.103886,0.03939 -0.213889,0.0654 -0.311653,0.118176 -1.026252,0.55403 0.52959,-0.174733 -0.501737,0.332008 -0.0905,0.04447 -0.3673,0.164864 -0.280167,0.114106 6.137355,-3.575177 5.992175,-3.489034 4.352173,-2.47886 -0.20896,0.165571 -0.333801,0.402723 -0.483092,0.618287 0,0 -5.132737,2.278409 -5.132737,2.278409 v 0 c 0.134213,-0.264174 0.319567,-0.481203 0.420929,-0.761961 1.335804,-1.801775 0.09896,-0.200289 5.231129,-3.153264 0.361433,-0.207966 0.726803,-0.397424 1.136623,-0.493217 0.74938,-0.151984 1.50055,-0.256832 2.26756,-0.187264 0.6981,0.03398 1.408,0.07724 2.05855,0.357944 0.50785,0.249835 1.00501,0.529901 1.46138,0.865565 0.44798,0.325046 0.82143,0.735817 1.25627,1.07836 0.4707,0.409474 0.97259,0.793628 1.2731,1.356333 0.45356,0.645218 0.94555,1.25303 1.40367,1.893959 0.35769,0.637675 0.79523,1.232109 1.08504,1.905524 0.32698,0.698037 0.63154,1.398834 1.04537,2.054437 0.46709,0.816496 0.82944,1.686353 1.34763,2.475058 0.41602,0.668962 0.85642,1.322763 1.29062,1.979953 0.46223,0.670751 0.74211,1.433076 1.1523,2.134841 0.52557,0.877922 1.00202,1.782723 1.51485,2.668027 0.36059,0.668605 0.66936,1.363654 1.05484,2.018115 0.36806,0.5872 0.58023,1.247788 0.96275,1.828821 0.38441,0.561935 0.69881,1.153562 1.04737,1.737677 0.29922,0.615998 0.61291,1.222227 0.80961,1.88142 0.24855,0.58737 0.45832,1.190673 0.62701,1.805253 0.25527,0.732057 0.43788,1.494194 0.47714,2.271196 0.0725,0.873014 0.2095,1.735926 0.3786,2.595396 0.0633,0.772102 0.18002,1.534414 0.3249,2.295276 0,0.755957 0,1.511914 0,2.267871 -1e-5,0.755928 -2e-5,1.511855 -1e-5,2.267783 1e-5,0.755529 1e-5,1.511059 2.6e-4,2.266588 2.6e-4,0.755822 0.001,1.511641 0.002,2.26746 5.3e-4,0.782294 0.003,1.564667 -0.0121,2.34686 -0.022,0.874064 -0.059,1.74897 -0.17632,2.616329 -0.13615,0.748639 -0.28583,1.485414 -0.32477,2.247988 -0.12024,0.722148 -0.33847,1.41759 -0.44624,2.141299 -0.22353,0.862714 -0.48385,1.711127 -0.68643,2.580031 -0.32665,0.970796 -0.63999,1.942373 -0.99614,2.902032 -0.39041,0.893117 -0.59966,1.850126 -1.09946,2.69502 -0.2684,0.710083 -0.64652,1.355124 -1.03172,1.999316 -0.22449,0.615524 -0.56105,1.211794 -0.94886,1.735722 -0.25528,0.312195 -0.5883,0.669343 -0.93767,0.876522 -4.95721,2.939629 -3.29987,2.194433 -5.43324,3.132892 -0.92377,0.380153 -1.8826,0.672266 -2.81395,1.033655 -1.16637,0.447437 -2.30151,0.96461 -3.4548,1.443988 0,0 4.39551,-3.473842 4.39551,-3.473842 z"
       inkscape:connector-curvature="0" />
    <path
       style="fill:#333333;stroke:#000000;stroke-width:0.26499999;stroke-miterlimit:4;stroke-dasharray:none;stroke-opacity:1"
       id="path575"
       d="m 106.20067,97.862992 c -0.65094,-0.693608 -1.26885,-1.417473 -1.90102,-2.128171 0,0 4.7247,-2.857026 4.7247,-2.857026 v 0 c 0.62696,0.70684 1.24082,1.431121 1.94671,2.061898 0,0 -4.77039,2.923299 -4.77039,2.923299 z"
       inkscape:connector-curvature="0" />
    <path
       style="fill:#000000;stroke:#000000;stroke-width:0.26499999;stroke-miterlimit:4;stroke-dasharray:none;stroke-opacity:1"
       id="path577"
       d="m 35.004308,83.998868 c -0.01463,1.049613 -0.06271,2.104202 0.01812,3.151836 0.07833,0.595135 0.03705,0.300505 0.123595,0.883922 0,0 -4.937834,2.606384 -4.937834,2.606384 v 0 c -0.08522,-0.598659 -0.0424,-0.293817 -0.128312,-0.914551 -0.111448,-1.05642 -0.0118,-2.121233 -0.07229,-3.181641 0,0 4.996711,-2.54595 4.996711,-2.54595 z"
       inkscape:connector-curvature="0" />
    <path
       style="fill:#333333;stroke:#000000;stroke-width:0.26499999;stroke-miterlimit:4;stroke-dasharray:none;stroke-opacity:1"
       id="path579"
       d="m 108.38248,91.43203 c 0.30213,0.932801 0.40652,1.91064 0.6259,2.861288 0.23296,0.504817 0.39052,1.080196 0.91749,1.338228 0.47619,0.0823 0.91842,0.267481 1.38774,0.381138 0,0 -4.62452,3.17563 -4.62452,3.17563 v 0 c -0.5026,-0.151099 -1.02319,-0.277979 -1.48849,-0.523439 -0.57368,-0.441528 -0.84988,-1.059502 -1.11009,-1.72331 -0.21583,-0.931389 -0.2692,-1.90282 -0.62547,-2.801287 0,0 4.91744,-2.708248 4.91744,-2.708248 z"
       inkscape:connector-curvature="0" />
    <path
       style="fill:#4d4d4d;stroke:#000000;stroke-width:1.43082106;stroke-miterlimit:4;stroke-dasharray:none;stroke-opacity:1"
       d="m 281.5553,415.71299 c -3.92858,-1.0088 -10.84162,-2.62028 -15.36233,-3.58103 -9.16121,-1.94697 -9.7536,-2.63909 -12.9337,-15.11103 -1.74539,-6.84516 -15.62599,-39.08657 -24.11986,-56.02484 -3.35322,-6.6869 -25.81279,-17.71236 -41.72645,-20.4836 -9.34187,-1.62682 -9.19633,-1.6435 -37.06721,4.24882 -7.73668,1.63565 -14.64739,2.9739 -15.35714,2.9739 -0.70975,0 -1.29046,-2.53348 -1.29046,-5.62997 0,-3.09648 -0.64286,-6.02728 -1.42857,-6.51288 -0.78571,-0.4856 -1.42857,-4.02475 -1.42857,-7.86476 0,-3.84001 -2.25,-15.68474 -5,-26.32161 -2.75,-10.63688 -5,-22.53946 -5,-26.4502 v -7.11045 l 6.07143,-1.49633 c 12.33574,-3.0402 39.13831,-12.01312 45.82378,-15.34081 6.72566,-3.34769 23.75628,-14.13797 28.16823,-17.84685 7.40132,-6.22188 22.39323,-27.20885 27.98624,-39.17757 7.69586,-16.46869 10.25057,-25.78055 11.90445,-43.39142 1.51431,-16.12476 4.61202,-25.77494 10.00487,-31.167792 2.173,-2.173002 13.19619,-8.01072 24.49596,-12.972705 11.29977,-4.961986 21.91125,-9.87968 23.58107,-10.928208 2.91397,-1.829781 3.36366,-1.235029 11.18673,14.795429 4.48288,9.186014 11.05427,21.488456 14.60305,27.338746 10.13512,16.70805 21.70025,49.79259 29.24053,83.64881 4.08329,18.33419 4.5811,23.45062 5.9768,61.42857 0.83737,22.78572 1.50276,57.5 1.47862,77.14286 l -0.0439,35.71429 -5.79761,13.57143 c -3.18869,7.46428 -7.23906,16.94642 -9.00083,21.07142 l -3.20322,7.5 -27.30954,-0.094 c -17.26589,-0.0594 -29.93646,-0.76858 -34.45239,-1.92821 z"
       id="path581"
       inkscape:connector-curvature="0"
       transform="scale(0.26458333)" />
    <path
       style="fill:#808080;stroke:#000000;stroke-width:1.43082106;stroke-miterlimit:4;stroke-dasharray:none;stroke-opacity:1"
       d="m 287.98387,415.37061 c -11.74337,-1.90068 -25.42737,-5.31277 -28.09015,-7.00422 -1.69958,-1.07962 -3.54564,-4.074 -4.10236,-6.6542 -2.8644,-13.27545 -24.6973,-61.79205 -29.64357,-65.8733 -5.77768,-4.76728 -26.64314,-13.94789 -36.28567,-15.96538 -10.02865,-2.09825 -15.49385,-1.56037 -43.05734,4.23779 -5.73995,1.20744 -10.64534,2.19534 -10.90087,2.19534 -0.51411,0 -1.38799,-4.64613 -3.49306,-18.57143 -0.77204,-5.10714 -3.36966,-18.0468 -5.77249,-28.7548 -4.69757,-20.93432 -5.43374,-29.60268 -2.58307,-30.41538 27.978,-7.97626 49.44774,-16.18527 61.24936,-23.41886 16.2376,-9.95256 22.94747,-16.59287 34.72022,-34.36025 13.73806,-20.73342 18.29177,-32.79069 21.57002,-57.1128 4.23591,-31.42726 4.45358,-31.71759 34.60096,-46.150026 12.88629,-6.169048 23.89645,-11.216451 24.46702,-11.216451 0.57055,0 2.49555,3.053571 4.27775,6.785714 1.7822,3.732143 8.33608,16.173214 14.56415,27.646823 16.00471,29.48452 26.64161,59.38356 34.13767,95.95685 3.86356,18.8503 5.73971,57.86754 5.75634,119.71098 l 0.0143,50.81466 -8.29866,19.18534 -8.29867,19.18535 -25.6299,0.17814 c -14.09709,0.098 -27.23769,-0.082 -29.20197,-0.39989 z"
       id="path583"
       inkscape:connector-curvature="0"
       transform="scale(0.26458333)" />
    <path
       style="fill:#808080;stroke:#000000;stroke-width:1.43082106;stroke-miterlimit:4;stroke-dasharray:none;stroke-opacity:1"
       d="m 413.51612,350.25684 c -2.86882,-3.64711 -2.96082,-5.33651 -2.96082,-54.36767 0,-28.59396 -0.66494,-55.0727 -1.5288,-60.87877 -0.84084,-5.65135 -2.51093,-16.70376 -3.71131,-24.5609 -2.91387,-19.07284 -16.64154,-73.06524 -21.94455,-86.31028 -2.33332,-5.8278 -3.93296,-10.90544 -3.55475,-11.28365 1.18274,-1.18274 11.49342,6.694 15.0377,11.4879 5.05404,6.83596 32.19685,54.85365 42.21269,74.67746 8.69824,17.21595 10.51882,28.18737 10.58203,63.77076 0.0545,30.66858 -1.67985,43.9384 -8.06778,61.72865 -6.46038,17.99203 -11.22089,26.13335 -16.32061,27.91112 -6.18485,2.15605 -6.36975,2.11478 -9.7438,-2.17462 z"
       id="path585"
       inkscape:connector-curvature="0"
       transform="scale(0.26458333)" />
  </g>
</svg>
